# Blender v2.70 (sub 0) OBJ File: 'barrel.blend'
# www.blender.org
mtllib Barrel.mtl
v 0.000000 0.500000 0.400000
v -0.200000 0.500000 0.346410
v -0.346410 0.500000 0.200000
v -0.400000 0.500000 -0.000000
v -0.346410 0.500000 -0.200000
v -0.200000 0.500000 -0.346410
v -0.000000 0.500000 -0.400000
v 0.200000 0.500000 -0.346410
v 0.346410 0.500000 -0.200000
v 0.400000 0.500000 -0.000000
v 0.346410 0.500000 0.200000
v 0.200000 0.500000 0.346410
v 0.000000 0.224710 0.400000
v 0.000000 0.275290 0.400000
v -0.200000 0.275290 0.346410
v -0.200000 0.224710 0.346410
v -0.346410 0.275290 0.200000
v -0.346410 0.224710 0.200000
v -0.400000 0.275290 -0.000000
v -0.400000 0.224710 -0.000000
v -0.346410 0.275290 -0.200000
v -0.346410 0.224710 -0.200000
v -0.200000 0.275290 -0.346410
v -0.200000 0.224710 -0.346410
v -0.000000 0.275290 -0.400000
v -0.000000 0.224710 -0.400000
v 0.200000 0.275290 -0.346410
v 0.200000 0.224710 -0.346410
v 0.346410 0.275290 -0.200000
v 0.346410 0.224710 -0.200000
v 0.400000 0.275290 -0.000000
v 0.400000 0.224710 -0.000000
v 0.346410 0.275290 0.200000
v 0.346410 0.224710 0.200000
v 0.200000 0.275290 0.346410
v 0.200000 0.224710 0.346410
v 0.000000 0.238594 0.414277
v 0.000000 0.261406 0.414277
v -0.207139 0.261406 0.358775
v -0.207139 0.238594 0.358775
v -0.358775 0.261406 0.207139
v -0.358775 0.238594 0.207139
v -0.414277 0.261406 -0.000000
v -0.414277 0.238594 -0.000000
v -0.358775 0.261406 -0.207139
v -0.358775 0.238594 -0.207139
v -0.207139 0.261406 -0.358775
v -0.207139 0.238594 -0.358775
v -0.000000 0.261406 -0.414277
v -0.000000 0.238594 -0.414277
v 0.207139 0.261406 -0.358775
v 0.207139 0.238594 -0.358775
v 0.358775 0.261406 -0.207139
v 0.358775 0.238594 -0.207139
v 0.414277 0.261406 -0.000000
v 0.414277 0.238594 -0.000000
v 0.358775 0.261406 0.207138
v 0.358775 0.238594 0.207138
v 0.207139 0.261406 0.358774
v 0.207139 0.238594 0.358774
v 0.000000 0.500000 0.374200
v -0.187100 0.500000 0.324067
v -0.324067 0.500000 0.187100
v -0.374200 0.500000 -0.000000
v -0.324067 0.500000 -0.187100
v -0.187100 0.500000 -0.324067
v -0.000000 0.500000 -0.374200
v 0.187100 0.500000 -0.324067
v 0.324067 0.500000 -0.187100
v 0.374200 0.500000 -0.000000
v 0.324067 0.500000 0.187100
v 0.187100 0.500000 0.324066
v 0.000000 0.477035 0.374200
v -0.187100 0.477035 0.324067
v -0.324067 0.477035 0.187100
v -0.374200 0.477035 -0.000000
v -0.324067 0.477035 -0.187100
v -0.187100 0.477035 -0.324067
v -0.000000 0.477035 -0.374200
v 0.187100 0.477035 -0.324067
v 0.324067 0.477035 -0.187100
v 0.374200 0.477035 -0.000000
v 0.324067 0.477035 0.187100
v 0.187100 0.477035 0.324066
v 0.000000 -0.500000 0.400000
v -0.200000 -0.500000 0.346410
v -0.346410 -0.500000 0.200000
v -0.400000 -0.500000 -0.000000
v -0.346410 -0.500000 -0.200000
v -0.200000 -0.500000 -0.346410
v -0.000000 -0.500000 -0.400000
v 0.200000 -0.500000 -0.346410
v 0.346410 -0.500000 -0.200000
v 0.400000 -0.500000 -0.000000
v 0.346410 -0.500000 0.200000
v 0.200000 -0.500000 0.346410
v 0.000000 0.000000 0.400000
v 0.000000 -0.224710 0.400000
v 0.000000 -0.275290 0.400000
v -0.200000 -0.275290 0.346410
v -0.200000 -0.224710 0.346410
v -0.200000 0.000000 0.346410
v -0.346410 -0.275290 0.200000
v -0.346410 -0.224710 0.200000
v -0.346410 0.000000 0.200000
v -0.400000 -0.275290 -0.000000
v -0.400000 -0.224710 -0.000000
v -0.400000 0.000000 -0.000000
v -0.346410 -0.275290 -0.200000
v -0.346410 -0.224710 -0.200000
v -0.346410 0.000000 -0.200000
v -0.200000 -0.275290 -0.346410
v -0.200000 -0.224710 -0.346410
v -0.200000 0.000000 -0.346410
v -0.000000 -0.275290 -0.400000
v -0.000000 -0.224710 -0.400000
v -0.000000 0.000000 -0.400000
v 0.200000 -0.275290 -0.346410
v 0.200000 -0.224710 -0.346410
v 0.200000 0.000000 -0.346410
v 0.346410 -0.275290 -0.200000
v 0.346410 -0.224710 -0.200000
v 0.346410 0.000000 -0.200000
v 0.400000 -0.275290 -0.000000
v 0.400000 -0.224710 -0.000000
v 0.400000 0.000000 -0.000000
v 0.346410 -0.275290 0.200000
v 0.346410 -0.224710 0.200000
v 0.346410 0.000000 0.200000
v 0.200000 -0.275290 0.346410
v 0.200000 -0.224710 0.346410
v 0.200000 0.000000 0.346410
v 0.000000 -0.238594 0.414277
v 0.000000 -0.261406 0.414277
v -0.207139 -0.261406 0.358775
v -0.207139 -0.238594 0.358775
v -0.358775 -0.261406 0.207139
v -0.358775 -0.238594 0.207139
v -0.414277 -0.261406 -0.000000
v -0.414277 -0.238594 -0.000000
v -0.358775 -0.261406 -0.207139
v -0.358775 -0.238594 -0.207139
v -0.207139 -0.261406 -0.358775
v -0.207139 -0.238594 -0.358775
v -0.000000 -0.261406 -0.414277
v -0.000000 -0.238594 -0.414277
v 0.207139 -0.261406 -0.358775
v 0.207139 -0.238594 -0.358775
v 0.358775 -0.261406 -0.207139
v 0.358775 -0.238594 -0.207139
v 0.414277 -0.261406 -0.000000
v 0.414277 -0.238594 -0.000000
v 0.358775 -0.261406 0.207138
v 0.358775 -0.238594 0.207138
v 0.207139 -0.261406 0.358774
v 0.207139 -0.238594 0.358774
v 0.000000 -0.500000 0.374200
v -0.187100 -0.500000 0.324067
v -0.324067 -0.500000 0.187100
v -0.374200 -0.500000 -0.000000
v -0.324067 -0.500000 -0.187100
v -0.187100 -0.500000 -0.324067
v -0.000000 -0.500000 -0.374200
v 0.187100 -0.500000 -0.324067
v 0.324067 -0.500000 -0.187100
v 0.374200 -0.500000 -0.000000
v 0.324067 -0.500000 0.187100
v 0.187100 -0.500000 0.324066
v 0.000000 -0.477035 0.374200
v -0.187100 -0.477035 0.324067
v -0.324067 -0.477035 0.187100
v -0.374200 -0.477035 -0.000000
v -0.324067 -0.477035 -0.187100
v -0.187100 -0.477035 -0.324067
v -0.000000 -0.477035 -0.374200
v 0.187100 -0.477035 -0.324067
v 0.324067 -0.477035 -0.187100
v 0.374200 -0.477035 -0.000000
v 0.324067 -0.477035 0.187100
v 0.187100 -0.477035 0.324066
v 0.000000 0.477035 -0.000000
v 0.000000 -0.477035 -0.000000
vt 0.875000 0.975000
vt 0.950000 0.975000
vt 0.950000 0.873880
vt 0.875000 0.873880
vt 0.800000 0.975000
vt 0.800000 0.873880
vt 0.725000 0.975000
vt 0.725000 0.873880
vt 0.650000 0.975000
vt 0.650000 0.873880
vt 0.575000 0.975000
vt 0.575000 0.873880
vt 0.500000 0.975000
vt 0.500000 0.873881
vt 0.425000 0.975000
vt 0.425000 0.873881
vt 0.350000 0.975000
vt 0.350000 0.873881
vt 0.275000 0.975000
vt 0.275000 0.873881
vt 0.200000 0.975000
vt 0.200000 0.873880
vt 0.125000 0.975000
vt 0.125000 0.873880
vt 0.050000 0.975000
vt 0.050000 0.873880
vt 0.950000 0.750000
vt 0.950000 0.851120
vt 0.875000 0.851120
vt 0.875000 0.750000
vt 0.800000 0.867633
vt 0.875000 0.867633
vt 0.800000 0.851120
vt 0.800000 0.750000
vt 0.725000 0.851120
vt 0.800000 0.857367
vt 0.725000 0.857367
vt 0.725000 0.750000
vt 0.200000 0.867633
vt 0.275000 0.867633
vt 0.650000 0.851120
vt 0.650000 0.750000
vt 0.425000 0.867633
vt 0.500000 0.867633
vt 0.575000 0.851120
vt 0.575000 0.750000
vt 0.125000 0.851120
vt 0.200000 0.851120
vt 0.200000 0.857367
vt 0.125000 0.857367
vt 0.500000 0.851120
vt 0.500000 0.750000
vt 0.350000 0.851120
vt 0.425000 0.851120
vt 0.425000 0.857367
vt 0.350000 0.857367
vt 0.425000 0.750000
vt 0.650000 0.867633
vt 0.725000 0.867633
vt 0.350000 0.750000
vt 0.650000 0.857367
vt 0.575000 0.857367
vt 0.275000 0.851120
vt 0.275000 0.750000
vt 0.950000 0.867633
vt 0.200000 0.750000
vt 0.050000 0.867633
vt 0.125000 0.867633
vt 0.125000 0.750000
vt 0.875000 0.857367
vt 0.050000 0.851120
vt 0.050000 0.750000
vt 0.350000 0.867633
vt 0.950000 0.857367
vt 0.575000 0.867633
vt 0.500000 0.857367
vt 0.275000 0.857367
vt 0.050000 0.857367
vt 0.000000 0.000000
vt 0.875000 0.525000
vt 0.950000 0.525000
vt 0.950000 0.626119
vt 0.875000 0.626119
vt 0.800000 0.525000
vt 0.800000 0.626119
vt 0.725000 0.525000
vt 0.725000 0.626119
vt 0.650000 0.525000
vt 0.650000 0.626120
vt 0.575000 0.525000
vt 0.575000 0.626120
vt 0.500000 0.525000
vt 0.500000 0.626120
vt 0.425000 0.525000
vt 0.425000 0.626120
vt 0.350000 0.525000
vt 0.350000 0.626120
vt 0.275000 0.525000
vt 0.275000 0.626120
vt 0.200000 0.525000
vt 0.200000 0.626120
vt 0.125000 0.525000
vt 0.125000 0.626120
vt 0.050000 0.525000
vt 0.050000 0.626119
vt 0.875000 0.648880
vt 0.950000 0.648880
vt 0.875000 0.632367
vt 0.800000 0.632367
vt 0.800000 0.648880
vt 0.725000 0.648880
vt 0.725000 0.642633
vt 0.800000 0.642633
vt 0.275000 0.632367
vt 0.200000 0.632367
vt 0.650000 0.648880
vt 0.500000 0.632367
vt 0.425000 0.632367
vt 0.575000 0.648880
vt 0.125000 0.648880
vt 0.125000 0.642633
vt 0.200000 0.642633
vt 0.200000 0.648880
vt 0.500000 0.648880
vt 0.350000 0.648880
vt 0.350000 0.642633
vt 0.425000 0.642633
vt 0.425000 0.648880
vt 0.725000 0.632367
vt 0.650000 0.632367
vt 0.575000 0.642633
vt 0.650000 0.642633
vt 0.275000 0.648880
vt 0.950000 0.632367
vt 0.125000 0.632367
vt 0.050000 0.632367
vt 0.875000 0.642633
vt 0.050000 0.648880
vt 0.350000 0.632367
vt 0.950000 0.642633
vt 0.575000 0.632367
vt 0.500000 0.642633
vt 0.275000 0.642633
vt 0.050000 0.642633
vt 0.532957 0.308156
vt 0.532957 0.191844
vt 0.750000 0.250000
vt 0.908886 0.408886
vt 0.808156 0.467043
vt 0.591114 0.091114
vt 0.967043 0.308156
vt 0.691844 0.467043
vt 0.591114 0.408886
vt 0.691844 0.032957
vt 0.808156 0.032957
vt 0.908886 0.091114
vt 0.967043 0.191844
vt 0.190865 0.029333
vt 0.308252 0.032554
vt 0.250000 0.250000
vt 0.085354 0.085355
vt 0.029333 0.190865
vt 0.032554 0.308252
vt 0.090816 0.409164
vt 0.191728 0.467426
vt 0.308252 0.467426
vt 0.409164 0.090816
vt 0.467426 0.191728
vt 0.467426 0.308252
vt 0.411522 0.411522
vn -0.378552 0.653218 0.655721
vn 0.000000 0.653218 0.757134
vn 0.000000 0.770257 -0.637715
vn 0.318857 0.770257 -0.552263
vn 0.000000 0.414167 0.910184
vn -0.455092 0.414167 0.788232
vn -0.655721 0.653218 0.378552
vn 0.552263 0.770257 -0.318857
vn -0.788232 0.414167 0.455092
vn -0.757134 0.653218 0.000000
vn 0.637715 0.770257 0.000000
vn -0.910184 0.414167 0.000000
vn -0.655721 0.653218 -0.378552
vn 0.552263 0.770257 0.318857
vn -0.788232 0.414167 -0.455092
vn -0.378552 0.653218 -0.655721
vn 0.318857 0.770257 0.552263
vn -0.455092 0.414167 -0.788232
vn 0.000000 0.653218 -0.757134
vn 0.000000 0.770257 0.637715
vn 0.000000 0.414167 -0.910184
vn 0.378552 0.653218 -0.655721
vn -0.318857 0.770257 0.552263
vn 0.455092 0.414167 -0.788232
vn 0.655721 0.653218 -0.378552
vn -0.552263 0.770257 0.318857
vn 0.788232 0.414167 -0.455092
vn 0.757134 0.653218 0.000000
vn -0.637715 0.770257 0.000000
vn 0.910184 0.414167 0.000000
vn 0.655721 0.653218 0.378552
vn -0.552263 0.770257 -0.318857
vn 0.788232 0.414167 0.455092
vn 0.378552 0.653218 0.655721
vn -0.318857 0.770257 -0.552263
vn 0.455092 0.414167 0.788232
vn 0.000000 0.000000 0.999969
vn 0.000000 -0.414167 0.910184
vn -0.455092 -0.414167 0.788232
vn -0.499985 0.000000 0.866024
vn -0.805292 0.367840 0.464919
vn -0.464919 0.367840 0.805292
vn -0.788232 -0.414167 0.455092
vn -0.866024 0.000000 0.499985
vn -0.910184 -0.414167 0.000000
vn -0.805292 -0.367840 0.464919
vn -0.929868 -0.367840 0.000000
vn -0.999969 0.000000 0.000000
vn 0.805292 0.367840 0.464919
vn 0.929868 0.367840 0.000000
vn -0.788232 -0.414167 -0.455092
vn -0.866024 0.000000 -0.499985
vn 0.464919 0.367840 -0.805292
vn 0.000000 0.367840 -0.929868
vn -0.455092 -0.414167 -0.788232
vn -0.499985 0.000000 -0.866024
vn 0.455092 -0.414167 0.788232
vn 0.788232 -0.414167 0.455092
vn 0.805292 -0.367840 0.464919
vn 0.464919 -0.367840 0.805292
vn 0.000000 -0.414167 -0.910184
vn 0.000000 0.000000 -0.999969
vn 0.788232 -0.414167 -0.455092
vn 0.455092 -0.414167 -0.788232
vn 0.464919 -0.367840 -0.805292
vn 0.805292 -0.367840 -0.464919
vn 0.499985 0.000000 -0.866024
vn -0.805292 0.367840 -0.464919
vn -0.929868 0.367840 0.000000
vn 0.866024 0.000000 -0.499985
vn -0.805292 -0.367840 -0.464919
vn -0.464919 -0.367840 -0.805292
vn 0.910184 -0.414167 0.000000
vn 1.000000 0.000000 0.000000
vn 0.000000 0.367840 0.929868
vn 0.866024 0.000000 0.499985
vn 0.464919 0.367840 0.805292
vn 0.499985 0.000000 0.866024
vn -0.464919 -0.367840 0.805292
vn 0.805292 0.367840 -0.464919
vn 0.000000 -0.367840 0.929868
vn -0.464919 0.367840 -0.805292
vn 0.000000 -0.367840 -0.929868
vn 0.929868 -0.367840 0.000000
vn -0.378552 -0.653218 0.655721
vn 0.318857 -0.770257 -0.552263
vn 0.000000 -0.770257 -0.637715
vn 0.000000 -0.653218 0.757134
vn -0.655721 -0.653218 0.378552
vn 0.552263 -0.770257 -0.318857
vn -0.757134 -0.653218 0.000000
vn 0.637715 -0.770257 0.000000
vn -0.655721 -0.653218 -0.378552
vn 0.552263 -0.770257 0.318857
vn -0.378552 -0.653218 -0.655721
vn 0.318857 -0.770257 0.552263
vn 0.000000 -0.653218 -0.757134
vn 0.000000 -0.770257 0.637715
vn 0.378552 -0.653218 -0.655721
vn -0.318857 -0.770257 0.552263
vn 0.655721 -0.653218 -0.378552
vn -0.552263 -0.770257 0.318857
vn 0.757134 -0.653218 0.000000
vn -0.637715 -0.770257 0.000000
vn 0.655721 -0.653218 0.378552
vn -0.552263 -0.770257 -0.318857
vn 0.378552 -0.653218 0.655721
vn -0.318857 -0.770257 -0.552263
vn 0.000000 -1.000000 0.000000
vn 0.000000 1.000000 0.000000
usemtl Barrel
s 1
f 2/1/1 1/2/2 61/2/3 62/1/4
f 14/3/5 1/2/2 2/1/1 15/4/6
f 3/5/7 2/1/1 62/1/4 63/5/8
f 15/4/6 2/1/1 3/5/7 17/6/9
f 4/7/10 3/5/7 63/5/8 64/7/11
f 17/6/9 3/5/7 4/7/10 19/8/12
f 5/9/13 4/7/10 64/7/11 65/9/14
f 19/8/12 4/7/10 5/9/13 21/10/15
f 6/11/16 5/9/13 65/9/14 66/11/17
f 21/10/15 5/9/13 6/11/16 23/12/18
f 7/13/19 6/11/16 66/11/17 67/13/20
f 23/12/18 6/11/16 7/13/19 25/14/21
f 8/15/22 7/13/19 67/13/20 68/15/23
f 25/14/21 7/13/19 8/15/22 27/16/24
f 9/17/25 8/15/22 68/15/23 69/17/26
f 27/16/24 8/15/22 9/17/25 29/18/27
f 10/19/28 9/17/25 69/17/26 70/19/29
f 29/18/27 9/17/25 10/19/28 31/20/30
f 11/21/31 10/19/28 70/19/29 71/21/32
f 31/20/30 10/19/28 11/21/31 33/22/33
f 12/23/34 11/21/31 71/21/32 72/23/35
f 33/22/33 11/21/31 12/23/34 35/24/36
f 1/25/2 12/23/34 72/23/35 61/25/3
f 35/24/36 12/23/34 1/25/2 14/26/5
f 97/27/37 13/28/38 16/29/39 102/30/40
f 15/4/6 17/6/9 41/31/41 39/32/42
f 102/30/40 16/29/39 18/33/43 105/34/44
f 20/35/45 18/33/43 42/36/46 44/37/47
f 105/34/44 18/33/43 20/35/45 108/38/48
f 31/20/30 33/22/33 57/39/49 55/40/50
f 108/38/48 20/35/45 22/41/51 111/42/52
f 25/14/21 27/16/24 51/43/53 49/44/54
f 111/42/52 22/41/51 24/45/55 114/46/56
f 36/47/57 34/48/58 58/49/59 60/50/60
f 114/46/56 24/45/55 26/51/61 117/52/62
f 30/53/63 28/54/64 52/55/65 54/56/66
f 117/52/62 26/51/61 28/54/64 120/57/67
f 19/8/12 21/10/15 45/58/68 43/59/69
f 120/57/67 28/54/64 30/53/63 123/60/70
f 24/45/55 22/41/51 46/61/71 48/62/72
f 123/60/70 30/53/63 32/63/73 126/64/74
f 14/3/5 15/4/6 39/32/42 38/65/75
f 126/64/74 32/63/73 34/48/58 129/66/76
f 35/24/36 14/26/5 38/67/75 59/68/77
f 129/66/76 34/48/58 36/47/57 132/69/78
f 18/33/43 16/29/39 40/70/79 42/36/46
f 132/69/78 36/47/57 13/71/38 97/72/37
f 29/18/27 31/20/30 55/40/50 53/73/80
f 37/74/81 38/65/75 39/32/42 40/70/79
f 40/70/79 39/32/42 41/31/41 42/36/46
f 42/36/46 41/31/41 43/59/69 44/37/47
f 44/37/47 43/59/69 45/58/68 46/61/71
f 46/61/71 45/58/68 47/75/82 48/62/72
f 48/62/72 47/75/82 49/44/54 50/76/83
f 50/76/83 49/44/54 51/43/53 52/55/65
f 52/55/65 51/43/53 53/73/80 54/56/66
f 54/56/66 53/73/80 55/40/50 56/77/84
f 56/77/84 55/40/50 57/39/49 58/49/59
f 58/49/59 57/39/49 59/68/77 60/50/60
f 60/50/60 59/68/77 38/67/75 37/78/81
f 26/51/61 24/45/55 48/62/72 50/76/83
f 32/63/73 30/53/63 54/56/66 56/77/84
f 21/10/15 23/12/18 47/75/82 45/58/68
f 13/71/38 36/47/57 60/50/60 37/78/81
f 16/29/39 13/28/38 37/74/81 40/70/79
f 27/16/24 29/18/27 53/73/80 51/43/53
f 33/22/33 35/24/36 59/68/77 57/39/49
f 22/41/51 20/35/45 44/37/47 46/61/71
f 17/6/9 19/8/12 43/59/69 41/31/41
f 28/54/64 26/51/61 50/76/83 52/55/65
f 34/48/58 32/63/73 56/77/84 58/49/59
f 23/12/18 25/14/21 49/44/54 47/75/82
f 62/79/4 61/79/3 73/79/19 74/79/22
f 63/79/8 62/79/4 74/79/22 75/79/25
f 64/79/11 63/79/8 75/79/25 76/79/28
f 65/79/14 64/79/11 76/79/28 77/79/31
f 66/79/17 65/79/14 77/79/31 78/79/34
f 67/79/20 66/79/17 78/79/34 79/79/2
f 68/79/23 67/79/20 79/79/2 80/79/1
f 69/79/26 68/79/23 80/79/1 81/79/7
f 70/79/29 69/79/26 81/79/7 82/79/10
f 71/79/32 70/79/29 82/79/10 83/79/13
f 72/79/35 71/79/32 83/79/13 84/79/16
f 61/79/3 72/79/35 84/79/16 73/79/19
f 86/80/85 158/80/86 157/81/87 85/81/88
f 99/82/38 100/83/39 86/80/85 85/81/88
f 87/84/89 159/84/90 158/80/86 86/80/85
f 100/83/39 103/85/43 87/84/89 86/80/85
f 88/86/91 160/86/92 159/84/90 87/84/89
f 103/85/43 106/87/45 88/86/91 87/84/89
f 89/88/93 161/88/94 160/86/92 88/86/91
f 106/87/45 109/89/51 89/88/93 88/86/91
f 90/90/95 162/90/96 161/88/94 89/88/93
f 109/89/51 112/91/55 90/90/95 89/88/93
f 91/92/97 163/92/98 162/90/96 90/90/95
f 112/91/55 115/93/61 91/92/97 90/90/95
f 92/94/99 164/94/100 163/92/98 91/92/97
f 115/93/61 118/95/64 92/94/99 91/92/97
f 93/96/101 165/96/102 164/94/100 92/94/99
f 118/95/64 121/97/63 93/96/101 92/94/99
f 94/98/103 166/98/104 165/96/102 93/96/101
f 121/97/63 124/99/73 94/98/103 93/96/101
f 95/100/105 167/100/106 166/98/104 94/98/103
f 124/99/73 127/101/58 95/100/105 94/98/103
f 96/102/107 168/102/108 167/100/106 95/100/105
f 127/101/58 130/103/57 96/102/107 95/100/105
f 85/104/88 157/104/87 168/102/108 96/102/107
f 130/103/57 99/105/38 85/104/88 96/102/107
f 97/27/37 102/30/40 101/106/6 98/107/5
f 100/83/39 135/108/79 137/109/46 103/85/43
f 102/30/40 105/34/44 104/110/9 101/106/6
f 107/111/12 140/112/69 138/113/41 104/110/9
f 105/34/44 108/38/48 107/111/12 104/110/9
f 124/99/73 151/114/84 153/115/59 127/101/58
f 108/38/48 111/42/52 110/116/15 107/111/12
f 115/93/61 145/117/83 147/118/65 118/95/64
f 111/42/52 114/46/56 113/119/18 110/116/15
f 131/120/36 156/121/77 154/122/49 128/123/33
f 114/46/56 117/52/62 116/124/21 113/119/18
f 122/125/27 150/126/80 148/127/53 119/128/24
f 117/52/62 120/57/67 119/128/24 116/124/21
f 106/87/45 139/129/47 141/130/71 109/89/51
f 120/57/67 123/60/70 122/125/27 119/128/24
f 113/119/18 144/131/82 142/132/68 110/116/15
f 123/60/70 126/64/74 125/133/30 122/125/27
f 99/82/38 134/134/81 135/108/79 100/83/39
f 126/64/74 129/66/76 128/123/33 125/133/30
f 130/103/57 155/135/60 134/136/81 99/105/38
f 129/66/76 132/69/78 131/120/36 128/123/33
f 104/110/9 138/113/41 136/137/42 101/106/6
f 132/69/78 97/72/37 98/138/5 131/120/36
f 121/97/63 149/139/66 151/114/84 124/99/73
f 133/140/75 136/137/42 135/108/79 134/134/81
f 136/137/42 138/113/41 137/109/46 135/108/79
f 138/113/41 140/112/69 139/129/47 137/109/46
f 140/112/69 142/132/68 141/130/71 139/129/47
f 142/132/68 144/131/82 143/141/72 141/130/71
f 144/131/82 146/142/54 145/117/83 143/141/72
f 146/142/54 148/127/53 147/118/65 145/117/83
f 148/127/53 150/126/80 149/139/66 147/118/65
f 150/126/80 152/143/50 151/114/84 149/139/66
f 152/143/50 154/122/49 153/115/59 151/114/84
f 154/122/49 156/121/77 155/135/60 153/115/59
f 156/121/77 133/144/75 134/136/81 155/135/60
f 116/124/21 146/142/54 144/131/82 113/119/18
f 125/133/30 152/143/50 150/126/80 122/125/27
f 109/89/51 141/130/71 143/141/72 112/91/55
f 98/138/5 133/144/75 156/121/77 131/120/36
f 101/106/6 136/137/42 133/140/75 98/107/5
f 118/95/64 147/118/65 149/139/66 121/97/63
f 127/101/58 153/115/59 155/135/60 130/103/57
f 110/116/15 142/132/68 140/112/69 107/111/12
f 103/85/43 137/109/46 139/129/47 106/87/45
f 119/128/24 148/127/53 146/142/54 116/124/21
f 128/123/33 154/122/49 152/143/50 125/133/30
f 112/91/55 143/141/72 145/117/83 115/93/61
f 158/79/86 170/79/99 169/79/97 157/79/87
f 159/79/90 171/79/101 170/79/99 158/79/86
f 160/79/92 172/79/103 171/79/101 159/79/90
f 161/79/94 173/79/105 172/79/103 160/79/92
f 162/79/96 174/79/107 173/79/105 161/79/94
f 163/79/98 175/79/88 174/79/107 162/79/96
f 164/79/100 176/79/85 175/79/88 163/79/98
f 165/79/102 177/79/89 176/79/85 164/79/100
f 166/79/104 178/79/91 177/79/89 165/79/102
f 167/79/106 179/79/93 178/79/91 166/79/104
f 168/79/108 180/79/95 179/79/93 167/79/106
f 157/79/87 169/79/97 180/79/95 168/79/108
f 177/145/89 178/146/91 182/147/109
f 173/148/105 174/149/107 182/147/109
f 178/146/91 179/150/93 182/147/109
f 172/151/103 173/148/105 182/147/109
f 182/147/109 175/152/88 176/153/85
f 174/149/107 175/152/88 182/147/109
f 179/150/93 180/154/95 182/147/109
f 180/154/95 169/155/97 182/147/109
f 170/156/99 182/147/109 169/155/97
f 170/156/99 171/157/101 182/147/109
f 176/153/85 177/145/89 182/147/109
f 171/157/101 172/151/103 182/147/109
f 78/158/34 77/159/31 181/160/110
f 78/158/34 181/160/110 79/161/2
f 181/160/110 80/162/1 79/161/2
f 81/163/7 80/162/1 181/160/110
f 82/164/10 81/163/7 181/160/110
f 83/165/13 82/164/10 181/160/110
f 84/166/16 83/165/13 181/160/110
f 76/167/28 75/168/25 181/160/110
f 77/159/31 76/167/28 181/160/110
f 75/168/25 74/169/22 181/160/110
f 74/169/22 73/170/19 181/160/110
f 84/166/16 181/160/110 73/170/19
