# Blender v2.70 (sub 0) OBJ File: 'brickwallsmall.blend'
# www.blender.org
mtllib brickwallsmall.mtl
o BrickWallSmall_brickwallsmall
v 0.099531 -4.000001 5.215822
v 0.099531 -1.747767 4.596379
v 0.099531 -1.073118 5.215823
v 0.099531 1.747765 1.490756
v 0.099531 4.000000 0.000000
v 0.099531 -4.000000 -0.000000
v 0.099531 -1.747766 1.490756
v 0.099531 -1.747766 3.561172
v 0.099531 -0.873884 1.490756
v 0.099531 3.999999 5.215824
v 0.099531 1.747764 4.596380
v 0.099531 1.747764 2.525964
v 0.099531 1.073116 5.215823
v 0.099531 0.873882 4.596380
v 0.099531 -0.000001 5.215823
v 0.099531 -0.000001 4.596380
v 0.099531 -0.873884 4.596380
v 0.099531 0.873883 1.490756
v 0.099531 1.073117 0.000000
v 0.099531 -0.000001 1.490756
v 0.099531 0.000000 0.000000
v 0.099531 -1.073117 0.000000
v 0.099531 -1.747766 2.525963
v 0.099531 -4.000001 2.525963
v 0.099531 -4.000001 3.561172
v 0.099531 1.747764 3.561172
v 0.099531 3.999999 3.561172
v 0.099531 3.999999 2.525964
v 0.099531 -0.919178 4.550827
v 0.099531 -0.919178 3.606725
v 0.099531 -1.702472 4.550826
v 0.099531 -1.702472 3.606725
v 0.099531 -0.873884 3.561172
v 0.099531 1.702470 4.550827
v 0.099531 1.702470 3.606725
v 0.099531 0.919176 4.550827
v 0.099531 0.873882 3.561172
v 0.099531 0.919176 3.606725
v 0.099531 0.828587 4.550827
v 0.099531 0.828588 3.606725
v 0.099531 0.045293 4.550827
v 0.099531 -0.000001 3.561172
v 0.099531 0.045293 3.606725
v 0.099531 -0.045296 4.550827
v 0.099531 -0.045295 3.606725
v 0.099531 -0.828590 4.550827
v 0.099531 -0.828589 3.606725
v 0.099531 -0.873884 2.525963
v 0.099531 -0.919177 2.480410
v 0.099531 -0.919177 1.536309
v 0.099531 -1.702472 2.480410
v 0.099531 -1.702471 1.536309
v 0.099531 -0.919178 3.515619
v 0.099531 -0.919177 2.571517
v 0.099531 -1.702472 3.515618
v 0.099531 -1.702472 2.571516
v 0.099531 1.702470 2.480411
v 0.099531 1.702470 1.536309
v 0.099531 0.873882 2.525963
v 0.099531 0.919176 2.480410
v 0.099531 0.919176 1.536309
v 0.099531 1.702470 3.515619
v 0.099531 1.702470 2.571517
v 0.099531 0.919176 3.515619
v 0.099531 0.919176 2.571517
v 0.099531 0.828588 2.480410
v 0.099531 0.828588 1.536309
v 0.099531 -0.000001 2.525963
v 0.099531 0.045294 2.480410
v 0.099531 0.045294 1.536309
v 0.099531 0.828588 3.515619
v 0.099531 0.828588 2.571517
v 0.099531 0.045294 3.515619
v 0.099531 0.045294 2.571517
v 0.099531 -0.045295 2.480410
v 0.099531 -0.045295 1.536309
v 0.099531 -0.828589 2.480410
v 0.099531 -0.828589 1.536309
v 0.099531 -0.045295 3.515619
v 0.099531 -0.045295 2.571517
v 0.099531 -0.828589 3.515619
v 0.099531 -0.828589 2.571517
v -0.099531 -4.000001 5.215822
v -0.099531 -1.747767 4.596379
v -0.099531 -1.073118 5.215823
v -0.099531 -0.873884 4.596380
v -0.099531 4.000000 0.000000
v -0.099531 1.747765 1.490756
v -0.099531 -1.747766 1.490756
v -0.099531 -4.000000 -0.000000
v -0.099531 -1.747766 3.561172
v -0.099531 -4.000001 3.561172
v -0.099531 -0.873884 1.490756
v -0.099531 -1.073117 0.000000
v -0.099531 3.999999 5.215824
v -0.099531 1.747764 4.596380
v -0.099531 1.747764 2.525964
v -0.099531 3.999999 2.525964
v -0.099531 1.073116 5.215823
v -0.099531 -0.000001 5.215823
v -0.099531 0.873882 4.596380
v -0.099531 -0.000001 4.596380
v -0.099531 0.873883 1.490756
v -0.099531 -0.000001 1.490756
v -0.099531 1.073117 0.000000
v -0.099531 0.000000 0.000000
v -0.099531 -1.747766 2.525963
v -0.099531 -4.000001 2.525963
v -0.099531 1.747764 3.561172
v -0.099531 3.999999 3.561172
v -0.099531 -0.919178 4.550827
v -0.099531 -0.873884 3.561172
v -0.099531 -1.702472 4.550826
v -0.099531 -1.702472 3.606725
v -0.099531 -0.919178 3.606725
v -0.099531 1.702470 4.550827
v -0.099531 0.919176 4.550827
v -0.099531 0.919176 3.606725
v -0.099531 0.873882 3.561172
v -0.099531 1.702470 3.606725
v -0.099531 0.828587 4.550827
v -0.099531 0.045293 4.550827
v -0.099531 0.045293 3.606725
v -0.099531 -0.000001 3.561172
v -0.099531 0.828588 3.606725
v -0.099531 -0.045296 4.550827
v -0.099531 -0.828590 4.550827
v -0.099531 -0.828589 3.606725
v -0.099531 -0.045295 3.606725
v -0.099531 -0.919177 2.480410
v -0.099531 -0.873884 2.525963
v -0.099531 -1.702472 2.480410
v -0.099531 -1.702471 1.536309
v -0.099531 -0.919177 1.536309
v -0.099531 -0.919178 3.515619
v -0.099531 -1.702472 3.515618
v -0.099531 -1.702472 2.571516
v -0.099531 -0.919177 2.571517
v -0.099531 1.702470 2.480411
v -0.099531 0.919176 2.480410
v -0.099531 0.873882 2.525963
v -0.099531 0.919176 1.536309
v -0.099531 1.702470 1.536309
v -0.099531 1.702470 3.515619
v -0.099531 0.919176 3.515619
v -0.099531 0.919176 2.571517
v -0.099531 1.702470 2.571517
v -0.099531 0.828588 2.480410
v -0.099531 0.045294 2.480410
v -0.099531 -0.000001 2.525963
v -0.099531 0.045294 1.536309
v -0.099531 0.828588 1.536309
v -0.099531 0.828588 3.515619
v -0.099531 0.045294 3.515619
v -0.099531 0.045294 2.571517
v -0.099531 0.828588 2.571517
v -0.099531 -0.045295 1.536309
v -0.099531 -0.045295 2.480410
v -0.099531 -0.828589 2.480410
v -0.099531 -0.828589 1.536309
v -0.099531 -0.045295 3.515619
v -0.099531 -0.828589 3.515619
v -0.099531 -0.828589 2.571517
v -0.099531 -0.045295 2.571517
vt 0.000000 0.000000
vt 0.231721 0.318315
vt 0.365860 0.318315
vt 0.365861 0.000000
vt 0.500000 0.841814
vt 0.500000 1.000000
vt 0.634140 1.000000
vt 0.634140 0.841814
vt 1.000000 0.000000
vt 0.768279 0.318315
vt 0.634140 0.318315
vt 0.634140 0.000000
vt 1.000000 0.667314
vt 0.768279 0.667314
vt 0.768279 0.841814
vt 1.000000 1.000000
vt 0.231721 0.841814
vt 0.238674 0.834135
vt 0.358908 0.834135
vt 0.365860 0.841814
vt 1.000000 0.492814
vt 0.768279 0.492814
vt 0.500000 0.318315
vt 0.500000 0.000000
vt 0.365860 1.000000
vt 0.000000 0.492814
vt 0.231721 0.492814
vt 0.365860 0.667314
vt 0.358908 0.659635
vt 0.358908 0.500493
vt 0.365860 0.492814
vt 0.231721 0.667314
vt 0.238674 0.674993
vt 0.238674 0.500493
vt 0.238674 0.659635
vt 0.372813 0.674993
vt 0.372813 0.834135
vt 0.641092 0.834135
vt 0.761326 0.834135
vt 0.506953 0.834135
vt 0.627187 0.834135
vt 0.761326 0.674993
vt 0.641092 0.674993
vt 0.634140 0.667314
vt 0.641092 0.659635
vt 0.761326 0.659635
vt 0.493047 0.834135
vt 0.493047 0.674993
vt 0.500000 0.667314
vt 0.627187 0.674993
vt 0.506953 0.674993
vt 0.358908 0.674993
vt 0.372813 0.659635
vt 0.493047 0.659635
vt 0.500000 0.492814
vt 0.493047 0.485136
vt 0.493047 0.325993
vt 0.372813 0.485136
vt 0.358908 0.325993
vt 0.238674 0.325993
vt 0.372813 0.325993
vt 0.372813 0.500493
vt 0.238674 0.485136
vt 0.358908 0.485136
vt 0.761326 0.500493
vt 0.634140 0.492814
vt 0.627187 0.500493
vt 0.506953 0.500493
vt 0.627187 0.485136
vt 0.627187 0.325993
vt 0.761326 0.485136
vt 0.761326 0.325993
vt 0.506953 0.659635
vt 0.627187 0.659635
vt 0.641092 0.500493
vt 0.641092 0.485136
vt 0.493047 0.500493
vt 0.641092 0.325993
vt 0.506953 0.325993
vt 0.506953 0.485136
vt 0.000000 0.667314
vt 0.000000 1.000000
vt 0.657797 0.739520
vt 0.657797 0.578310
vt 0.678328 0.578310
vt 0.678328 0.739520
vt 0.473018 0.578309
vt 0.473018 0.338259
vt 0.493549 0.338259
vt 0.493549 0.578309
vt 0.411425 0.338259
vt 0.411425 0.578310
vt 0.390894 0.578310
vt 0.390894 0.338259
vt 0.308770 0.739520
vt 0.308770 0.578310
vt 0.329301 0.578310
vt 0.329301 0.739520
vt 0.370363 0.739520
vt 0.370363 0.578310
vt 0.390894 0.739520
vt 0.288239 0.739520
vt 0.288239 0.578310
vt 0.431956 0.338259
vt 0.431956 0.578310
vt 0.678328 0.338259
vt 0.657797 0.338259
vt 0.514080 0.338259
vt 0.514080 0.578310
vt 0.493549 0.578310
vt 0.719390 0.499469
vt 0.719390 0.338259
vt 0.739921 0.338259
vt 0.739921 0.499469
vt 0.431956 0.578309
vt 0.452487 0.338259
vt 0.452487 0.578309
vt 0.637266 0.338259
vt 0.637266 0.578310
vt 0.616735 0.578310
vt 0.616735 0.338259
vt 0.575673 0.739520
vt 0.575673 0.578310
vt 0.596204 0.578310
vt 0.596204 0.739520
vt 0.411425 0.739520
vt 0.329301 0.338259
vt 0.349832 0.338259
vt 0.349832 0.578310
vt 0.267708 0.578310
vt 0.267708 0.338259
vt 0.288239 0.338259
vt 0.473018 0.739520
vt 0.493549 0.739520
vt 0.247177 0.578310
vt 0.247177 0.338259
vt 0.514080 0.739520
vt 0.534611 0.578310
vt 0.534611 0.739520
vt 0.698859 0.739520
vt 0.698859 0.578310
vt 0.719390 0.578310
vt 0.719390 0.739520
vt 0.534611 0.578309
vt 0.534611 0.338259
vt 0.555142 0.338259
vt 0.555142 0.578309
vt 0.555142 0.818360
vt 0.534611 0.818360
vt 0.719390 0.578309
vt 0.698859 0.578309
vt 0.698859 0.338259
vt 0.555142 0.739520
vt 0.555142 0.578310
vt 0.678328 0.578309
vt 0.760452 0.338259
vt 0.760452 0.499469
vt 0.596204 0.338259
vt 0.308770 0.338259
vt 0.247177 0.739520
vt 0.267708 0.739520
vt 0.370363 0.338259
vt 0.575673 0.338259
vt 0.431956 0.739520
vt 0.452487 0.739520
vt 0.739921 0.578310
vt 0.739922 0.739520
vt 0.616735 0.739520
vt 0.637266 0.739520
vt 0.349832 0.739520
vn -1.000000 0.000000 0.000000
vn 1.000000 0.000000 0.000000
vn 0.000000 0.000000 1.000000
vn 0.000000 1.000000 0.000000
vn 0.000000 -1.000000 -0.000000
vn 0.000000 -0.000001 1.000000
vn 0.000000 0.000001 -1.000000
vn 0.000000 0.000000 -1.000000
usemtl BrickWallSmall
s off
f 90/1/1 89/2/1 93/3/1 94/4/1
f 102/5/1 100/6/1 99/7/1 101/8/1
f 5/9/2 4/10/2 18/11/2 19/12/2
f 110/13/1 109/14/1 96/15/1 95/16/1
f 2/17/2 31/18/2 29/19/2 17/20/2
f 105/12/1 103/11/1 88/10/1 87/9/1
f 11/15/2 10/16/2 13/7/2 14/8/2
f 98/21/1 97/22/1 109/14/1 110/13/1
f 19/12/2 18/11/2 20/23/2 21/24/2
f 106/24/1 104/23/1 103/11/1 105/12/1
f 86/20/1 85/25/1 100/6/1 102/5/1
f 108/26/1 107/27/1 89/2/1 90/1/1
f 33/28/2 53/29/2 54/30/2 48/31/2
f 8/32/2 32/33/2 31/18/2 2/17/2
f 23/27/2 56/34/2 55/35/2 8/32/2
f 33/28/2 47/36/2 46/37/2 17/20/2
f 14/8/2 36/38/2 34/39/2 11/15/2
f 16/5/2 41/40/2 39/41/2 14/8/2
f 26/14/2 35/42/2 38/43/2 37/44/2
f 37/44/2 64/45/2 62/46/2 26/14/2
f 37/44/2 38/43/2 36/38/2 14/8/2
f 17/20/2 46/37/2 44/47/2 16/5/2
f 16/5/2 44/47/2 45/48/2 42/49/2
f 42/49/2 45/48/2 47/36/2 33/28/2
f 14/8/2 39/41/2 40/50/2 37/44/2
f 42/49/2 43/51/2 41/40/2 16/5/2
f 17/20/2 29/19/2 30/52/2 33/28/2
f 33/28/2 81/53/2 79/54/2 42/49/2
f 68/55/2 75/56/2 76/57/2 20/23/2
f 48/31/2 77/58/2 75/56/2 68/55/2
f 9/3/2 50/59/2 52/60/2 7/2/2
f 20/23/2 76/57/2 78/61/2 9/3/2
f 48/31/2 82/62/2 81/53/2 33/28/2
f 33/28/2 30/52/2 32/33/2 8/32/2
f 7/2/2 52/60/2 51/63/2 23/27/2
f 23/27/2 51/63/2 49/64/2 48/31/2
f 26/14/2 62/46/2 63/65/2 12/22/2
f 59/66/2 72/67/2 74/68/2 68/55/2
f 59/66/2 66/69/2 67/70/2 18/11/2
f 12/22/2 57/71/2 58/72/2 4/10/2
f 11/15/2 34/39/2 35/42/2 26/14/2
f 42/49/2 73/73/2 71/74/2 37/44/2
f 12/22/2 63/65/2 65/75/2 59/66/2
f 59/66/2 60/76/2 57/71/2 12/22/2
f 68/55/2 80/77/2 82/62/2 48/31/2
f 18/11/2 61/78/2 60/76/2 59/66/2
f 152/70/1 103/11/1 104/23/1 151/79/1
f 4/10/2 58/72/2 61/78/2 18/11/2
f 59/66/2 65/75/2 64/45/2 37/44/2
f 37/44/2 40/50/2 43/51/2 42/49/2
f 42/49/2 79/54/2 80/77/2 68/55/2
f 68/55/2 69/80/2 66/69/2 59/66/2
f 20/23/2 70/79/2 69/80/2 68/55/2
f 9/3/2 78/61/2 77/58/2 48/31/2
f 48/31/2 49/64/2 50/59/2 9/3/2
f 18/11/2 67/70/2 70/79/2 20/23/2
f 37/44/2 71/74/2 72/67/2 59/66/2
f 8/32/2 55/35/2 53/29/2 33/28/2
f 68/55/2 74/68/2 73/73/2 42/49/2
f 48/31/2 54/30/2 56/34/2 23/27/2
f 21/24/2 20/23/2 9/3/2 22/4/2
f 92/81/1 91/32/1 107/27/1 108/26/1
f 16/5/2 15/6/2 3/25/2 17/20/2
f 14/8/2 13/7/2 15/6/2 16/5/2
f 22/4/2 9/3/2 7/2/2 6/1/2
f 1/82/2 25/81/2 8/32/2 2/17/2
f 94/4/1 93/3/1 104/23/1 106/24/1
f 27/13/2 26/14/2 12/22/2 28/21/2
f 6/1/2 7/2/2 23/27/2 24/26/2
f 24/26/2 23/27/2 8/32/2 25/81/2
f 162/53/1 112/28/1 124/49/1 161/54/1
f 127/37/1 86/20/1 102/5/1 126/47/1
f 137/34/1 107/27/1 91/32/1 136/35/1
f 129/48/1 124/49/1 112/28/1 128/36/1
f 114/33/1 91/32/1 84/17/1 113/18/1
f 121/41/1 101/8/1 119/44/1 125/50/1
f 122/40/1 123/51/1 124/49/1 102/5/1
f 146/75/1 141/66/1 119/44/1 145/45/1
f 118/43/1 119/44/1 101/8/1 117/38/1
f 117/38/1 101/8/1 96/15/1 116/39/1
f 126/47/1 102/5/1 124/49/1 129/48/1
f 154/73/1 124/49/1 119/44/1 153/74/1
f 128/36/1 112/28/1 86/20/1 127/37/1
f 122/40/1 102/5/1 101/8/1 121/41/1
f 111/19/1 86/20/1 112/28/1 115/52/1
f 142/78/1 103/11/1 141/66/1 140/76/1
f 159/58/1 131/31/1 150/55/1 158/56/1
f 156/67/1 141/66/1 150/55/1 155/68/1
f 139/71/1 97/22/1 88/10/1 143/72/1
f 133/60/1 89/2/1 107/27/1 132/63/1
f 136/35/1 91/32/1 112/28/1 135/29/1
f 115/52/1 112/28/1 91/32/1 114/33/1
f 113/18/1 84/17/1 86/20/1 111/19/1
f 132/63/1 107/27/1 131/31/1 130/64/1
f 144/46/1 109/14/1 97/22/1 147/65/1
f 82/83/3 80/84/3 164/85/3 163/86/3
f 148/69/1 141/66/1 103/11/1 152/70/1
f 157/57/1 104/23/1 93/3/1 160/61/1
f 116/39/1 96/15/1 109/14/1 120/42/1
f 120/42/1 109/14/1 119/44/1 118/43/1
f 153/74/1 119/44/1 141/66/1 156/67/1
f 140/76/1 141/66/1 97/22/1 139/71/1
f 151/79/1 104/23/1 150/55/1 149/80/1
f 147/65/1 97/22/1 141/66/1 146/75/1
f 157/57/1 158/56/1 150/55/1 104/23/1
f 143/72/1 88/10/1 103/11/1 142/78/1
f 154/73/1 155/68/1 150/55/1 124/49/1
f 145/45/1 119/44/1 109/14/1 144/46/1
f 161/54/1 124/49/1 150/55/1 164/77/1
f 149/80/1 150/55/1 141/66/1 148/69/1
f 160/61/1 93/3/1 131/31/1 159/58/1
f 164/77/1 150/55/1 131/31/1 163/62/1
f 130/64/1 131/31/1 93/3/1 134/59/1
f 134/59/1 93/3/1 89/2/1 133/60/1
f 163/62/1 131/31/1 112/28/1 162/53/1
f 125/50/1 119/44/1 124/49/1 123/51/1
f 135/29/1 112/28/1 131/31/1 138/30/1
f 138/30/1 131/31/1 107/27/1 137/34/1
f 46/87/4 47/88/4 128/89/4 127/90/4
f 72/91/5 71/92/5 153/93/5 156/94/5
f 65/95/6 63/96/6 147/97/6 146/98/6
f 43/99/3 40/100/3 125/93/3 123/101/3
f 53/102/7 55/103/7 136/96/7 135/95/7
f 41/92/4 43/91/4 123/104/4 122/105/4
f 30/106/5 29/85/5 111/84/5 115/107/5
f 80/108/5 79/109/5 161/110/5 164/89/5
f 49/111/8 51/112/8 132/113/8 130/114/8
f 51/115/4 52/104/4 133/116/4 132/117/4
f 76/118/5 75/119/5 158/120/5 157/121/5
f 62/122/8 64/123/8 145/124/8 144/125/8
f 44/101/8 46/93/8 127/92/8 126/126/8
f 69/97/4 70/127/4 151/128/4 149/129/4
f 55/130/4 56/131/4 137/132/4 136/103/4
f 61/133/3 58/87/3 143/90/3 142/134/3
f 73/135/4 74/136/4 155/131/4 154/130/4
f 56/137/3 54/109/3 138/138/3 137/139/3
f 52/140/3 50/141/3 134/142/3 133/143/3
f 60/144/4 61/145/4 142/146/4 140/147/4
f 45/147/5 44/148/5 126/149/5 129/144/5
f 67/112/5 66/150/5 148/151/5 152/152/5
f 31/117/4 32/116/4 114/88/4 113/87/4
f 78/153/3 76/154/3 157/123/3 160/122/3
f 40/152/5 39/151/5 121/155/5 125/106/5
f 38/114/3 35/113/3 120/156/3 118/157/3
f 35/121/5 34/120/5 116/124/5 120/158/5
f 81/96/4 82/159/4 163/127/4 162/97/4
f 71/160/8 73/135/8 154/130/8 153/161/8
f 50/107/5 49/84/5 130/119/5 134/118/5
f 36/100/4 38/162/4 118/94/4 117/93/4
f 63/158/5 62/124/5 144/123/5 147/163/5
f 29/164/7 31/115/7 113/117/7 111/165/7
f 47/86/3 45/85/3 129/141/3 128/140/3
f 77/129/4 78/128/4 160/162/4 159/100/4
f 32/165/6 30/117/6 115/87/6 114/133/6
f 58/163/5 57/123/5 139/154/5 143/146/5
f 79/134/8 81/110/8 162/109/8 161/137/8
f 34/143/7 36/142/7 117/166/7 116/167/7
f 64/103/4 65/132/4 146/159/4 145/96/4
f 54/145/5 53/138/5 135/109/5 138/108/5
f 74/126/3 72/92/3 156/105/3 155/164/3
f 39/168/8 41/120/8 122/119/8 121/169/8
f 57/98/7 60/97/7 140/129/7 139/170/7
f 66/169/8 69/119/8 149/84/8 148/83/8
f 75/170/8 77/129/8 159/100/8 158/99/8
f 70/161/3 67/130/3 152/103/3 151/102/3
f 87/9/1 88/10/1 97/22/1 98/21/1
f 17/20/2 3/25/2 1/82/2 2/17/2
f 10/16/2 11/15/2 26/14/2 27/13/2
f 101/8/1 99/7/1 95/16/1 96/15/1
f 84/17/1 83/82/1 85/25/1 86/20/1
f 83/82/1 84/17/1 91/32/1 92/81/1
f 28/21/2 12/22/2 4/10/2 5/9/2
