# Blender v2.70 (sub 0) OBJ File: 'brick.blend'
# www.blender.org
mtllib brick.mtl
o brick_new_brick
v 0.965595 0.458155 -0.306367
v 1.000000 0.423750 -0.306367
v 0.965595 0.423750 -0.340772
v 0.965595 -0.423751 -0.340772
v 1.000000 -0.423751 -0.306367
v 0.965595 -0.458155 -0.306367
v -0.965596 -0.423750 -0.340772
v -0.965596 -0.458155 -0.306367
v -1.000000 -0.423750 -0.306367
v -1.000000 0.423751 -0.306367
v -0.965595 0.458155 -0.306367
v -0.965595 0.423751 -0.340772
v 1.000000 0.423750 0.306367
v 0.965596 0.458155 0.306367
v 0.965596 0.423750 0.340772
v 0.965595 -0.423751 0.340772
v 0.965595 -0.458155 0.306367
v 0.999999 -0.423751 0.306367
v -0.965596 -0.423750 0.340772
v -1.000000 -0.423750 0.306367
v -0.965596 -0.458155 0.306367
v -0.965595 0.458155 0.306367
v -1.000000 0.423750 0.306367
v -0.965595 0.423750 0.340772
vt 0.667320 0.942156
vt 0.667320 0.757872
vt 0.035805 0.757872
vt 0.035805 0.942156
vt 0.666526 0.522684
vt 0.666526 0.713192
vt 0.036599 0.713192
vt 0.036599 0.522684
vt 0.705978 0.022709
vt 0.960221 0.022709
vt 0.960221 0.208027
vt 0.705978 0.208027
vt 0.667280 0.483916
vt 0.029255 0.483916
vt 0.029255 0.272861
vt 0.667280 0.272861
vt 0.710252 0.233646
vt 0.964495 0.233646
vt 0.964495 0.418964
vt 0.710252 0.418965
vt 0.678570 0.757872
vt 0.667320 0.747524
vt 0.666526 0.511988
vt 0.677748 0.522684
vt 0.036599 0.511988
vt 0.025377 0.522684
vt 0.024554 0.757872
vt 0.035805 0.747525
vt 0.678571 0.942156
vt 0.667320 0.952503
vt 0.666526 0.723889
vt 0.677748 0.713192
vt 0.036599 0.723889
vt 0.025377 0.713192
vt 0.024554 0.942156
vt 0.035805 0.952503
vt 0.692855 0.421908
vt 0.692854 0.230703
vt 0.688580 0.210970
vt 0.688580 0.019766
vt 0.981893 0.230703
vt 0.981893 0.421907
vt 0.977618 0.019766
vt 0.977619 0.210970
vt 0.667280 0.030575
vt 0.667280 0.241630
vt 0.029255 0.241630
vt 0.029255 0.030575
vn 0.341563 0.875576 0.341563
vn 0.341563 0.875576 -0.341563
vn -0.341563 0.875576 -0.341563
vn -0.341563 0.875576 0.341563
vn 0.341563 -0.875576 -0.341563
vn 0.341563 -0.875576 0.341563
vn -0.341563 -0.875576 0.341563
vn -0.341563 -0.875576 -0.341563
vn -0.875576 -0.341563 -0.341563
vn -0.875576 -0.341563 0.341563
vn -0.875576 0.341563 0.341563
vn -0.875576 0.341563 -0.341563
vn 0.341563 0.341563 0.875576
vn -0.341563 0.341563 0.875576
vn -0.341563 -0.341563 0.875576
vn 0.341563 -0.341563 0.875576
vn 0.875576 0.341563 -0.341563
vn 0.875576 0.341563 0.341563
vn 0.875576 -0.341563 0.341563
vn 0.875576 -0.341563 -0.341563
vn 0.341563 0.341563 -0.875576
vn 0.341563 -0.341563 -0.875576
vn -0.341563 -0.341563 -0.875576
vn -0.341563 0.341563 -0.875576
usemtl Brick
s 1
f 14/1/1 1/2/2 11/3/3 22/4/4
f 6/5/5 17/6/6 21/7/7 8/8/8
f 9/9/9 20/10/10 23/11/11 10/12/12
f 15/13/13 24/14/14 19/15/15 16/16/16
f 2/17/17 13/18/18 18/19/19 5/20/20
f 1/2/2 2/21/17 3/22/21
f 4/23/22 5/24/20 6/5/5
f 7/25/23 8/8/8 9/26/9
f 10/27/12 11/3/3 12/28/24
f 13/29/18 14/1/1 15/30/13
f 16/31/16 17/6/6 18/32/19
f 19/33/15 20/34/10 21/7/7
f 22/4/4 23/35/11 24/36/14
f 2/17/17 5/20/20 4/37/22 3/38/21
f 3/22/21 12/28/24 11/3/3 1/2/2
f 1/2/2 14/1/1 13/29/18 2/21/17
f 6/5/5 8/8/8 7/25/23 4/23/22
f 5/24/20 18/32/19 17/6/6 6/5/5
f 9/9/9 10/12/12 12/39/24 7/40/23
f 8/8/8 21/7/7 20/34/10 9/26/9
f 10/27/12 23/35/11 22/4/4 11/3/3
f 15/41/13 16/42/16 18/19/19 13/18/18
f 14/1/1 22/4/4 24/36/14 15/30/13
f 16/31/16 19/33/15 21/7/7 17/6/6
f 19/43/15 24/44/14 23/11/11 20/10/10
f 3/45/21 4/46/22 7/47/23 12/48/24
