# Blender v2.70 (sub 0) OBJ File: 'brickwallsmall.blend'
# www.blender.org
mtllib brickwallsmall.mtl
o BrickWallSmall_brickwallsmall
v 0.099531 -4.000001 5.215822
v 0.099531 -1.747767 4.596379
v 0.099531 -0.893426 5.215823
v 0.099531 1.747765 1.490756
v 0.099531 4.000000 0.000000
v 0.099531 -4.000000 -0.000000
v 0.099531 -1.747766 1.490756
v 0.099531 -1.747766 3.561172
v 0.099531 -0.873884 1.490756
v 0.099531 3.999999 5.215824
v 0.099531 1.747764 4.596380
v 0.099531 1.747764 2.525964
v 0.099531 0.893424 5.215823
v 0.099531 0.873882 4.596380
v 0.099531 -0.000001 5.215823
v 0.099531 -0.000001 4.596380
v 0.099531 -0.873884 4.596380
v 0.099531 0.873883 1.490756
v 0.099531 0.893425 0.000000
v 0.099531 -0.000001 1.490756
v 0.099531 -0.000000 0.000000
v 0.099531 -0.893425 0.000000
v 0.099531 -1.747766 2.525963
v 0.099531 -4.000001 2.525963
v 0.099531 -4.000001 3.561172
v 0.099531 1.747764 3.561172
v 0.099531 3.999999 3.561172
v 0.099531 3.999999 2.525964
v 0.099531 -0.919178 4.550827
v 0.099531 -0.919178 3.606725
v 0.099531 -1.702472 4.550826
v 0.099531 -1.702472 3.606725
v 0.099531 -0.873884 3.561172
v 0.099531 1.702470 4.550827
v 0.099531 1.702470 3.606725
v 0.099531 0.919176 4.550827
v 0.099531 0.873882 3.561172
v 0.099531 0.919176 3.606725
v 0.099531 0.828587 4.550827
v 0.099531 0.828588 3.606725
v 0.099531 0.045293 4.550827
v 0.099531 -0.000001 3.561172
v 0.099531 0.045293 3.606725
v 0.099531 -0.045296 4.550827
v 0.099531 -0.045295 3.606725
v 0.099531 -0.828590 4.550827
v 0.099531 -0.828589 3.606725
v 0.099531 -0.873884 2.525963
v 0.099531 -0.919177 2.480410
v 0.099531 -0.919177 1.536309
v 0.099531 -1.702472 2.480410
v 0.099531 -1.702471 1.536309
v 0.099531 -0.919178 3.515619
v 0.099531 -0.919177 2.571517
v 0.099531 -1.702472 3.515618
v 0.099531 -1.702472 2.571516
v 0.099531 1.702470 2.480411
v 0.099531 1.702470 1.536309
v 0.099531 0.873882 2.525963
v 0.099531 0.919176 2.480410
v 0.099531 0.919176 1.536309
v 0.099531 1.702470 3.515619
v 0.099531 1.702470 2.571517
v 0.099531 0.919176 3.515619
v 0.099531 0.919176 2.571517
v 0.099531 0.828588 2.480410
v 0.099531 0.828588 1.536309
v 0.099531 -0.000001 2.525963
v 0.099531 0.045294 2.480410
v 0.099531 0.045294 1.536309
v 0.099531 0.828588 3.515619
v 0.099531 0.828588 2.571517
v 0.099531 0.045294 3.515619
v 0.099531 0.045294 2.571517
v 0.099531 -0.045295 2.480410
v 0.099531 -0.045295 1.536309
v 0.099531 -0.828589 2.480410
v 0.099531 -0.828589 1.536309
v 0.099531 -0.045295 3.515619
v 0.099531 -0.045295 2.571517
v 0.099531 -0.828589 3.515619
v 0.099531 -0.828589 2.571517
v -0.099531 -4.000001 5.215822
v -0.099531 -1.747767 4.596379
v -0.099531 -0.873884 5.215823
v -0.099531 -0.873884 4.596380
v -0.099531 4.000000 0.000000
v -0.099531 1.747765 1.490756
v -0.099531 -1.747766 1.490756
v -0.099531 -4.000000 -0.000000
v -0.099531 -1.747766 3.561172
v -0.099531 -4.000001 3.561172
v -0.099531 -0.873884 1.490756
v -0.099531 -0.873883 0.000000
v -0.099531 3.999999 5.215824
v -0.099531 1.747764 4.596380
v -0.099531 1.747764 2.525964
v -0.099531 3.999999 2.525964
v -0.099531 0.873882 5.215823
v -0.099531 0.000000 5.215823
v -0.099531 0.873882 4.596380
v -0.099531 0.000000 4.596380
v -0.099531 0.873883 1.490756
v -0.099531 0.000000 1.490756
v -0.099531 0.873883 0.000000
v -0.099531 0.000000 0.000000
v -0.099531 -1.747766 2.525963
v -0.099531 -4.000001 2.525963
v -0.099531 1.747764 3.561172
v -0.099531 3.999999 3.561172
v -0.099531 -0.919178 4.550827
v -0.099531 -0.873884 3.561172
v -0.099531 -1.702472 4.550826
v -0.099531 -1.702472 3.606725
v -0.099531 -0.919178 3.606725
v -0.099531 1.702470 4.550827
v -0.099531 0.919176 4.550827
v -0.099531 0.919176 3.606725
v -0.099531 0.873882 3.561172
v -0.099531 1.702470 3.606725
v -0.099531 0.828587 4.550827
v -0.099531 0.045293 4.550827
v -0.099531 0.045293 3.606725
v -0.099531 -0.000001 3.561172
v -0.099531 0.828588 3.606725
v -0.099531 -0.045296 4.550827
v -0.099531 -0.828590 4.550827
v -0.099531 -0.828589 3.606725
v -0.099531 -0.045295 3.606725
v -0.099531 -0.919177 2.480410
v -0.099531 -0.873884 2.525963
v -0.099531 -1.702472 2.480410
v -0.099531 -1.702471 1.536309
v -0.099531 -0.919177 1.536309
v -0.099531 -0.919178 3.515619
v -0.099531 -1.702472 3.515618
v -0.099531 -1.702472 2.571516
v -0.099531 -0.919177 2.571517
v -0.099531 1.702470 2.480411
v -0.099531 0.919176 2.480410
v -0.099531 0.873882 2.525963
v -0.099531 0.919176 1.536309
v -0.099531 1.702470 1.536309
v -0.099531 1.702470 3.515619
v -0.099531 0.919176 3.515619
v -0.099531 0.919176 2.571517
v -0.099531 1.702470 2.571517
v -0.099531 0.828588 2.480410
v -0.099531 0.045294 2.480410
v -0.099531 -0.000001 2.525963
v -0.099531 0.045294 1.536309
v -0.099531 0.828588 1.536309
v -0.099531 0.828588 3.515619
v -0.099531 0.045294 3.515619
v -0.099531 0.045294 2.571517
v -0.099531 0.828588 2.571517
v -0.099531 -0.045295 1.536309
v -0.099531 -0.045295 2.480410
v -0.099531 -0.828589 2.480410
v -0.099531 -0.828589 1.536309
v -0.099531 -0.045295 3.515619
v -0.099531 -0.828589 3.515619
v -0.099531 -0.828589 2.571517
v -0.099531 -0.045295 2.571517
v 0.099531 3.999999 4.596380
v -0.099531 3.999999 4.596380
v 0.099531 1.747765 0.000000
v 0.099531 -1.747766 -0.000000
v 0.099531 -1.747767 5.215823
v 0.099531 1.747764 5.215824
v 0.099531 -4.000001 4.596379
v 0.099531 -4.000000 1.490756
v 0.099531 4.000000 1.490756
v -0.099531 4.000000 1.490756
v -0.099531 -4.000000 1.490756
v -0.099531 -1.747767 5.215823
v -0.099531 1.747764 5.215823
v -0.099531 -4.000001 4.596379
v -0.099531 -1.747766 0.000000
v -0.099531 1.757598 0.000000
vt 0.226036 0.321664
vt 0.362940 0.321664
vt 0.362940 0.076849
vt 0.226036 0.076849
vt 0.499844 0.837297
vt 0.499844 0.923151
vt 0.636749 0.923151
vt 0.636749 0.837297
vt 0.773653 0.321664
vt 0.636749 0.321664
vt 0.639810 0.076849
vt 0.773653 0.076849
vt -0.065108 0.923151
vt 0.226036 0.923151
vt 0.226036 0.837297
vt -0.065108 0.837297
vt 0.233132 0.829734
vt 0.355844 0.829734
vt 0.362940 0.837297
vt 1.065108 0.837297
vt 0.773653 0.837297
vt 0.773653 0.923151
vt 1.065108 0.923151
vt 1.065108 0.493541
vt 0.773653 0.493541
vt 0.773653 0.665419
vt 1.065108 0.665419
vt 0.499844 0.321664
vt 0.499844 0.076849
vt 0.636749 0.076849
vt 0.362940 0.923151
vt 0.362940 0.665419
vt 0.355844 0.657856
vt 0.355844 0.501105
vt 0.362940 0.493541
vt 0.226036 0.665419
vt 0.233132 0.672982
vt 0.226036 0.493541
vt 0.233132 0.501105
vt 0.233132 0.657856
vt 0.370036 0.672983
vt 0.370036 0.829734
vt 0.643845 0.829734
vt 0.766557 0.829734
vt 0.506940 0.829734
vt 0.629653 0.829734
vt 0.766557 0.672983
vt 0.643845 0.672983
vt 0.636749 0.665419
vt 0.643845 0.657856
vt 0.766557 0.657856
vt 0.492748 0.829734
vt 0.492748 0.672983
vt 0.499844 0.665419
vt 0.629653 0.672983
vt 0.506940 0.672983
vt 0.355844 0.672983
vt 0.370036 0.657856
vt 0.492748 0.657856
vt 0.499844 0.493541
vt 0.492748 0.485978
vt 0.492749 0.329227
vt 0.370036 0.485978
vt 0.355844 0.329227
vt 0.233132 0.329227
vt 0.370036 0.329227
vt 0.370036 0.501105
vt 0.233132 0.485978
vt 0.355844 0.485978
vt 0.766557 0.501105
vt 0.636749 0.493541
vt 0.629653 0.501105
vt 0.506940 0.501105
vt 0.629653 0.485978
vt 0.629653 0.329227
vt 0.766557 0.485978
vt 0.766557 0.329227
vt 0.506940 0.657856
vt 0.629653 0.657856
vt 0.643845 0.501105
vt 0.643845 0.485978
vt 0.492748 0.501105
vt 0.643845 0.329227
vt 0.506940 0.329227
vt 0.506940 0.485978
vt 0.359879 0.076849
vt -0.065108 0.665419
vt -0.065108 0.493541
vt 0.359878 0.923151
vt 0.639810 0.923151
vt -0.065108 0.321664
vt -0.065108 0.076849
vt 0.625510 0.736069
vt 0.625510 0.612601
vt 0.656888 0.612601
vt 0.656888 0.736069
vt 0.468622 0.637949
vt 0.468622 0.489133
vt 0.500000 0.489133
vt 0.500000 0.637949
vt 0.405867 0.340317
vt 0.405867 0.489133
vt 0.374490 0.489133
vt 0.374490 0.340317
vt 0.688266 0.489133
vt 0.688266 0.365665
vt 0.719643 0.365665
vt 0.719643 0.489133
vt 0.500000 0.761417
vt 0.531378 0.637949
vt 0.531378 0.761417
vt 0.594133 0.489133
vt 0.594133 0.365665
vt 0.625510 0.365665
vt 0.625510 0.489133
vt 0.468622 0.340317
vt 0.500000 0.340317
vt 0.437245 0.340317
vt 0.437245 0.489133
vt 0.562755 0.761417
vt 0.562755 0.637949
vt 0.594133 0.637949
vt 0.594133 0.761417
vt 0.562755 0.489133
vt 0.374490 0.637949
vt 0.343112 0.637949
vt 0.343112 0.489133
vt 0.719643 0.736069
vt 0.719643 0.612601
vt 0.751021 0.612601
vt 0.751021 0.736069
vt 0.437245 0.761417
vt 0.437245 0.637949
vt 0.468622 0.761417
vt 0.531378 0.340317
vt 0.531378 0.489133
vt 0.343112 0.340317
vt 0.343112 0.761417
vt 0.374490 0.761417
vt 0.248979 0.489133
vt 0.248979 0.340317
vt 0.280357 0.340317
vt 0.280357 0.489133
vt 0.594133 0.612601
vt 0.248979 0.761417
vt 0.248979 0.637949
vt 0.280357 0.637949
vt 0.280357 0.761417
vt 0.311734 0.637949
vt 0.311734 0.489133
vt 0.594133 0.340317
vt 0.562755 0.340317
vt 0.405867 0.637949
vt 0.688266 0.612601
vt 0.688266 0.736069
vt 0.311734 0.340317
vt 0.405867 0.761417
vt 0.594133 0.736069
vt 0.311734 0.761417
vt 0.656888 0.489133
vt 0.656888 0.365665
vt 1.065109 0.321664
vt 1.065109 0.076849
vt 0.775193 0.076849
vn -1.000000 0.000000 0.000000
vn 1.000000 0.000000 0.000000
vn 0.000000 0.000000 1.000000
vn 0.000000 1.000000 0.000000
vn 0.000000 -1.000000 -0.000000
vn 0.000000 -0.000001 1.000000
vn 0.000000 0.000001 -1.000000
vn 0.000000 0.000000 -1.000000
usemtl BrickWallSmall
s off
f 89/1/1 93/2/1 94/3/1 179/4/1
f 102/5/1 100/6/1 99/7/1 101/8/1
f 4/9/2 18/10/2 19/11/2 167/12/2
f 83/13/1 176/14/1 84/15/1 178/16/1
f 2/15/2 31/17/2 29/18/2 17/19/2
f 166/20/1 96/21/1 177/22/1 95/23/1
f 1/13/2 171/16/2 2/15/2 169/14/2
f 98/24/1 97/25/1 109/26/1 110/27/1
f 19/11/2 18/10/2 20/28/2 21/29/2
f 106/29/1 104/28/1 103/10/1 105/30/1
f 86/19/1 85/31/1 100/6/1 102/5/1
f 33/32/2 53/33/2 54/34/2 48/35/2
f 8/36/2 32/37/2 31/17/2 2/15/2
f 23/38/2 56/39/2 55/40/2 8/36/2
f 33/32/2 47/41/2 46/42/2 17/19/2
f 14/8/2 36/43/2 34/44/2 11/21/2
f 16/5/2 41/45/2 39/46/2 14/8/2
f 26/26/2 35/47/2 38/48/2 37/49/2
f 37/49/2 64/50/2 62/51/2 26/26/2
f 37/49/2 38/48/2 36/43/2 14/8/2
f 17/19/2 46/42/2 44/52/2 16/5/2
f 16/5/2 44/52/2 45/53/2 42/54/2
f 42/54/2 45/53/2 47/41/2 33/32/2
f 14/8/2 39/46/2 40/55/2 37/49/2
f 42/54/2 43/56/2 41/45/2 16/5/2
f 17/19/2 29/18/2 30/57/2 33/32/2
f 33/32/2 81/58/2 79/59/2 42/54/2
f 68/60/2 75/61/2 76/62/2 20/28/2
f 48/35/2 77/63/2 75/61/2 68/60/2
f 9/2/2 50/64/2 52/65/2 7/1/2
f 20/28/2 76/62/2 78/66/2 9/2/2
f 48/35/2 82/67/2 81/58/2 33/32/2
f 33/32/2 30/57/2 32/37/2 8/36/2
f 7/1/2 52/65/2 51/68/2 23/38/2
f 23/38/2 51/68/2 49/69/2 48/35/2
f 26/26/2 62/51/2 63/70/2 12/25/2
f 59/71/2 72/72/2 74/73/2 68/60/2
f 59/71/2 66/74/2 67/75/2 18/10/2
f 12/25/2 57/76/2 58/77/2 4/9/2
f 11/21/2 34/44/2 35/47/2 26/26/2
f 42/54/2 73/78/2 71/79/2 37/49/2
f 12/25/2 63/70/2 65/80/2 59/71/2
f 59/71/2 60/81/2 57/76/2 12/25/2
f 68/60/2 80/82/2 82/67/2 48/35/2
f 18/10/2 61/83/2 60/81/2 59/71/2
f 152/75/1 103/10/1 104/28/1 151/84/1
f 4/9/2 58/77/2 61/83/2 18/10/2
f 59/71/2 65/80/2 64/50/2 37/49/2
f 37/49/2 40/55/2 43/56/2 42/54/2
f 42/54/2 79/59/2 80/82/2 68/60/2
f 68/60/2 69/85/2 66/74/2 59/71/2
f 20/28/2 70/84/2 69/85/2 68/60/2
f 9/2/2 78/66/2 77/63/2 48/35/2
f 48/35/2 49/69/2 50/64/2 9/2/2
f 18/10/2 67/75/2 70/84/2 20/28/2
f 37/49/2 71/79/2 72/72/2 59/71/2
f 8/36/2 55/40/2 53/33/2 33/32/2
f 68/60/2 74/73/2 73/78/2 42/54/2
f 48/35/2 54/34/2 56/39/2 23/38/2
f 21/29/2 20/28/2 9/2/2 22/86/2
f 92/87/1 91/36/1 107/38/1 108/88/1
f 16/5/2 15/6/2 3/89/2 17/19/2
f 14/8/2 13/90/2 15/6/2 16/5/2
f 168/4/2 7/1/2 172/91/2 6/92/2
f 94/3/1 93/2/1 104/28/1 106/29/1
f 27/27/2 26/26/2 12/25/2 28/24/2
f 7/1/2 23/38/2 24/88/2 172/91/2
f 24/88/2 23/38/2 8/36/2 25/87/2
f 162/58/1 112/32/1 124/54/1 161/59/1
f 127/42/1 86/19/1 102/5/1 126/52/1
f 137/39/1 107/38/1 91/36/1 136/40/1
f 129/53/1 124/54/1 112/32/1 128/41/1
f 114/37/1 91/36/1 84/15/1 113/17/1
f 121/46/1 101/8/1 119/49/1 125/55/1
f 122/45/1 123/56/1 124/54/1 102/5/1
f 146/80/1 141/71/1 119/49/1 145/50/1
f 118/48/1 119/49/1 101/8/1 117/43/1
f 117/43/1 101/8/1 96/21/1 116/44/1
f 126/52/1 102/5/1 124/54/1 129/53/1
f 154/78/1 124/54/1 119/49/1 153/79/1
f 128/41/1 112/32/1 86/19/1 127/42/1
f 122/45/1 102/5/1 101/8/1 121/46/1
f 111/18/1 86/19/1 112/32/1 115/57/1
f 142/83/1 103/10/1 141/71/1 140/81/1
f 159/63/1 131/35/1 150/60/1 158/61/1
f 156/72/1 141/71/1 150/60/1 155/73/1
f 139/76/1 97/25/1 88/9/1 143/77/1
f 133/65/1 89/1/1 107/38/1 132/68/1
f 136/40/1 91/36/1 112/32/1 135/33/1
f 115/57/1 112/32/1 91/36/1 114/37/1
f 113/17/1 84/15/1 86/19/1 111/18/1
f 132/68/1 107/38/1 131/35/1 130/69/1
f 144/51/1 109/26/1 97/25/1 147/70/1
f 82/93/3 80/94/3 164/95/3 163/96/3
f 148/74/1 141/71/1 103/10/1 152/75/1
f 157/62/1 104/28/1 93/2/1 160/66/1
f 116/44/1 96/21/1 109/26/1 120/47/1
f 120/47/1 109/26/1 119/49/1 118/48/1
f 153/79/1 119/49/1 141/71/1 156/72/1
f 140/81/1 141/71/1 97/25/1 139/76/1
f 151/84/1 104/28/1 150/60/1 149/85/1
f 147/70/1 97/25/1 141/71/1 146/80/1
f 157/62/1 158/61/1 150/60/1 104/28/1
f 143/77/1 88/9/1 103/10/1 142/83/1
f 154/78/1 155/73/1 150/60/1 124/54/1
f 145/50/1 119/49/1 109/26/1 144/51/1
f 161/59/1 124/54/1 150/60/1 164/82/1
f 149/85/1 150/60/1 141/71/1 148/74/1
f 160/66/1 93/2/1 131/35/1 159/63/1
f 164/82/1 150/60/1 131/35/1 163/67/1
f 130/69/1 131/35/1 93/2/1 134/64/1
f 134/64/1 93/2/1 89/1/1 133/65/1
f 163/67/1 131/35/1 112/32/1 162/58/1
f 125/55/1 119/49/1 124/54/1 123/56/1
f 135/33/1 112/32/1 131/35/1 138/34/1
f 138/34/1 131/35/1 107/38/1 137/39/1
f 46/97/4 47/98/4 128/99/4 127/100/4
f 72/101/5 71/102/5 153/103/5 156/104/5
f 65/105/6 63/106/6 147/107/6 146/108/6
f 43/109/3 40/100/3 125/110/3 123/111/3
f 53/112/7 55/113/7 136/114/7 135/115/7
f 41/98/4 43/116/4 123/117/4 122/99/4
f 30/118/5 29/119/5 111/102/5 115/101/5
f 80/82/5 79/59/5 161/59/5 164/82/5
f 49/120/8 51/121/8 132/122/8 130/123/8
f 51/121/4 52/124/4 133/112/4 132/122/4
f 76/103/5 75/125/5 158/126/5 157/127/5
f 62/128/8 64/129/8 145/130/8 144/131/8
f 44/132/8 46/133/8 127/97/8 126/134/8
f 69/99/4 70/117/4 151/135/4 149/136/4
f 55/127/4 56/137/4 137/104/4 136/103/4
f 61/138/3 58/126/3 143/125/3 142/139/3
f 73/140/4 74/141/4 155/142/4 154/143/4
f 56/144/3 54/112/3 138/115/3 137/94/3
f 52/145/3 50/146/3 134/147/3 133/148/3
f 60/149/4 61/150/4 142/127/4 140/126/4
f 45/143/5 44/147/5 126/146/5 129/140/5
f 67/151/5 66/112/5 148/124/5 152/152/5
f 31/125/4 32/103/4 114/102/4 113/153/4
f 78/111/3 76/110/3 157/121/3 160/120/3
f 40/152/5 39/124/5 121/136/5 125/135/5
f 38/96/3 35/95/3 120/154/3 118/155/3
f 35/150/5 34/149/5 116/147/5 120/143/5
f 81/150/4 82/156/4 163/137/4 162/127/4
f 71/139/8 73/125/8 154/153/8 153/157/8
f 50/124/5 49/121/5 130/110/5 134/136/5
f 36/119/4 38/118/4 118/116/4 117/98/4
f 63/98/5 62/97/5 144/133/5 147/119/5
f 29/158/7 31/144/7 113/94/7 111/93/7
f 47/148/3 45/147/3 129/149/3 128/159/3
f 77/100/4 78/99/4 160/136/4 159/110/4
f 32/134/6 30/97/6 115/100/6 114/109/6
f 58/119/5 57/133/5 139/153/5 143/102/5
f 79/160/8 81/161/8 162/106/8 161/105/8
f 34/155/7 36/154/7 117/129/7 116/128/7
f 64/143/4 65/142/4 146/156/4 145/150/4
f 54/34/5 53/33/5 135/33/5 138/34/5
f 74/94/3 72/115/3 156/160/3 155/95/3
f 39/159/8 41/149/8 122/126/8 121/138/8
f 57/154/7 60/105/7 140/108/7 139/129/7
f 66/157/8 69/153/8 149/133/8 148/132/8
f 75/95/8 77/160/8 159/105/8 158/154/8
f 70/115/3 67/114/3 152/161/3 151/160/3
f 88/9/1 97/25/1 98/24/1 174/162/1
f 17/19/2 3/89/2 169/14/2 2/15/2
f 11/21/2 26/26/2 27/27/2 165/20/2
f 101/8/1 99/7/1 177/22/1 96/21/1
f 175/91/1 89/1/1 179/4/1 90/92/1
f 84/15/1 91/36/1 92/87/1 178/16/1
f 10/23/2 170/22/2 11/21/2 165/20/2
f 110/27/1 109/26/1 96/21/1 166/20/1
f 22/86/2 9/2/2 7/1/2 168/4/2
f 14/8/2 11/21/2 170/22/2 13/90/2
f 171/16/2 25/87/2 8/36/2 2/15/2
f 28/24/2 12/25/2 4/9/2 173/162/2
f 173/162/2 4/9/2 167/12/2 5/163/2
f 108/88/1 107/38/1 89/1/1 175/91/1
f 86/19/1 84/15/1 176/14/1 85/31/1
f 105/30/1 103/10/1 88/9/1 180/164/1
f 180/164/1 88/9/1 174/162/1 87/163/1
