# Blender v2.70 (sub 0) OBJ File: 'factory.blend'
# www.blender.org
o BrickWall
v 0.061250 0.000000 4.000000
v 0.061250 0.000000 -4.000000
v 0.061250 9.000000 -2.146233
v 0.061250 9.000000 2.146233
v 0.061250 9.000000 4.000000
v 0.061250 9.000000 -4.000000
v 0.061250 0.000000 -2.146233
v 0.061250 0.000000 2.146233
v 0.061250 2.864833 4.000000
v 0.061250 7.576325 4.000000
v 0.061250 7.576325 -4.000000
v 0.061250 2.864833 -4.000000
v 0.061250 7.576325 -2.146233
v 0.061250 2.864833 -2.146233
v 0.061250 7.576325 2.146233
v 0.061250 2.864833 2.146233
v 0.061250 0.000000 1.073117
v 0.061250 0.000000 0.000000
v 0.061250 0.000000 -1.073117
v 0.061250 9.000000 -1.073117
v 0.061250 9.000000 0.000000
v 0.061250 9.000000 1.073117
v 0.061250 2.864833 -1.073117
v 0.061250 2.864833 0.000000
v 0.061250 2.864833 1.073117
v 0.061250 7.576325 -1.073117
v 0.061250 7.576325 0.000000
v 0.061250 7.576325 1.073117
v 0.061250 6.005828 4.000000
v 0.061250 4.435330 4.000000
v 0.061250 4.435330 -4.000000
v 0.061250 6.005828 -4.000000
v 0.061250 4.435330 -2.146233
v 0.061250 6.005828 -2.146233
v 0.061250 4.435330 2.146233
v 0.061250 6.005828 2.146233
v 0.061250 6.005828 -1.073117
v 0.061250 4.435330 -1.073117
v 0.061250 6.005828 0.000000
v 0.061250 4.435330 0.000000
v 0.061250 6.005828 1.073117
v 0.061250 4.435330 1.073117
v 0.061250 6.074936 1.128737
v 0.061250 7.507217 1.128737
v 0.061250 7.507217 2.090612
v 0.061250 6.074936 2.090612
v 0.061250 6.074936 -2.090612
v 0.061250 7.507217 -2.090612
v 0.061250 7.507217 -1.128737
v 0.061250 6.074936 -1.128737
v 0.061250 6.074936 -1.017496
v 0.061250 7.507217 -1.017496
v 0.061250 7.507217 -0.055621
v 0.061250 6.074936 -0.055621
v 0.061250 6.074936 0.055621
v 0.061250 7.507217 0.055621
v 0.061250 7.507217 1.017496
v 0.061250 6.074936 1.017496
v 0.061250 2.933941 1.128737
v 0.061250 4.366222 1.128737
v 0.061250 4.366222 2.090612
v 0.061250 2.933941 2.090612
v 0.061250 4.504438 1.128737
v 0.061250 5.936720 1.128737
v 0.061250 5.936720 2.090612
v 0.061250 4.504438 2.090612
v 0.061250 2.933941 -2.090612
v 0.061250 4.366222 -2.090612
v 0.061250 4.366222 -1.128737
v 0.061250 2.933941 -1.128737
v 0.061250 4.504438 -2.090612
v 0.061250 5.936720 -2.090612
v 0.061250 5.936720 -1.128737
v 0.061250 4.504438 -1.128737
v 0.061250 2.933941 -1.017496
v 0.061250 4.366222 -1.017496
v 0.061250 4.366222 -0.055621
v 0.061250 2.933941 -0.055621
v 0.061250 4.504438 -1.017496
v 0.061250 5.936720 -1.017496
v 0.061250 5.936720 -0.055621
v 0.061250 4.504438 -0.055621
v 0.061250 2.933941 0.055621
v 0.061250 4.366222 0.055621
v 0.061250 4.366222 1.017496
v 0.061250 2.933941 1.017496
v 0.061250 4.504438 0.055621
v 0.061250 5.936720 0.055621
v 0.061250 5.936720 1.017496
v 0.061250 4.504438 1.017496
v -0.061250 0.000000 4.000000
v -0.061250 0.000000 -4.000000
v -0.061250 9.000000 -2.146233
v -0.061250 9.000000 2.146233
v -0.061250 9.000000 4.000000
v -0.061250 9.000000 -4.000000
v -0.061250 0.000000 -2.146233
v -0.061250 0.000000 2.146233
v -0.061250 2.864833 4.000000
v -0.061250 7.576325 4.000000
v -0.061250 7.576325 -4.000000
v -0.061250 2.864833 -4.000000
v -0.061250 7.576325 -2.146233
v -0.061250 2.864833 -2.146233
v -0.061250 7.576325 2.146233
v -0.061250 2.864833 2.146233
v -0.061250 0.000000 1.073117
v -0.061250 0.000000 0.000000
v -0.061250 0.000000 -1.073117
v -0.061250 9.000000 -1.073117
v -0.061250 9.000000 0.000000
v -0.061250 9.000000 1.073117
v -0.061250 2.864833 -1.073117
v -0.061250 2.864833 0.000000
v -0.061250 2.864833 1.073117
v -0.061250 7.576325 -1.073117
v -0.061250 7.576325 0.000000
v -0.061250 7.576325 1.073117
v -0.061250 6.005828 4.000000
v -0.061250 4.435330 4.000000
v -0.061250 4.435330 -4.000000
v -0.061250 6.005828 -4.000000
v -0.061250 4.435330 -2.146233
v -0.061250 6.005828 -2.146233
v -0.061250 4.435330 2.146233
v -0.061250 6.005828 2.146233
v -0.061250 6.005828 -1.073117
v -0.061250 4.435330 -1.073117
v -0.061250 6.005828 0.000000
v -0.061250 4.435330 0.000000
v -0.061250 6.005828 1.073117
v -0.061250 4.435330 1.073117
v -0.061250 6.074936 1.128737
v -0.061250 7.507217 1.128737
v -0.061250 7.507217 2.090612
v -0.061250 6.074936 2.090612
v -0.061250 6.074936 -2.090612
v -0.061250 7.507217 -2.090612
v -0.061250 7.507217 -1.128737
v -0.061250 6.074936 -1.128737
v -0.061250 6.074936 -1.017496
v -0.061250 7.507217 -1.017496
v -0.061250 7.507217 -0.055621
v -0.061250 6.074936 -0.055621
v -0.061250 6.074936 0.055621
v -0.061250 7.507217 0.055621
v -0.061250 7.507217 1.017496
v -0.061250 6.074936 1.017496
v -0.061250 2.933941 1.128737
v -0.061250 4.366222 1.128737
v -0.061250 4.366222 2.090612
v -0.061250 2.933941 2.090612
v -0.061250 4.504438 1.128737
v -0.061250 5.936720 1.128737
v -0.061250 5.936720 2.090612
v -0.061250 4.504438 2.090612
v -0.061250 2.933941 -2.090612
v -0.061250 4.366222 -2.090612
v -0.061250 4.366222 -1.128737
v -0.061250 2.933941 -1.128737
v -0.061250 4.504438 -2.090612
v -0.061250 5.936720 -2.090612
v -0.061250 5.936720 -1.128737
v -0.061250 4.504438 -1.128737
v -0.061250 2.933941 -1.017496
v -0.061250 4.366222 -1.017496
v -0.061250 4.366222 -0.055621
v -0.061250 2.933941 -0.055621
v -0.061250 4.504438 -1.017496
v -0.061250 5.936720 -1.017496
v -0.061250 5.936720 -0.055621
v -0.061250 4.504438 -0.055621
v -0.061250 2.933941 0.055621
v -0.061250 4.366222 0.055621
v -0.061250 4.366222 1.017496
v -0.061250 2.933941 1.017496
v -0.061250 4.504438 0.055621
v -0.061250 5.936720 0.055621
v -0.061250 5.936720 1.017496
v -0.061250 4.504438 1.017496
vt 0.000000 0.841814
vt 0.231721 0.841814
vt 0.231721 1.000000
vt 0.365860 1.000000
vt 0.768279 0.318315
vt 0.768279 0.000000
vt 1.000000 0.000000
vt 0.231721 0.000000
vt 0.231721 0.318315
vt 0.000000 0.318315
vt 0.231721 0.667314
vt 0.365860 0.318315
vt 1.000000 1.000000
vt 0.768279 1.000000
vt 0.768279 0.841814
vt 0.768279 0.492814
vt 1.000000 0.318315
vt 0.634139 1.000000
vt 0.634139 0.841814
vt 0.500000 1.000000
vt 0.500000 0.841814
vt 0.365860 0.841814
vt 0.634139 0.318315
vt 0.634139 0.000000
vt 0.500000 0.318315
vt 0.500000 0.000000
vt 0.365860 0.000000
vt 0.231721 0.492814
vt 0.000000 0.492814
vt 0.000000 0.667314
vt 0.768279 0.667314
vt 1.000000 0.667314
vt 1.000000 0.492814
vt 0.358908 0.834135
vt 0.358908 0.674993
vt 0.238673 0.834135
vt 0.238673 0.674993
vt 0.365860 0.667314
vt 0.761327 0.834135
vt 0.761327 0.674993
vt 0.641092 0.834135
vt 0.634139 0.667314
vt 0.641092 0.674993
vt 0.627187 0.834135
vt 0.627187 0.674993
vt 0.506953 0.834135
vt 0.500000 0.667314
vt 0.506953 0.674993
vt 0.493047 0.834135
vt 0.493047 0.674993
vt 0.372813 0.834135
vt 0.372813 0.674993
vt 0.365860 0.492814
vt 0.358908 0.485136
vt 0.358908 0.325993
vt 0.238673 0.485136
vt 0.238673 0.325993
vt 0.358908 0.659635
vt 0.358908 0.500493
vt 0.238673 0.659635
vt 0.238673 0.500493
vt 0.761327 0.485136
vt 0.761327 0.325993
vt 0.634139 0.492814
vt 0.641092 0.485136
vt 0.641092 0.325993
vt 0.761327 0.659635
vt 0.761327 0.500493
vt 0.641092 0.659635
vt 0.641092 0.500493
vt 0.627187 0.485136
vt 0.627187 0.325993
vt 0.500000 0.492814
vt 0.506953 0.485136
vt 0.506953 0.325993
vt 0.627187 0.659635
vt 0.627187 0.500493
vt 0.506953 0.659635
vt 0.506953 0.500493
vt 0.493047 0.485136
vt 0.493047 0.325993
vt 0.372813 0.485136
vt 0.372813 0.325993
vt 0.493047 0.659635
vt 0.493047 0.500493
vt 0.372813 0.659635
vt 0.372813 0.500493
vt 0.000000 1.000000
vt 0.000000 0.000000
vt 1.000000 0.841814
vn 1.000000 0.000000 0.000000
vn -1.000000 0.000000 0.000000
vn 0.000000 0.000000 1.000000
vn 0.000000 0.000000 -1.000000
vn 0.000000 1.000000 0.000000
vn 0.000000 -1.000000 0.000000
s off
f 10/1/1 15/2/1 4/3/1
f 22/4/1 4/3/1 15/2/1
f 14/5/1 7/6/1 2/7/1
f 8/8/1 16/9/1 9/10/1
f 36/11/1 15/2/1 10/1/1
f 25/12/1 16/9/1 8/8/1
f 6/13/1 3/14/1 13/15/1
f 33/16/1 14/5/1 12/17/1
f 3/14/1 20/18/1 26/19/1
f 20/18/1 21/20/1 27/21/1
f 21/20/1 22/4/1 28/22/1
f 14/5/1 23/23/1 19/24/1
f 23/23/1 24/25/1 18/26/1
f 24/25/1 25/12/1 17/27/1
f 16/9/1 35/28/1 30/29/1
f 35/28/1 36/11/1 29/30/1
f 13/15/1 34/31/1 32/32/1
f 34/31/1 33/16/1 31/33/1
f 28/22/1 44/34/1 43/35/1
f 15/2/1 45/36/1 44/34/1
f 36/11/1 46/37/1 45/36/1
f 41/38/1 43/35/1 46/37/1
f 13/15/1 48/39/1 47/40/1
f 26/19/1 49/41/1 48/39/1
f 37/42/1 50/43/1 49/41/1
f 34/31/1 47/40/1 50/43/1
f 26/19/1 52/44/1 51/45/1
f 27/21/1 53/46/1 52/44/1
f 39/47/1 54/48/1 53/46/1
f 37/42/1 51/45/1 54/48/1
f 27/21/1 56/49/1 55/50/1
f 28/22/1 57/51/1 56/49/1
f 41/38/1 58/52/1 57/51/1
f 39/47/1 55/50/1 58/52/1
f 42/53/1 60/54/1 59/55/1
f 35/28/1 61/56/1 60/54/1
f 16/9/1 62/57/1 61/56/1
f 25/12/1 59/55/1 62/57/1
f 41/38/1 64/58/1 63/59/1
f 36/11/1 65/60/1 64/58/1
f 35/28/1 66/61/1 65/60/1
f 42/53/1 63/59/1 66/61/1
f 33/16/1 68/62/1 67/63/1
f 38/64/1 69/65/1 68/62/1
f 23/23/1 70/66/1 69/65/1
f 14/5/1 67/63/1 70/66/1
f 34/31/1 72/67/1 71/68/1
f 37/42/1 73/69/1 72/67/1
f 38/64/1 74/70/1 73/69/1
f 33/16/1 71/68/1 74/70/1
f 38/64/1 76/71/1 75/72/1
f 40/73/1 77/74/1 76/71/1
f 24/25/1 78/75/1 77/74/1
f 23/23/1 75/72/1 78/75/1
f 37/42/1 80/76/1 79/77/1
f 39/47/1 81/78/1 80/76/1
f 40/73/1 82/79/1 81/78/1
f 38/64/1 79/77/1 82/79/1
f 40/73/1 84/80/1 83/81/1
f 42/53/1 85/82/1 84/80/1
f 25/12/1 86/83/1 85/82/1
f 24/25/1 83/81/1 86/83/1
f 39/47/1 88/84/1 87/85/1
f 41/38/1 89/86/1 88/84/1
f 42/53/1 90/87/1 89/86/1
f 40/73/1 87/85/1 90/87/1
f 95/88/2 94/3/2 105/2/2
f 94/3/2 112/4/2 118/22/2
f 97/6/2 104/5/2 102/17/2
f 106/9/2 98/8/2 91/89/2
f 105/2/2 126/11/2 119/30/2
f 106/9/2 115/12/2 107/27/2
f 101/90/2 103/15/2 93/14/2
f 104/5/2 123/16/2 121/33/2
f 110/18/2 93/14/2 103/15/2
f 111/20/2 110/18/2 116/19/2
f 112/4/2 111/20/2 117/21/2
f 113/23/2 104/5/2 97/6/2
f 114/25/2 113/23/2 109/24/2
f 115/12/2 114/25/2 108/26/2
f 125/28/2 106/9/2 99/10/2
f 126/11/2 125/28/2 120/29/2
f 124/31/2 103/15/2 101/90/2
f 123/16/2 124/31/2 122/32/2
f 134/34/2 118/22/2 131/38/2
f 135/36/2 105/2/2 118/22/2
f 136/37/2 126/11/2 105/2/2
f 133/35/2 131/38/2 126/11/2
f 138/39/2 103/15/2 124/31/2
f 139/41/2 116/19/2 103/15/2
f 140/43/2 127/42/2 116/19/2
f 137/40/2 124/31/2 127/42/2
f 142/44/2 116/19/2 127/42/2
f 143/46/2 117/21/2 116/19/2
f 143/46/2 144/48/2 129/47/2
f 141/45/2 127/42/2 129/47/2
f 146/49/2 117/21/2 129/47/2
f 147/51/2 118/22/2 117/21/2
f 148/52/2 131/38/2 118/22/2
f 145/50/2 129/47/2 131/38/2
f 150/54/2 132/53/2 115/12/2
f 151/56/2 125/28/2 132/53/2
f 152/57/2 106/9/2 125/28/2
f 149/55/2 115/12/2 106/9/2
f 154/58/2 131/38/2 132/53/2
f 155/60/2 126/11/2 131/38/2
f 156/61/2 125/28/2 126/11/2
f 153/59/2 132/53/2 125/28/2
f 158/62/2 123/16/2 104/5/2
f 159/65/2 128/64/2 123/16/2
f 160/66/2 113/23/2 128/64/2
f 157/63/2 104/5/2 113/23/2
f 162/67/2 124/31/2 123/16/2
f 163/69/2 127/42/2 124/31/2
f 164/70/2 128/64/2 127/42/2
f 161/68/2 123/16/2 128/64/2
f 166/71/2 128/64/2 113/23/2
f 167/74/2 130/73/2 128/64/2
f 168/75/2 114/25/2 130/73/2
f 165/72/2 113/23/2 114/25/2
f 170/76/2 127/42/2 128/64/2
f 171/78/2 129/47/2 127/42/2
f 171/78/2 172/79/2 130/73/2
f 169/77/2 128/64/2 130/73/2
f 173/81/2 174/80/2 130/73/2
f 175/82/2 132/53/2 130/73/2
f 176/83/2 115/12/2 132/53/2
f 173/81/2 114/25/2 115/12/2
f 178/84/2 129/47/2 130/73/2
f 179/86/2 131/38/2 129/47/2
f 180/87/2 132/53/2 131/38/2
f 177/85/2 130/73/2 132/53/2
f 5/88/3 95/88/3 100/1/3
f 2/7/4 92/7/4 102/17/4
f 9/10/3 99/10/3 91/89/3
f 30/29/3 120/29/3 99/10/3
f 11/90/4 101/90/4 96/13/4
f 32/32/4 122/32/4 101/90/4
f 10/1/3 100/1/3 119/30/3
f 29/30/3 119/30/3 120/29/3
f 12/17/4 102/17/4 121/33/4
f 31/33/4 121/33/4 122/32/4
f 44/34/3 134/34/3 133/35/3
f 43/35/5 133/35/5 136/37/5
f 45/36/6 135/36/6 134/34/6
f 46/37/4 136/37/4 135/36/4
f 48/39/3 138/39/3 137/40/3
f 47/40/5 137/40/5 140/43/5
f 49/41/6 139/41/6 138/39/6
f 50/43/4 140/43/4 139/41/4
f 52/44/3 142/44/3 141/45/3
f 51/45/5 141/45/5 144/48/5
f 53/46/6 143/46/6 142/44/6
f 54/48/4 144/48/4 143/46/4
f 56/49/3 146/49/3 145/50/3
f 55/50/5 145/50/5 148/52/5
f 57/51/6 147/51/6 146/49/6
f 58/52/4 148/52/4 147/51/4
f 60/54/3 150/54/3 149/55/3
f 59/55/5 149/55/5 152/57/5
f 61/56/6 151/56/6 150/54/6
f 62/57/4 152/57/4 151/56/4
f 64/58/3 154/58/3 153/59/3
f 63/59/5 153/59/5 156/61/5
f 65/60/6 155/60/6 154/58/6
f 66/61/4 156/61/4 155/60/4
f 68/62/3 158/62/3 157/63/3
f 67/63/5 157/63/5 160/66/5
f 69/65/6 159/65/6 158/62/6
f 70/66/4 160/66/4 159/65/4
f 72/67/3 162/67/3 161/68/3
f 71/68/5 161/68/5 164/70/5
f 73/69/6 163/69/6 162/67/6
f 74/70/4 164/70/4 163/69/4
f 76/71/3 166/71/3 165/72/3
f 75/72/5 165/72/5 168/75/5
f 77/74/6 167/74/6 166/71/6
f 78/75/4 168/75/4 167/74/4
f 80/76/3 170/76/3 169/77/3
f 79/77/5 169/77/5 172/79/5
f 81/78/6 171/78/6 170/76/6
f 82/79/4 172/79/4 171/78/4
f 84/80/3 174/80/3 173/81/3
f 83/81/5 173/81/5 176/83/5
f 85/82/6 175/82/6 174/80/6
f 86/83/4 176/83/4 175/82/4
f 88/84/3 178/84/3 177/85/3
f 87/85/5 177/85/5 180/87/5
f 89/86/6 179/86/6 178/84/6
f 90/87/4 180/87/4 179/86/4
f 5/88/1 10/1/1 4/3/1
f 28/22/1 22/4/1 15/2/1
f 12/17/1 14/5/1 2/7/1
f 1/89/1 8/8/1 9/10/1
f 29/30/1 36/11/1 10/1/1
f 17/27/1 25/12/1 8/8/1
f 11/90/1 6/13/1 13/15/1
f 31/33/1 33/16/1 12/17/1
f 13/15/1 3/14/1 26/19/1
f 26/19/1 20/18/1 27/21/1
f 27/21/1 21/20/1 28/22/1
f 7/6/1 14/5/1 19/24/1
f 19/24/1 23/23/1 18/26/1
f 18/26/1 24/25/1 17/27/1
f 9/10/1 16/9/1 30/29/1
f 30/29/1 35/28/1 29/30/1
f 11/90/1 13/15/1 32/32/1
f 32/32/1 34/31/1 31/33/1
f 41/38/1 28/22/1 43/35/1
f 28/22/1 15/2/1 44/34/1
f 15/2/1 36/11/1 45/36/1
f 36/11/1 41/38/1 46/37/1
f 34/31/1 13/15/1 47/40/1
f 13/15/1 26/19/1 48/39/1
f 26/19/1 37/42/1 49/41/1
f 37/42/1 34/31/1 50/43/1
f 37/42/1 26/19/1 51/45/1
f 26/19/1 27/21/1 52/44/1
f 27/21/1 39/47/1 53/46/1
f 39/47/1 37/42/1 54/48/1
f 39/47/1 27/21/1 55/50/1
f 27/21/1 28/22/1 56/49/1
f 28/22/1 41/38/1 57/51/1
f 41/38/1 39/47/1 58/52/1
f 25/12/1 42/53/1 59/55/1
f 42/53/1 35/28/1 60/54/1
f 35/28/1 16/9/1 61/56/1
f 16/9/1 25/12/1 62/57/1
f 42/53/1 41/38/1 63/59/1
f 41/38/1 36/11/1 64/58/1
f 36/11/1 35/28/1 65/60/1
f 35/28/1 42/53/1 66/61/1
f 14/5/1 33/16/1 67/63/1
f 33/16/1 38/64/1 68/62/1
f 38/64/1 23/23/1 69/65/1
f 23/23/1 14/5/1 70/66/1
f 33/16/1 34/31/1 71/68/1
f 34/31/1 37/42/1 72/67/1
f 37/42/1 38/64/1 73/69/1
f 38/64/1 33/16/1 74/70/1
f 23/23/1 38/64/1 75/72/1
f 38/64/1 40/73/1 76/71/1
f 40/73/1 24/25/1 77/74/1
f 24/25/1 23/23/1 78/75/1
f 38/64/1 37/42/1 79/77/1
f 37/42/1 39/47/1 80/76/1
f 39/47/1 40/73/1 81/78/1
f 40/73/1 38/64/1 82/79/1
f 24/25/1 40/73/1 83/81/1
f 40/73/1 42/53/1 84/80/1
f 42/53/1 25/12/1 85/82/1
f 25/12/1 24/25/1 86/83/1
f 40/73/1 39/47/1 87/85/1
f 39/47/1 41/38/1 88/84/1
f 41/38/1 42/53/1 89/86/1
f 42/53/1 40/73/1 90/87/1
f 100/1/2 95/88/2 105/2/2
f 105/2/2 94/3/2 118/22/2
f 92/7/2 97/6/2 102/17/2
f 99/10/2 106/9/2 91/89/2
f 100/1/2 105/2/2 119/30/2
f 98/8/2 106/9/2 107/27/2
f 96/13/2 101/90/2 93/14/2
f 102/17/2 104/5/2 121/33/2
f 116/19/2 110/18/2 103/15/2
f 117/21/2 111/20/2 116/19/2
f 118/22/2 112/4/2 117/21/2
f 109/24/2 113/23/2 97/6/2
f 108/26/2 114/25/2 109/24/2
f 107/27/2 115/12/2 108/26/2
f 120/29/2 125/28/2 99/10/2
f 119/30/2 126/11/2 120/29/2
f 122/32/2 124/31/2 101/90/2
f 121/33/2 123/16/2 122/32/2
f 133/35/2 134/34/2 131/38/2
f 134/34/2 135/36/2 118/22/2
f 135/36/2 136/37/2 105/2/2
f 136/37/2 133/35/2 126/11/2
f 137/40/2 138/39/2 124/31/2
f 138/39/2 139/41/2 103/15/2
f 139/41/2 140/43/2 116/19/2
f 140/43/2 137/40/2 127/42/2
f 141/45/2 142/44/2 127/42/2
f 142/44/2 143/46/2 116/19/2
f 117/21/2 143/46/2 129/47/2
f 144/48/2 141/45/2 129/47/2
f 145/50/2 146/49/2 129/47/2
f 146/49/2 147/51/2 117/21/2
f 147/51/2 148/52/2 118/22/2
f 148/52/2 145/50/2 131/38/2
f 149/55/2 150/54/2 115/12/2
f 150/54/2 151/56/2 132/53/2
f 151/56/2 152/57/2 125/28/2
f 152/57/2 149/55/2 106/9/2
f 153/59/2 154/58/2 132/53/2
f 154/58/2 155/60/2 131/38/2
f 155/60/2 156/61/2 126/11/2
f 156/61/2 153/59/2 125/28/2
f 157/63/2 158/62/2 104/5/2
f 158/62/2 159/65/2 123/16/2
f 159/65/2 160/66/2 128/64/2
f 160/66/2 157/63/2 113/23/2
f 161/68/2 162/67/2 123/16/2
f 162/67/2 163/69/2 124/31/2
f 163/69/2 164/70/2 127/42/2
f 164/70/2 161/68/2 128/64/2
f 165/72/2 166/71/2 113/23/2
f 166/71/2 167/74/2 128/64/2
f 167/74/2 168/75/2 130/73/2
f 168/75/2 165/72/2 114/25/2
f 169/77/2 170/76/2 128/64/2
f 170/76/2 171/78/2 127/42/2
f 129/47/2 171/78/2 130/73/2
f 172/79/2 169/77/2 130/73/2
f 114/25/2 173/81/2 130/73/2
f 174/80/2 175/82/2 130/73/2
f 175/82/2 176/83/2 132/53/2
f 176/83/2 173/81/2 115/12/2
f 177/85/2 178/84/2 130/73/2
f 178/84/2 179/86/2 129/47/2
f 179/86/2 180/87/2 131/38/2
f 180/87/2 177/85/2 132/53/2
f 10/1/3 5/88/3 100/1/3
f 12/17/4 2/7/4 102/17/4
f 1/89/3 9/10/3 91/89/3
f 9/10/3 30/29/3 99/10/3
f 6/13/4 11/90/4 96/13/4
f 11/90/4 32/32/4 101/90/4
f 29/30/3 10/1/3 119/30/3
f 30/29/3 29/30/3 120/29/3
f 31/33/4 12/17/4 121/33/4
f 32/32/4 31/33/4 122/32/4
f 43/35/3 44/34/3 133/35/3
f 46/37/5 43/35/5 136/37/5
f 44/34/6 45/36/6 134/34/6
f 45/36/4 46/37/4 135/36/4
f 47/40/3 48/39/3 137/40/3
f 50/43/5 47/40/5 140/43/5
f 48/39/6 49/41/6 138/39/6
f 49/41/4 50/43/4 139/41/4
f 51/45/3 52/44/3 141/45/3
f 54/48/5 51/45/5 144/48/5
f 52/44/6 53/46/6 142/44/6
f 53/46/4 54/48/4 143/46/4
f 55/50/3 56/49/3 145/50/3
f 58/52/5 55/50/5 148/52/5
f 56/49/6 57/51/6 146/49/6
f 57/51/4 58/52/4 147/51/4
f 59/55/3 60/54/3 149/55/3
f 62/57/5 59/55/5 152/57/5
f 60/54/6 61/56/6 150/54/6
f 61/56/4 62/57/4 151/56/4
f 63/59/3 64/58/3 153/59/3
f 66/61/5 63/59/5 156/61/5
f 64/58/6 65/60/6 154/58/6
f 65/60/4 66/61/4 155/60/4
f 67/63/3 68/62/3 157/63/3
f 70/66/5 67/63/5 160/66/5
f 68/62/6 69/65/6 158/62/6
f 69/65/4 70/66/4 159/65/4
f 71/68/3 72/67/3 161/68/3
f 74/70/5 71/68/5 164/70/5
f 72/67/6 73/69/6 162/67/6
f 73/69/4 74/70/4 163/69/4
f 75/72/3 76/71/3 165/72/3
f 78/75/5 75/72/5 168/75/5
f 76/71/6 77/74/6 166/71/6
f 77/74/4 78/75/4 167/74/4
f 79/77/3 80/76/3 169/77/3
f 82/79/5 79/77/5 172/79/5
f 80/76/6 81/78/6 170/76/6
f 81/78/4 82/79/4 171/78/4
f 83/81/3 84/80/3 173/81/3
f 86/83/5 83/81/5 176/83/5
f 84/80/6 85/82/6 174/80/6
f 85/82/4 86/83/4 175/82/4
f 87/85/3 88/84/3 177/85/3
f 90/87/5 87/85/5 180/87/5
f 88/84/6 89/86/6 178/84/6
f 89/86/4 90/87/4 179/86/4
