# Blender v2.70 (sub 0) OBJ File: 'brickwallsmall.blend'
# www.blender.org
mtllib brickwallsmall.mtl
o BrickWallSmall_brickwallsmall
v 0.099531 -4.000001 5.215822
v 0.099531 -1.747767 4.596379
v 0.099531 -0.893426 5.215823
v 0.099531 1.747765 1.490756
v 0.099531 4.000000 0.000000
v 0.099531 -4.000000 -0.000000
v 0.099531 -1.747766 1.490756
v 0.099531 -1.747766 3.561172
v 0.099531 -0.873884 1.490756
v 0.099531 3.999999 5.215824
v 0.099531 1.747764 4.596380
v 0.099531 1.747764 2.525964
v 0.099531 0.893424 5.215823
v 0.099531 0.873882 4.596380
v 0.099531 -0.000001 5.215823
v 0.099531 -0.000001 4.596380
v 0.099531 -0.873884 4.596380
v 0.099531 0.873883 1.490756
v 0.099531 0.893425 0.000000
v 0.099531 -0.000001 1.490756
v 0.099531 -0.000000 0.000000
v 0.099531 -0.893425 0.000000
v 0.099531 -1.747766 2.525963
v 0.099531 -4.000001 2.525963
v 0.099531 -4.000001 3.561172
v 0.099531 1.747764 3.561172
v 0.099531 3.999999 3.561172
v 0.099531 3.999999 2.525964
v 0.099531 -0.919178 4.550827
v 0.099531 -0.919178 3.606725
v 0.099531 -1.702472 4.550826
v 0.099531 -1.702472 3.606725
v 0.099531 -0.873884 3.561172
v 0.099531 1.702470 4.550827
v 0.099531 1.702470 3.606725
v 0.099531 0.919176 4.550827
v 0.099531 0.873882 3.561172
v 0.099531 0.919176 3.606725
v 0.099531 0.828587 4.550827
v 0.099531 0.828588 3.606725
v 0.099531 0.045293 4.550827
v 0.099531 -0.000001 3.561172
v 0.099531 0.045293 3.606725
v 0.099531 -0.045296 4.550827
v 0.099531 -0.045295 3.606725
v 0.099531 -0.828590 4.550827
v 0.099531 -0.828589 3.606725
v 0.099531 -0.873884 2.525963
v 0.099531 -0.919177 2.480410
v 0.099531 -0.919177 1.536309
v 0.099531 -1.702472 2.480410
v 0.099531 -1.702471 1.536309
v 0.099531 -0.919178 3.515619
v 0.099531 -0.919177 2.571517
v 0.099531 -1.702472 3.515618
v 0.099531 -1.702472 2.571516
v 0.099531 1.702470 2.480411
v 0.099531 1.702470 1.536309
v 0.099531 0.873882 2.525963
v 0.099531 0.919176 2.480410
v 0.099531 0.919176 1.536309
v 0.099531 1.702470 3.515619
v 0.099531 1.702470 2.571517
v 0.099531 0.919176 3.515619
v 0.099531 0.919176 2.571517
v 0.099531 0.828588 2.480410
v 0.099531 0.828588 1.536309
v 0.099531 -0.000001 2.525963
v 0.099531 0.045294 2.480410
v 0.099531 0.045294 1.536309
v 0.099531 0.828588 3.515619
v 0.099531 0.828588 2.571517
v 0.099531 0.045294 3.515619
v 0.099531 0.045294 2.571517
v 0.099531 -0.045295 2.480410
v 0.099531 -0.045295 1.536309
v 0.099531 -0.828589 2.480410
v 0.099531 -0.828589 1.536309
v 0.099531 -0.045295 3.515619
v 0.099531 -0.045295 2.571517
v 0.099531 -0.828589 3.515619
v 0.099531 -0.828589 2.571517
v -0.099531 -4.000001 5.215822
v -0.099531 -1.747767 4.596379
v -0.099531 -0.873884 5.215823
v -0.099531 -0.873884 4.596380
v -0.099531 4.000000 0.000000
v -0.099531 1.747765 1.490756
v -0.099531 -1.747766 1.490756
v -0.099531 -4.000000 -0.000000
v -0.099531 -1.747766 3.561172
v -0.099531 -4.000001 3.561172
v -0.099531 -0.873884 1.490756
v -0.099531 -0.873883 0.000000
v -0.099531 3.999999 5.215824
v -0.099531 1.747764 4.596380
v -0.099531 1.747764 2.525964
v -0.099531 3.999999 2.525964
v -0.099531 0.873882 5.215823
v -0.099531 0.000000 5.215823
v -0.099531 0.873882 4.596380
v -0.099531 0.000000 4.596380
v -0.099531 0.873883 1.490756
v -0.099531 0.000000 1.490756
v -0.099531 0.873883 0.000000
v -0.099531 0.000000 0.000000
v -0.099531 -1.747766 2.525963
v -0.099531 -4.000001 2.525963
v -0.099531 1.747764 3.561172
v -0.099531 3.999999 3.561172
v -0.099531 -0.919178 4.550827
v -0.099531 -0.873884 3.561172
v -0.099531 -1.702472 4.550826
v -0.099531 -1.702472 3.606725
v -0.099531 -0.919178 3.606725
v -0.099531 1.702470 4.550827
v -0.099531 0.919176 4.550827
v -0.099531 0.919176 3.606725
v -0.099531 0.873882 3.561172
v -0.099531 1.702470 3.606725
v -0.099531 0.828587 4.550827
v -0.099531 0.045293 4.550827
v -0.099531 0.045293 3.606725
v -0.099531 -0.000001 3.561172
v -0.099531 0.828588 3.606725
v -0.099531 -0.045296 4.550827
v -0.099531 -0.828590 4.550827
v -0.099531 -0.828589 3.606725
v -0.099531 -0.045295 3.606725
v -0.099531 -0.919177 2.480410
v -0.099531 -0.873884 2.525963
v -0.099531 -1.702472 2.480410
v -0.099531 -1.702471 1.536309
v -0.099531 -0.919177 1.536309
v -0.099531 -0.919178 3.515619
v -0.099531 -1.702472 3.515618
v -0.099531 -1.702472 2.571516
v -0.099531 -0.919177 2.571517
v -0.099531 1.702470 2.480411
v -0.099531 0.919176 2.480410
v -0.099531 0.873882 2.525963
v -0.099531 0.919176 1.536309
v -0.099531 1.702470 1.536309
v -0.099531 1.702470 3.515619
v -0.099531 0.919176 3.515619
v -0.099531 0.919176 2.571517
v -0.099531 1.702470 2.571517
v -0.099531 0.828588 2.480410
v -0.099531 0.045294 2.480410
v -0.099531 -0.000001 2.525963
v -0.099531 0.045294 1.536309
v -0.099531 0.828588 1.536309
v -0.099531 0.828588 3.515619
v -0.099531 0.045294 3.515619
v -0.099531 0.045294 2.571517
v -0.099531 0.828588 2.571517
v -0.099531 -0.045295 1.536309
v -0.099531 -0.045295 2.480410
v -0.099531 -0.828589 2.480410
v -0.099531 -0.828589 1.536309
v -0.099531 -0.045295 3.515619
v -0.099531 -0.828589 3.515619
v -0.099531 -0.828589 2.571517
v -0.099531 -0.045295 2.571517
v 0.099531 3.999999 4.596380
v -0.099531 3.999999 4.596380
v 0.099531 1.747765 0.000000
v 0.099531 -1.747766 -0.000000
v 0.099531 -1.747767 5.215823
v 0.099531 1.747764 5.215824
v 0.099531 -4.000001 4.596379
v 0.099531 -4.000000 1.490756
v 0.099531 4.000000 1.490756
v -0.099531 4.000000 1.490756
v -0.099531 -4.000000 1.490756
v -0.099531 -1.747767 5.215823
v -0.099531 1.747764 5.215823
v -0.099531 -4.000001 4.596379
v -0.099531 -1.747766 0.000000
v -0.099531 1.757598 0.000000
vt 0.226036 0.321664
vt 0.362940 0.321664
vt 0.362940 0.076849
vt 0.226036 0.076849
vt 0.499844 0.837297
vt 0.499844 0.923151
vt 0.636749 0.923151
vt 0.636749 0.837297
vt 0.773653 0.321664
vt 0.636749 0.321664
vt 0.639810 0.076849
vt 0.773653 0.076849
vt -0.065108 0.923151
vt 0.226036 0.923151
vt 0.226036 0.837297
vt -0.065108 0.837297
vt 0.233132 0.829734
vt 0.355844 0.829734
vt 0.362940 0.837297
vt 1.065108 0.837297
vt 0.773653 0.837297
vt 0.773653 0.923151
vt 1.065108 0.923151
vt 1.065108 0.493541
vt 0.773653 0.493541
vt 0.773653 0.665419
vt 1.065108 0.665419
vt 0.499844 0.321664
vt 0.499844 0.076849
vt 0.636749 0.076849
vt 0.362940 0.923151
vt 0.362940 0.665419
vt 0.355844 0.657856
vt 0.355844 0.501105
vt 0.362940 0.493541
vt 0.226036 0.665419
vt 0.233132 0.672982
vt 0.226036 0.493541
vt 0.233132 0.501105
vt 0.233132 0.657856
vt 0.370036 0.672983
vt 0.370036 0.829734
vt 0.643845 0.829734
vt 0.766557 0.829734
vt 0.506940 0.829734
vt 0.629653 0.829734
vt 0.766557 0.672983
vt 0.643845 0.672983
vt 0.636749 0.665419
vt 0.643845 0.657856
vt 0.766557 0.657856
vt 0.492748 0.829734
vt 0.492748 0.672983
vt 0.499844 0.665419
vt 0.629653 0.672983
vt 0.506940 0.672983
vt 0.355844 0.672983
vt 0.370036 0.657856
vt 0.492748 0.657856
vt 0.499844 0.493541
vt 0.492748 0.485978
vt 0.492749 0.329227
vt 0.370036 0.485978
vt 0.355844 0.329227
vt 0.233132 0.329227
vt 0.370036 0.329227
vt 0.370036 0.501105
vt 0.233132 0.485978
vt 0.355844 0.485978
vt 0.766557 0.501105
vt 0.636749 0.493541
vt 0.629653 0.501105
vt 0.506940 0.501105
vt 0.629653 0.485978
vt 0.629653 0.329227
vt 0.766557 0.485978
vt 0.766557 0.329227
vt 0.506940 0.657856
vt 0.629653 0.657856
vt 0.643845 0.501105
vt 0.643845 0.485978
vt 0.492748 0.501105
vt 0.643845 0.329227
vt 0.506940 0.329227
vt 0.506940 0.485978
vt 0.359879 0.076849
vt -0.065108 0.665419
vt -0.065108 0.493541
vt 0.359878 0.923151
vt 0.639810 0.923151
vt -0.065108 0.321664
vt -0.065108 0.076849
vt 0.627008 0.745865
vt 0.627008 0.620923
vt 0.658761 0.620923
vt 0.658761 0.745865
vt 0.436496 0.646574
vt 0.436496 0.495982
vt 0.468248 0.495982
vt 0.468248 0.646574
vt 0.468248 0.345390
vt 0.436496 0.345390
vt 0.690513 0.745865
vt 0.690513 0.620923
vt 0.722265 0.620923
vt 0.722265 0.745865
vt 0.309487 0.771515
vt 0.309487 0.646574
vt 0.341239 0.646574
vt 0.341239 0.771515
vt 0.627008 0.495982
vt 0.627008 0.371040
vt 0.658761 0.371040
vt 0.658761 0.495982
vt 0.500000 0.646574
vt 0.500000 0.495982
vt 0.531752 0.495982
vt 0.531752 0.646574
vt 0.500000 0.345390
vt 0.404744 0.495982
vt 0.404744 0.345390
vt 0.563504 0.771515
vt 0.563504 0.646574
vt 0.595256 0.646574
vt 0.595256 0.771515
vt 0.595256 0.646573
vt 0.595256 0.495982
vt 0.627008 0.646573
vt 0.404744 0.646574
vt 0.754017 0.620923
vt 0.754017 0.745865
vt 0.372992 0.771516
vt 0.372992 0.646574
vt 0.404744 0.771516
vt 0.341239 0.495982
vt 0.341239 0.345390
vt 0.372992 0.345390
vt 0.372992 0.495982
vt 0.722265 0.495982
vt 0.754017 0.495982
vt 0.277735 0.495982
vt 0.277735 0.345390
vt 0.309487 0.345390
vt 0.309487 0.495982
vt 0.277735 0.771515
vt 0.277735 0.646574
vt 0.563504 0.345390
vt 0.563504 0.495982
vt 0.531752 0.345390
vt 0.627008 0.345390
vt 0.595256 0.345390
vt 0.436496 0.771515
vt 0.468248 0.771515
vt 0.722265 0.371040
vt 0.754017 0.371040
vt 0.245983 0.495982
vt 0.245983 0.345390
vt 0.531752 0.771515
vt 0.500000 0.771515
vt 0.245983 0.771516
vt 0.245983 0.646574
vt 0.277735 0.771516
vt 0.690513 0.495982
vt 0.404744 0.771515
vt 0.690513 0.371040
vt 0.372992 0.771515
vt 0.627008 0.771515
vt 1.065109 0.321664
vt 1.065109 0.076849
vt 0.775193 0.076849
vn -1.000000 0.000000 0.000000
vn 1.000000 0.000000 0.000000
vn 0.000000 0.000000 1.000000
vn 0.000000 1.000000 0.000000
vn 0.000000 -1.000000 -0.000000
vn 0.000000 -0.000001 1.000000
vn 0.000000 0.000001 -1.000000
vn 0.000000 0.000000 -1.000000
usemtl BrickWallSmall
s off
f 89/1/1 93/2/1 94/3/1 179/4/1
f 102/5/1 100/6/1 99/7/1 101/8/1
f 4/9/2 18/10/2 19/11/2 167/12/2
f 83/13/1 176/14/1 84/15/1 178/16/1
f 2/15/2 31/17/2 29/18/2 17/19/2
f 166/20/1 96/21/1 177/22/1 95/23/1
f 1/13/2 171/16/2 2/15/2 169/14/2
f 98/24/1 97/25/1 109/26/1 110/27/1
f 19/11/2 18/10/2 20/28/2 21/29/2
f 106/29/1 104/28/1 103/10/1 105/30/1
f 86/19/1 85/31/1 100/6/1 102/5/1
f 33/32/2 53/33/2 54/34/2 48/35/2
f 8/36/2 32/37/2 31/17/2 2/15/2
f 23/38/2 56/39/2 55/40/2 8/36/2
f 33/32/2 47/41/2 46/42/2 17/19/2
f 14/8/2 36/43/2 34/44/2 11/21/2
f 16/5/2 41/45/2 39/46/2 14/8/2
f 26/26/2 35/47/2 38/48/2 37/49/2
f 37/49/2 64/50/2 62/51/2 26/26/2
f 37/49/2 38/48/2 36/43/2 14/8/2
f 17/19/2 46/42/2 44/52/2 16/5/2
f 16/5/2 44/52/2 45/53/2 42/54/2
f 42/54/2 45/53/2 47/41/2 33/32/2
f 14/8/2 39/46/2 40/55/2 37/49/2
f 42/54/2 43/56/2 41/45/2 16/5/2
f 17/19/2 29/18/2 30/57/2 33/32/2
f 33/32/2 81/58/2 79/59/2 42/54/2
f 68/60/2 75/61/2 76/62/2 20/28/2
f 48/35/2 77/63/2 75/61/2 68/60/2
f 9/2/2 50/64/2 52/65/2 7/1/2
f 20/28/2 76/62/2 78/66/2 9/2/2
f 48/35/2 82/67/2 81/58/2 33/32/2
f 33/32/2 30/57/2 32/37/2 8/36/2
f 7/1/2 52/65/2 51/68/2 23/38/2
f 23/38/2 51/68/2 49/69/2 48/35/2
f 26/26/2 62/51/2 63/70/2 12/25/2
f 59/71/2 72/72/2 74/73/2 68/60/2
f 59/71/2 66/74/2 67/75/2 18/10/2
f 12/25/2 57/76/2 58/77/2 4/9/2
f 11/21/2 34/44/2 35/47/2 26/26/2
f 42/54/2 73/78/2 71/79/2 37/49/2
f 12/25/2 63/70/2 65/80/2 59/71/2
f 59/71/2 60/81/2 57/76/2 12/25/2
f 68/60/2 80/82/2 82/67/2 48/35/2
f 18/10/2 61/83/2 60/81/2 59/71/2
f 152/75/1 103/10/1 104/28/1 151/84/1
f 4/9/2 58/77/2 61/83/2 18/10/2
f 59/71/2 65/80/2 64/50/2 37/49/2
f 37/49/2 40/55/2 43/56/2 42/54/2
f 42/54/2 79/59/2 80/82/2 68/60/2
f 68/60/2 69/85/2 66/74/2 59/71/2
f 20/28/2 70/84/2 69/85/2 68/60/2
f 9/2/2 78/66/2 77/63/2 48/35/2
f 48/35/2 49/69/2 50/64/2 9/2/2
f 18/10/2 67/75/2 70/84/2 20/28/2
f 37/49/2 71/79/2 72/72/2 59/71/2
f 8/36/2 55/40/2 53/33/2 33/32/2
f 68/60/2 74/73/2 73/78/2 42/54/2
f 48/35/2 54/34/2 56/39/2 23/38/2
f 21/29/2 20/28/2 9/2/2 22/86/2
f 92/87/1 91/36/1 107/38/1 108/88/1
f 16/5/2 15/6/2 3/89/2 17/19/2
f 14/8/2 13/90/2 15/6/2 16/5/2
f 168/4/2 7/1/2 172/91/2 6/92/2
f 94/3/1 93/2/1 104/28/1 106/29/1
f 27/27/2 26/26/2 12/25/2 28/24/2
f 7/1/2 23/38/2 24/88/2 172/91/2
f 24/88/2 23/38/2 8/36/2 25/87/2
f 162/58/1 112/32/1 124/54/1 161/59/1
f 127/42/1 86/19/1 102/5/1 126/52/1
f 137/39/1 107/38/1 91/36/1 136/40/1
f 129/53/1 124/54/1 112/32/1 128/41/1
f 114/37/1 91/36/1 84/15/1 113/17/1
f 121/46/1 101/8/1 119/49/1 125/55/1
f 122/45/1 123/56/1 124/54/1 102/5/1
f 146/80/1 141/71/1 119/49/1 145/50/1
f 118/48/1 119/49/1 101/8/1 117/43/1
f 117/43/1 101/8/1 96/21/1 116/44/1
f 126/52/1 102/5/1 124/54/1 129/53/1
f 154/78/1 124/54/1 119/49/1 153/79/1
f 128/41/1 112/32/1 86/19/1 127/42/1
f 122/45/1 102/5/1 101/8/1 121/46/1
f 111/18/1 86/19/1 112/32/1 115/57/1
f 142/83/1 103/10/1 141/71/1 140/81/1
f 159/63/1 131/35/1 150/60/1 158/61/1
f 156/72/1 141/71/1 150/60/1 155/73/1
f 139/76/1 97/25/1 88/9/1 143/77/1
f 133/65/1 89/1/1 107/38/1 132/68/1
f 136/40/1 91/36/1 112/32/1 135/33/1
f 115/57/1 112/32/1 91/36/1 114/37/1
f 113/17/1 84/15/1 86/19/1 111/18/1
f 132/68/1 107/38/1 131/35/1 130/69/1
f 144/51/1 109/26/1 97/25/1 147/70/1
f 82/93/3 80/94/3 164/95/3 163/96/3
f 148/74/1 141/71/1 103/10/1 152/75/1
f 157/62/1 104/28/1 93/2/1 160/66/1
f 116/44/1 96/21/1 109/26/1 120/47/1
f 120/47/1 109/26/1 119/49/1 118/48/1
f 153/79/1 119/49/1 141/71/1 156/72/1
f 140/81/1 141/71/1 97/25/1 139/76/1
f 151/84/1 104/28/1 150/60/1 149/85/1
f 147/70/1 97/25/1 141/71/1 146/80/1
f 157/62/1 158/61/1 150/60/1 104/28/1
f 143/77/1 88/9/1 103/10/1 142/83/1
f 154/78/1 155/73/1 150/60/1 124/54/1
f 145/50/1 119/49/1 109/26/1 144/51/1
f 161/59/1 124/54/1 150/60/1 164/82/1
f 149/85/1 150/60/1 141/71/1 148/74/1
f 160/66/1 93/2/1 131/35/1 159/63/1
f 164/82/1 150/60/1 131/35/1 163/67/1
f 130/69/1 131/35/1 93/2/1 134/64/1
f 134/64/1 93/2/1 89/1/1 133/65/1
f 163/67/1 131/35/1 112/32/1 162/58/1
f 125/55/1 119/49/1 124/54/1 123/56/1
f 135/33/1 112/32/1 131/35/1 138/34/1
f 138/34/1 131/35/1 107/38/1 137/39/1
f 46/97/4 47/98/4 128/99/4 127/100/4
f 72/101/5 71/99/5 153/98/5 156/102/5
f 65/103/6 63/104/6 147/105/6 146/106/6
f 43/107/3 40/108/3 125/109/3 123/110/3
f 53/111/7 55/112/7 136/113/7 135/114/7
f 41/115/4 43/116/4 123/117/4 122/118/4
f 30/119/5 29/116/5 111/99/5 115/101/5
f 80/102/5 79/98/5 161/120/5 164/121/5
f 49/122/8 51/123/8 132/124/8 130/125/8
f 51/126/4 52/127/4 133/111/4 132/128/4
f 76/98/5 75/97/5 158/129/5 157/120/5
f 62/106/8 64/105/8 145/130/8 144/131/8
f 44/132/8 46/133/8 127/129/8 126/134/8
f 69/100/4 70/99/4 151/116/4 149/115/4
f 55/135/4 56/136/4 137/137/4 136/138/4
f 61/105/3 58/139/3 143/140/3 142/130/3
f 73/141/4 74/142/4 155/143/4 154/144/4
f 56/94/3 54/111/3 138/114/3 137/95/3
f 52/145/3 50/146/3 134/108/3 133/107/3
f 60/108/4 61/144/4 142/135/4 140/109/4
f 45/147/5 44/148/5 126/117/5 129/149/5
f 67/150/5 66/111/5 148/127/5 152/151/5
f 31/109/4 32/135/4 114/138/4 113/133/4
f 78/152/3 76/97/3 157/100/3 160/153/3
f 40/148/5 39/123/5 121/118/5 125/117/5
f 38/139/3 35/154/3 120/155/3 118/140/3
f 35/127/5 34/124/5 116/123/5 120/148/5
f 81/156/4 82/157/4 163/142/4 162/141/4
f 71/96/8 73/95/8 154/104/8 153/103/8
f 50/151/5 49/127/5 130/148/5 134/147/5
f 36/116/4 38/119/4 118/149/4 117/117/4
f 63/120/5 62/129/5 144/133/5 147/138/5
f 29/158/7 31/118/7 113/123/7 111/122/7
f 47/153/3 45/100/3 129/115/3 128/159/3
f 77/146/4 78/141/4 160/144/4 159/108/4
f 32/160/6 30/161/6 115/146/6 114/162/6
f 58/141/5 57/146/5 139/161/5 143/156/5
f 79/95/8 81/114/8 162/163/8 161/104/8
f 34/104/7 36/163/7 117/139/7 116/105/7
f 64/144/4 65/143/4 146/136/4 145/135/4
f 54/121/5 53/120/5 135/138/5 138/137/5
f 74/159/3 72/115/3 156/118/3 155/158/3
f 39/164/8 41/129/8 122/97/8 121/152/8
f 57/114/7 60/113/7 140/165/7 139/163/7
f 66/110/8 69/109/8 149/133/8 148/166/8
f 75/163/8 77/165/8 159/154/8 158/139/8
f 70/125/3 67/126/3 152/128/3 151/167/3
f 88/9/1 97/25/1 98/24/1 174/168/1
f 17/19/2 3/89/2 169/14/2 2/15/2
f 11/21/2 26/26/2 27/27/2 165/20/2
f 101/8/1 99/7/1 177/22/1 96/21/1
f 175/91/1 89/1/1 179/4/1 90/92/1
f 84/15/1 91/36/1 92/87/1 178/16/1
f 10/23/2 170/22/2 11/21/2 165/20/2
f 110/27/1 109/26/1 96/21/1 166/20/1
f 22/86/2 9/2/2 7/1/2 168/4/2
f 14/8/2 11/21/2 170/22/2 13/90/2
f 171/16/2 25/87/2 8/36/2 2/15/2
f 28/24/2 12/25/2 4/9/2 173/168/2
f 173/168/2 4/9/2 167/12/2 5/169/2
f 108/88/1 107/38/1 89/1/1 175/91/1
f 86/19/1 84/15/1 176/14/1 85/31/1
f 105/30/1 103/10/1 88/9/1 180/170/1
f 180/170/1 88/9/1 174/168/1 87/169/1
