# Blender v2.70 (sub 0) OBJ File: 'corner.blend'
# www.blender.org
mtllib corner.mtl
o Corner_corner
v -0.233433 0.233432 9.000337
v -0.233433 0.233433 0.358566
v -0.233433 -0.233433 0.358566
v 0.233433 0.233432 9.000337
v 0.233433 0.233433 0.358566
v 0.233433 -0.233434 9.000337
v 0.233433 -0.233433 0.358566
v -0.233433 -0.233434 9.000337
v -0.338632 -0.338632 0.216039
v 0.338632 -0.338632 0.216039
v -0.338632 -0.338632 -0.009736
v 0.338632 -0.338632 -0.009736
v 0.338632 0.338632 0.216039
v -0.338632 0.338632 0.216039
v 0.338632 0.338632 -0.009736
v -0.338632 0.338632 -0.009736
vt 0.162594 0.062405
vt 0.162594 0.022995
vt 0.108438 0.022995
vt 0.108438 0.062405
vt 0.216750 0.000010
vt 0.162594 0.000010
vt 0.216750 0.022995
vt 0.054281 0.062405
vt 0.054281 0.022995
vt 0.000125 0.022995
vt 0.000125 0.062405
vt 0.270293 0.000544
vt 0.270293 0.054561
vt 0.216276 0.054561
vt 0.216276 0.000544
vt 0.108103 0.999931
vt 0.054086 0.999931
vt 0.054086 0.000069
vt 0.108103 0.000069
vt 0.000069 0.999931
vt 0.000069 0.000069
vt 0.162120 0.999931
vt 0.162120 0.000069
vt 0.108438 0.000010
vt 0.054281 0.000010
vt 0.000125 0.000010
vt 0.216137 0.999931
vt 0.216138 0.000069
vt 0.216750 0.062405
vn 1.000000 0.000000 0.000000
vn 0.000000 0.804573 0.593854
vn -1.000000 0.000000 0.000000
vn 0.000000 0.000000 1.000000
vn 0.000000 -1.000000 -0.000000
vn 0.000000 -0.804573 0.593854
vn -0.804573 -0.000000 0.593854
vn 0.804573 -0.000000 0.593854
vn 0.000000 1.000000 0.000000
usemtl Brickwall
s off
f 15/1/1 13/2/1 10/3/1 12/4/1
f 2/5/2 5/6/2 13/2/2 14/7/2
f 11/8/3 9/9/3 14/10/3 16/11/3
f 6/12/4 4/13/4 1/14/4 8/15/4
f 6/16/5 8/17/5 3/18/5 7/19/5
f 8/17/3 1/20/3 2/21/3 3/18/3
f 4/22/1 6/16/1 7/19/1 5/23/1
f 7/24/6 3/25/6 9/9/6 10/3/6
f 10/3/5 9/9/5 11/8/5 12/4/5
f 9/9/7 3/25/7 2/26/7 14/10/7
f 5/6/8 7/24/8 10/3/8 13/2/8
f 1/27/9 4/22/9 5/23/9 2/28/9
f 14/7/9 13/2/9 15/1/9 16/29/9
