# Blender v2.70 (sub 0) OBJ File: 'crate.blend'
# www.blender.org
mtllib crate.mtl
o Crate_crate
v 1.000000 -1.000000 -1.000000
v 0.999999 0.759497 0.759500
v 1.000000 0.759499 -0.759497
v 1.000000 -0.759499 0.759498
v 1.000000 -0.759497 -0.759498
v 1.000000 0.500001 -0.759497
v 1.000000 0.759498 -0.499999
v 1.000000 -0.759498 0.500000
v 1.000000 -0.500001 0.759498
v 0.891046 0.759497 0.759499
v 0.891047 -0.759497 -0.759498
v 0.891047 0.500001 -0.759497
v 0.891047 0.759499 -0.499999
v 0.891046 -0.759498 0.500000
v 0.891046 -0.500001 0.759498
v 0.999998 1.000002 -1.000000
v 1.000001 -1.000002 0.999997
v -0.999998 -0.759499 0.759499
v -0.999999 -0.759500 -0.759497
v -1.000001 0.759497 0.759498
v -1.000002 0.759496 -0.759498
v -1.000000 -0.500002 -0.759497
v -0.999999 -0.759500 -0.499999
v -1.000001 0.759497 0.500000
v -1.000000 0.499999 0.759498
v -0.891045 -0.759499 0.759499
v -0.891048 0.759496 -0.759498
v -0.891046 -0.500002 -0.759497
v -0.891046 -0.759500 -0.499999
v -0.891048 0.759497 0.500000
v -0.891047 0.499999 0.759498
v -0.999997 -1.000004 -1.000000
v -1.000002 1.000000 0.999997
v -0.759498 0.999998 0.759499
v -0.759500 1.000000 -0.759497
v 0.759497 1.000001 0.759498
v 0.759496 1.000001 -0.759498
v -0.500002 1.000000 -0.759497
v -0.759500 0.999999 -0.499998
v 0.759497 1.000001 0.500000
v 0.500000 1.000000 0.759498
v -0.759498 0.891045 0.759499
v 0.759496 0.891048 -0.759498
v -0.500002 0.891047 -0.759497
v -0.759499 0.891046 -0.499999
v 0.759498 0.891047 0.500000
v 0.500000 0.891047 0.759498
v -1.000003 0.999997 -1.000000
v 0.759500 -0.999997 0.759499
v 0.759501 -0.999999 -0.759497
v -0.759496 -1.000002 0.759498
v -0.759495 -1.000002 -0.759498
v 0.500003 -0.999999 -0.759497
v 0.759501 -0.999998 -0.499998
v -0.759496 -1.000002 0.500000
v -0.499998 -1.000001 0.759498
v 0.759499 -0.891044 0.759499
v -0.759495 -0.891049 -0.759498
v 0.500003 -0.891046 -0.759497
v 0.759501 -0.891045 -0.499999
v -0.759496 -0.891048 0.500000
v -0.499998 -0.891048 0.759498
v -1.000000 -1.000003 0.999997
v 0.759500 0.759500 0.999997
v 0.759501 -0.759496 0.999999
v -0.759496 0.759498 1.000001
v -0.759495 -0.759497 1.000003
v 1.000001 1.000002 0.999996
v 0.500003 -0.759496 1.000000
v 0.759501 -0.499998 0.999999
v -0.759496 0.500000 1.000001
v -0.499998 0.759499 1.000000
v 0.759499 0.759500 0.891044
v -0.759495 -0.759497 0.891049
v 0.500003 -0.759496 0.891047
v 0.759501 -0.499998 0.891046
v -0.759496 0.500000 0.891048
v -0.499998 0.759499 0.891047
v 0.759500 -0.759499 -0.999998
v 0.759501 0.759497 -0.999998
v -0.759496 -0.759497 -1.000002
v -0.759495 0.759499 -1.000002
v 0.500003 0.759497 -0.999999
v 0.759501 0.499999 -0.999998
v -0.759496 -0.499999 -1.000002
v -0.499998 -0.759497 -1.000002
v 0.759499 -0.759499 -0.891045
v -0.759495 0.759499 -0.891048
v 0.500003 0.759498 -0.891046
v 0.759501 0.499999 -0.891045
v -0.759496 -0.499999 -0.891049
v -0.499998 -0.759497 -0.891048
vt 0.590953 0.902736
vt 0.991122 0.902744
vt 0.991121 0.943050
vt 0.991124 0.983462
vt 0.590914 0.983470
vt 0.590914 0.943163
vt 0.778925 0.117073
vt 0.778925 0.229685
vt 0.666313 0.117073
vt 0.119740 0.776257
vt 0.119740 0.663646
vt 0.232351 0.776258
vt 0.119740 0.117072
vt 0.778924 0.776258
vt 0.025042 0.983455
vt 0.025042 0.943153
vt 0.307972 0.943163
vt 0.307972 0.983466
vt 0.307999 0.902742
vt 0.308000 0.943048
vt 0.025042 0.943052
vt 0.590953 0.943042
vt 0.015371 0.012704
vt 0.015370 0.880625
vt 0.991124 0.943152
vt 0.025042 0.902746
vt 0.883294 0.012704
vt 0.883293 0.880627
vn 0.000001 -0.707107 -0.707107
vn 0.000000 0.707106 0.707108
vn 1.000000 -0.000001 0.000001
vn 1.000000 0.000001 -0.000000
vn 1.000000 0.000000 0.000001
vn 0.000002 0.000001 -1.000000
vn 0.000000 -1.000000 -0.000001
vn -0.000000 1.000000 0.000001
vn 0.000001 -0.000001 1.000000
vn 1.000000 -0.000000 -0.000001
vn 1.000000 0.000005 -0.000000
vn -0.000002 0.707106 -0.707108
vn 0.000002 -0.707105 0.707108
vn -1.000000 -0.000001 0.000001
vn -1.000000 -0.000003 0.000000
vn -1.000000 -0.000002 0.000000
vn -1.000000 -0.000002 0.000001
vn -0.000002 -0.000001 -1.000000
vn -0.000002 1.000000 -0.000001
vn 0.000002 -1.000000 0.000001
vn 0.000000 0.000001 1.000000
vn 0.707105 0.000003 -0.707108
vn -0.707106 -0.000002 0.707108
vn -0.000001 1.000000 0.000001
vn -0.000002 1.000000 0.000000
vn -0.000001 0.000001 -1.000000
vn -0.707106 -0.000004 -0.707108
vn 0.707106 0.000003 0.707108
vn 0.000003 -1.000000 0.000001
vn 0.000003 -1.000000 0.000000
vn 0.000002 -1.000000 0.000000
vn 0.000001 -0.000001 -1.000000
vn -1.000000 -0.000002 -0.000001
vn 1.000000 0.000005 0.000001
vn -0.000001 0.000001 1.000000
vn -0.707105 -0.707109 0.000005
vn 0.707106 0.707108 -0.000004
vn 0.000002 0.000002 1.000000
vn 0.000003 0.000000 1.000000
vn 0.000003 0.000001 1.000000
vn 0.000002 0.000001 1.000000
vn 0.000003 0.000002 1.000000
vn 0.000001 -1.000000 0.000003
vn -1.000000 -0.000001 0.000002
vn 1.000000 0.000001 -0.000004
vn -0.000001 1.000000 -0.000001
vn -0.707106 0.707108 -0.000004
vn 0.707107 -0.707107 0.000003
vn 0.000004 -0.000000 -1.000000
vn 0.000003 0.000000 -1.000000
vn 0.000002 0.000000 -1.000000
vn 0.000001 1.000000 0.000000
vn -1.000000 0.000001 -0.000002
vn 1.000000 -0.000001 0.000004
vn -0.000001 -1.000000 0.000001
vn 1.000000 0.000010 0.000001
vn 1.000000 0.000000 -0.000009
vn -1.000000 -0.000012 0.000001
vn -1.000000 -0.000002 -0.000009
vn -1.000000 -0.000002 0.000004
vn -1.000000 -0.000005 0.000000
vn -0.000011 1.000000 0.000001
vn -0.000001 1.000000 -0.000009
vn -0.000005 1.000000 0.000000
vn -0.000005 -1.000000 0.000000
vn 0.000003 -1.000000 -0.000021
vn 0.000002 -1.000000 0.000003
vn 0.000005 -1.000000 0.000000
vn 0.000011 0.000002 1.000000
vn 0.000002 -0.000026 1.000000
vn -0.000017 0.000000 1.000000
vn -0.000007 -0.000000 -1.000000
vn 0.000003 0.000012 -1.000000
vn 0.000002 0.000011 -1.000000
vn -0.000010 0.000000 -1.000000
vn 0.000002 -0.707105 -0.707109
vn 0.000000 0.707107 0.707107
vn 0.000000 0.000001 -1.000000
vn -0.000001 -1.000000 -0.000001
vn -0.000002 -0.000001 1.000000
vn 1.000000 -0.000001 0.000000
vn 1.000000 0.000001 -0.000007
vn -0.000002 0.707107 -0.707107
vn 1.000000 0.000003 -0.000000
vn 0.000001 -0.707107 0.707107
vn -0.000001 -0.000001 -1.000000
vn 0.707106 0.000002 -0.707107
vn -0.707106 -0.000000 0.707107
vn 1.000000 0.000003 -0.000001
vn -1.000000 -0.000004 0.000001
vn -0.707106 -0.000004 -0.707107
vn 0.707106 0.000001 0.707107
vn -1.000000 -0.000004 -0.000001
vn 1.000000 0.000006 0.000001
vn -0.707107 -0.707107 0.000004
vn 0.707106 0.707107 -0.000002
vn 0.000001 -1.000000 0.000001
vn -1.000000 -0.000001 0.000003
vn 1.000000 0.000001 -0.000005
vn -0.000001 1.000000 -0.000003
vn -0.707106 0.707108 -0.000003
vn 0.707106 -0.707108 0.000000
vn 0.000001 1.000000 0.000001
vn -1.000000 0.000001 -0.000003
vn 1.000000 -0.000001 0.000005
vn -0.000001 -1.000000 -0.000002
vn 1.000000 -0.000009 0.000001
vn 1.000000 0.000001 -0.000003
vn 1.000000 0.000004 -0.000002
vn -1.000000 0.000007 0.000001
vn 1.000000 -0.000000 -0.000006
vn -1.000000 -0.000003 -0.000002
vn -1.000000 -0.000006 -0.000001
vn -1.000000 -0.000001 -0.000010
vn -1.000000 -0.000001 -0.000005
vn -1.000000 -0.000006 0.000000
vn -1.000000 -0.000003 -0.000006
vn 0.000009 1.000000 0.000001
vn -0.000002 1.000000 -0.000002
vn -0.000006 1.000000 -0.000002
vn -0.000001 1.000000 -0.000006
vn -0.000002 1.000000 -0.000006
vn -0.000020 -1.000000 0.000001
vn 0.000003 -1.000000 -0.000003
vn -0.000009 -1.000000 -0.000001
vn 0.000003 -1.000000 0.000010
vn 0.000000 -1.000000 -0.000008
vn 0.000006 -1.000000 0.000000
vn 0.000002 -1.000000 0.000006
vn 0.000003 0.000021 1.000000
vn 0.000008 0.000001 1.000000
vn 0.000003 -0.000006 1.000000
vn 0.000001 0.000016 1.000000
vn -0.000025 0.000001 1.000000
vn -0.000000 -0.000011 1.000000
vn -0.000009 0.000000 -1.000000
vn -0.000018 -0.000000 1.000000
vn 0.000001 -0.000012 -1.000000
vn -0.000008 0.000000 -1.000000
vn 0.000002 -0.000011 -1.000000
vn 0.000000 -0.000007 -1.000000
vn -0.000000 -0.000005 -1.000000
usemtl Crate
s off
f 6/1/1 8/2/1 14/3/1
f 9/4/2 7/5/2 13/6/2
f 3/7/3 7/8/3 6/9/3
f 4/10/4 8/11/4 9/12/4
f 8/11/5 6/9/5 7/8/5
f 11/13/5 12/9/5 14/11/5
f 10/14/5 15/12/5 13/8/5
f 9/15/6 15/16/6 10/17/6
f 2/18/7 10/17/7 13/6/7
f 5/19/8 11/20/8 14/21/8
f 6/1/9 12/22/9 11/20/9
f 6/9/10 5/13/10 1/23/10
f 8/11/11 4/10/11 17/24/11
f 24/2/12 30/3/12 28/22/12
f 23/5/13 29/6/13 31/25/13
f 19/7/14 23/8/14 22/9/14
f 20/10/15 24/11/15 25/12/15
f 24/11/16 22/9/16 23/8/16
f 27/13/16 28/9/16 30/11/16
f 26/14/17 31/12/17 29/8/17
f 25/15/18 31/16/18 26/17/18
f 18/18/19 26/17/19 29/6/19
f 21/19/20 27/20/20 30/21/20
f 22/1/21 28/22/21 27/20/21
f 40/2/22 46/3/22 44/22/22
f 41/4/23 39/5/23 45/6/23
f 35/7/24 39/8/24 38/9/24
f 36/10/25 40/11/25 41/12/25
f 40/11/24 38/9/24 39/8/24
f 43/13/24 44/9/24 46/11/24
f 42/14/24 47/12/24 45/8/24
f 41/15/26 47/16/26 42/17/26
f 39/5/10 34/18/10 42/17/10
f 40/26/17 37/19/17 43/20/17
f 38/1/9 44/22/9 43/20/9
f 53/1/27 55/2/27 61/3/27
f 56/4/28 54/5/28 60/6/28
f 50/7/29 54/8/29 53/9/29
f 51/10/30 55/11/30 56/12/30
f 53/9/29 54/8/29 56/12/29
f 58/13/31 59/9/31 61/11/31
f 57/14/29 62/12/29 60/8/29
f 56/15/32 62/16/32 57/17/32
f 49/18/33 57/17/33 60/6/33
f 55/26/34 52/19/34 58/20/34
f 53/1/35 59/22/35 58/20/35
f 69/1/36 71/2/36 77/3/36
f 70/5/37 76/6/37 78/25/37
f 65/7/38 70/8/38 69/9/38
f 66/10/39 71/11/39 72/12/39
f 69/9/40 70/8/40 72/12/40
f 74/13/41 75/9/41 77/11/41
f 73/14/42 78/12/42 76/8/42
f 72/15/43 78/16/43 73/17/43
f 64/18/44 73/17/44 76/6/44
f 67/19/45 74/20/45 77/21/45
f 69/1/46 75/22/46 74/20/46
f 85/2/47 91/3/47 89/22/47
f 86/4/48 84/5/48 90/6/48
f 80/7/49 84/8/49 83/9/49
f 81/10/50 85/11/50 86/12/50
f 83/9/50 84/8/50 86/12/50
f 88/13/51 89/9/51 91/11/51
f 87/14/50 92/12/50 90/8/50
f 86/15/52 92/16/52 87/17/52
f 84/5/53 79/18/53 87/17/53
f 82/19/54 88/20/54 91/21/54
f 83/1/55 89/22/55 88/20/55
f 7/8/56 3/7/56 16/27/56
f 9/12/57 2/14/57 68/28/57
f 23/8/58 19/7/58 32/27/58
f 25/12/59 18/14/59 63/28/59
f 22/9/60 21/13/60 48/23/60
f 24/11/61 20/10/61 33/24/61
f 39/8/62 35/7/62 48/27/62
f 41/12/63 34/14/63 33/28/63
f 38/9/24 37/13/24 16/23/24
f 40/11/64 36/10/64 68/24/64
f 54/8/65 50/7/65 1/27/65
f 56/12/66 49/14/66 17/28/66
f 53/9/67 52/13/67 32/23/67
f 55/11/68 51/10/68 63/24/68
f 70/8/69 65/7/69 17/27/69
f 72/12/42 64/14/42 68/28/42
f 69/9/70 67/13/70 63/23/70
f 71/11/71 66/10/71 33/24/71
f 84/8/72 80/7/72 16/27/72
f 86/12/73 79/14/73 1/28/73
f 83/9/74 82/13/74 48/23/74
f 85/11/75 81/10/75 32/24/75
f 12/22/76 6/1/76 14/3/76
f 15/25/77 9/4/77 13/6/77
f 9/12/5 8/11/5 7/8/5
f 2/18/78 9/15/78 10/17/78
f 7/5/79 2/18/79 13/6/79
f 8/26/24 5/19/24 14/21/24
f 5/19/80 6/1/80 11/20/80
f 16/27/57 3/7/57 6/9/57
f 1/23/81 5/13/81 8/11/81
f 6/9/82 1/23/82 16/27/82
f 22/1/83 24/2/83 28/22/83
f 8/11/84 17/24/84 1/23/84
f 25/4/85 23/5/85 31/25/85
f 25/12/17 24/11/17 23/8/17
f 18/18/86 25/15/86 26/17/86
f 23/5/19 18/18/19 29/6/19
f 24/26/29 21/19/29 30/21/29
f 21/19/41 22/1/41 27/20/41
f 38/1/87 40/2/87 44/22/87
f 47/25/88 41/4/88 45/6/88
f 41/12/24 40/11/24 39/8/24
f 34/18/26 41/15/26 42/17/26
f 45/6/89 39/5/89 42/17/89
f 46/21/90 40/26/90 43/20/90
f 37/19/9 38/1/9 43/20/9
f 59/22/91 53/1/91 61/3/91
f 62/25/92 56/4/92 60/6/92
f 55/11/29 53/9/29 56/12/29
f 49/18/32 56/15/32 57/17/32
f 54/5/93 49/18/93 60/6/93
f 61/21/94 55/26/94 58/20/94
f 52/19/35 53/1/35 58/20/35
f 75/22/95 69/1/95 77/3/95
f 72/4/96 70/5/96 78/25/96
f 71/11/40 69/9/40 72/12/40
f 64/18/97 72/15/97 73/17/97
f 70/5/98 64/18/98 76/6/98
f 71/26/99 67/19/99 77/21/99
f 67/19/100 69/1/100 74/20/100
f 83/1/101 85/2/101 89/22/101
f 92/25/102 86/4/102 90/6/102
f 85/11/51 83/9/51 86/12/51
f 79/18/103 86/15/103 87/17/103
f 90/6/104 84/5/104 87/17/104
f 85/26/105 82/19/105 91/21/105
f 82/19/106 83/1/106 88/20/106
f 68/28/107 2/14/107 7/8/107
f 17/24/108 4/10/108 9/12/108
f 7/8/109 16/27/109 68/28/109
f 63/28/110 18/14/110 23/8/110
f 9/12/111 68/28/111 17/24/111
f 33/24/112 20/10/112 25/12/112
f 23/8/113 32/27/113 63/28/113
f 32/27/114 19/7/114 22/9/114
f 25/12/115 63/28/115 33/24/115
f 48/23/116 21/13/116 24/11/116
f 22/9/117 48/23/117 32/27/117
f 33/28/118 34/14/118 39/8/118
f 24/11/61 33/24/61 48/23/61
f 68/24/119 36/10/119 41/12/119
f 39/8/120 48/27/120 33/28/120
f 48/27/63 35/7/63 38/9/63
f 41/12/121 33/28/121 68/24/121
f 16/23/25 37/13/25 40/11/25
f 38/9/122 16/23/122 48/27/122
f 17/28/123 49/14/123 54/8/123
f 40/11/64 68/24/64 16/23/64
f 63/24/124 51/10/124 56/12/124
f 54/8/125 1/27/125 17/28/125
f 1/27/126 50/7/126 53/9/126
f 56/12/127 17/28/127 63/24/127
f 32/23/128 52/13/128 55/11/128
f 53/9/129 32/23/129 1/27/129
f 68/28/40 64/14/40 70/8/40
f 55/11/128 63/24/128 32/23/128
f 33/24/130 66/10/130 72/12/130
f 70/8/131 17/27/131 68/28/131
f 17/27/132 65/7/132 69/9/132
f 72/12/133 68/28/133 33/24/133
f 63/23/134 67/13/134 71/11/134
f 69/9/135 63/23/135 17/27/135
f 1/28/136 79/14/136 84/8/136
f 71/11/137 33/24/137 63/23/137
f 32/24/138 81/10/138 86/12/138
f 84/8/139 16/27/139 1/28/139
f 16/27/140 80/7/140 83/9/140
f 86/12/141 1/28/141 32/24/141
f 48/23/136 82/13/136 85/11/136
f 83/9/142 48/23/142 16/27/142
f 85/11/136 32/24/136 48/23/136
