# Blender v2.70 (sub 0) OBJ File: 'fence.blend'
# www.blender.org
mtllib fencetop.mtl
o FenceTop_fencetop
v -0.250012 0.081438 0.000000
v 2.750126 0.084940 -0.000000
v -0.250012 0.079894 -0.015680
v 2.750125 0.083395 -0.015680
v -0.250012 0.075320 -0.030757
v 2.750125 0.078822 -0.030757
v -0.250012 0.067893 -0.044652
v 2.750125 0.071394 -0.044652
v -0.250012 0.057898 -0.056832
v 2.750125 0.061399 -0.056832
v -0.250012 0.045718 -0.066827
v 2.750125 0.049220 -0.066827
v -0.250012 0.031823 -0.074254
v 2.750125 0.035325 -0.074254
v -0.250012 0.016746 -0.078828
v 2.750125 0.020247 -0.078828
v -0.250012 0.001066 -0.080372
v 2.750125 0.004567 -0.080372
v -0.250012 -0.014614 -0.078828
v 2.750125 -0.011112 -0.078828
v -0.250012 -0.029691 -0.074254
v 2.750125 -0.026190 -0.074254
v -0.250012 -0.043586 -0.066827
v 2.750125 -0.040085 -0.066827
v -0.250012 -0.055766 -0.056832
v 2.750125 -0.052264 -0.056832
v -0.250012 -0.065761 -0.044652
v 2.750125 -0.062260 -0.044652
v -0.250012 -0.073188 -0.030757
v 2.750125 -0.069687 -0.030757
v -0.250012 -0.077762 -0.015680
v 2.750125 -0.074260 -0.015680
v -0.250012 -0.079306 0.000000
v 2.750126 -0.075805 -0.000000
v -0.250012 -0.077762 0.015680
v 2.750126 -0.074260 0.015680
v -0.250012 -0.073188 0.030757
v 2.750126 -0.069687 0.030757
v -0.250012 -0.065761 0.044652
v 2.750126 -0.062260 0.044652
v -0.250012 -0.055766 0.056832
v 2.750126 -0.052264 0.056832
v -0.250012 -0.043586 0.066827
v 2.750126 -0.040085 0.066827
v -0.250012 -0.029691 0.074254
v 2.750126 -0.026190 0.074254
v -0.250012 -0.014614 0.078828
v 2.750126 -0.011112 0.078828
v -0.250012 0.001066 0.080372
v 2.750126 0.004568 0.080372
v -0.250012 0.016746 0.078828
v 2.750126 0.020247 0.078828
v -0.250012 0.031823 0.074254
v 2.750126 0.035325 0.074254
v -0.250012 0.045718 0.066827
v 2.750126 0.049220 0.066827
v -0.250012 0.057898 0.056832
v 2.750126 0.061399 0.056832
v -0.250012 0.067893 0.044652
v 2.750126 0.071394 0.044652
v -0.250012 0.075320 0.030757
v 2.750126 0.078822 0.030757
v -0.250012 0.079894 0.015680
v 2.750125 0.083395 0.015680
vt 0.742448 0.987913
vt 0.742450 0.028071
vt 0.772263 0.028278
vt 0.772262 0.988120
vt 0.802076 0.028488
vt 0.802075 0.988330
vt 0.831889 0.028702
vt 0.831888 0.988543
vt 0.861702 0.028919
vt 0.861701 0.988760
vt 0.891515 0.029139
vt 0.891514 0.988979
vt 0.921328 0.029360
vt 0.921327 0.989201
vt 0.951140 0.029583
vt 0.951139 0.989424
vt 0.980953 0.029806
vt 0.980952 0.989648
vt 0.026860 0.988366
vt 0.026859 0.028526
vt 0.056671 0.028749
vt 0.056673 0.988590
vt 0.086484 0.028972
vt 0.086485 0.988813
vt 0.116297 0.029193
vt 0.116298 0.989035
vt 0.146109 0.029412
vt 0.146110 0.989254
vt 0.175922 0.029629
vt 0.175923 0.989471
vt 0.205735 0.029842
vt 0.205736 0.989684
vt 0.235548 0.030052
vt 0.235549 0.989894
vt 0.265361 0.030257
vt 0.265363 0.990100
vt 0.295179 0.030123
vt 0.295180 0.989967
vt 0.324998 0.029989
vt 0.324998 0.989832
vt 0.354816 0.029853
vt 0.354816 0.989696
vt 0.384634 0.029717
vt 0.384634 0.989560
vt 0.414452 0.029579
vt 0.414452 0.989422
vt 0.444270 0.029441
vt 0.444270 0.989284
vt 0.474087 0.029302
vt 0.474087 0.989146
vt 0.503905 0.029164
vt 0.503905 0.989007
vt 0.533723 0.029025
vt 0.533723 0.988868
vt 0.563541 0.028886
vt 0.563541 0.988730
vt 0.593359 0.028748
vt 0.593359 0.988592
vt 0.623177 0.028611
vt 0.623176 0.988454
vt 0.652995 0.028474
vt 0.652994 0.988317
vt 0.682813 0.028339
vt 0.682812 0.988182
vt 0.712630 0.988047
vt 0.712631 0.028205
vn -0.001167 0.999999 -0.000001
vn -0.001145 0.980787 -0.195076
vn -0.001145 0.980782 -0.195104
vn -0.001078 0.923890 -0.382657
vn -0.001078 0.923868 -0.382709
vn -0.000970 0.831491 -0.555537
vn -0.000970 0.831446 -0.555604
vn -0.000825 0.707143 -0.707070
vn -0.000825 0.707070 -0.707143
vn -0.000649 0.555621 -0.831435
vn -0.000648 0.555520 -0.831503
vn -0.000447 0.382746 -0.923854
vn -0.000447 0.382621 -0.923905
vn -0.000228 0.195160 -0.980771
vn -0.000228 0.195020 -0.980799
vn -0.000000 0.000073 -1.000000
vn 0.000000 -0.000073 -1.000000
vn 0.000228 -0.195020 -0.980799
vn 0.000228 -0.195160 -0.980771
vn 0.000447 -0.382621 -0.923905
vn 0.000447 -0.382745 -0.923854
vn 0.000648 -0.555519 -0.831503
vn 0.000648 -0.555620 -0.831436
vn 0.000825 -0.707070 -0.707143
vn 0.000825 -0.707143 -0.707071
vn 0.000970 -0.831447 -0.555604
vn 0.000970 -0.831492 -0.555536
vn 0.001078 -0.923868 -0.382709
vn 0.001078 -0.923890 -0.382657
vn 0.001145 -0.980782 -0.195104
vn 0.001145 -0.980787 -0.195076
vn 0.001167 -0.999999 0.000000
vn 0.001145 -0.980782 0.195105
vn 0.001145 -0.980787 0.195077
vn 0.001078 -0.923868 0.382709
vn 0.001078 -0.923890 0.382658
vn 0.000970 -0.831446 0.555604
vn 0.000970 -0.831492 0.555537
vn 0.000825 -0.707070 0.707143
vn 0.000825 -0.707143 0.707070
vn 0.000648 -0.555520 0.831503
vn 0.000649 -0.555621 0.831436
vn 0.000447 -0.382621 0.923906
vn 0.000447 -0.382745 0.923854
vn 0.000228 -0.195019 0.980799
vn 0.000228 -0.195159 0.980772
vn -0.000000 0.000074 1.000000
vn 0.000000 -0.000072 1.000000
vn -0.000228 0.195161 0.980771
vn -0.000228 0.195021 0.980799
vn -0.000447 0.382746 0.923853
vn -0.000447 0.382622 0.923905
vn -0.000648 0.555621 0.831435
vn -0.000648 0.555521 0.831502
vn -0.000825 0.707144 0.707069
vn -0.000825 0.707071 0.707142
vn -0.000970 0.831492 0.555535
vn -0.000970 0.831448 0.555602
vn -0.001078 0.923890 0.382657
vn -0.001078 0.923869 0.382708
vn -0.001145 0.980782 0.195104
vn -0.001145 0.980788 0.195076
usemtl Fence
s 1
f 1/1/1 2/2/1 4/3/2 3/4/3
f 3/4/3 4/3/2 6/5/4 5/6/5
f 5/6/5 6/5/4 8/7/6 7/8/7
f 7/8/7 8/7/6 10/9/8 9/10/9
f 9/10/9 10/9/8 12/11/10 11/12/11
f 11/12/11 12/11/10 14/13/12 13/14/13
f 13/14/13 14/13/12 16/15/14 15/16/15
f 15/16/15 16/15/14 18/17/16 17/18/17
f 17/19/17 18/20/16 20/21/18 19/22/19
f 19/22/19 20/21/18 22/23/20 21/24/21
f 21/24/21 22/23/20 24/25/22 23/26/23
f 23/26/23 24/25/22 26/27/24 25/28/25
f 25/28/25 26/27/24 28/29/26 27/30/27
f 27/30/27 28/29/26 30/31/28 29/32/29
f 29/32/29 30/31/28 32/33/30 31/34/31
f 31/34/31 32/33/30 34/35/32 33/36/32
f 33/36/32 34/35/32 36/37/33 35/38/34
f 35/38/34 36/37/33 38/39/35 37/40/36
f 37/40/36 38/39/35 40/41/37 39/42/38
f 39/42/38 40/41/37 42/43/39 41/44/40
f 41/44/40 42/43/39 44/45/41 43/46/42
f 43/46/42 44/45/41 46/47/43 45/48/44
f 45/48/44 46/47/43 48/49/45 47/50/46
f 47/50/46 48/49/45 50/51/47 49/52/48
f 49/52/48 50/51/47 52/53/49 51/54/50
f 51/54/50 52/53/49 54/55/51 53/56/52
f 53/56/52 54/55/51 56/57/53 55/58/54
f 55/58/54 56/57/53 58/59/55 57/60/56
f 57/60/56 58/59/55 60/61/57 59/62/58
f 59/62/58 60/61/57 62/63/59 61/64/60
f 63/65/61 64/66/62 2/2/1 1/1/1
f 61/64/60 62/63/59 64/66/62 63/65/61
