# Blender v2.70 (sub 0) OBJ File: 'grass_patch.blend'
# www.blender.org
mtllib grass_patch.mtl
o GrassPatch_grass_patch
v 0.600941 1.573376 0.000000
v 1.420500 1.199269 0.000000
v 0.600941 1.573375 0.900907
v 1.420500 1.199269 0.900907
v -0.991382 0.084372 -0.000000
v -0.529725 -0.689260 -0.000000
v -0.991382 0.084372 0.900907
v -0.529726 -0.689260 0.900907
v 1.633015 0.677148 -0.000000
v 1.529723 -0.217818 -0.000000
v 1.633014 0.677148 0.900907
v 1.529722 -0.217818 0.900907
v -0.774125 2.322117 0.000000
v -0.877417 1.427151 0.000000
v -0.774126 2.322117 0.900907
v -0.877418 1.427151 0.900907
v -1.975329 0.916835 0.000000
v -1.697655 0.059788 0.000000
v -1.975330 0.916835 0.900907
v -1.697655 0.059788 0.900907
v 0.431811 -0.728134 -0.000000
v 0.709485 -1.585181 -0.000000
v 0.431810 -0.728134 0.900907
v 0.709484 -1.585181 0.900907
v -1.585280 -1.060262 -0.000000
v -0.844054 -1.572334 -0.000000
v -1.585280 -1.060263 0.900907
v -0.844055 -1.572334 0.900907
v -0.450453 0.000000 0.000000
v 0.450453 0.000000 0.000000
v -0.450453 -0.000000 0.900907
v 0.450453 -0.000000 0.900907
vt 0.000100 0.000100
vt 0.999900 0.000100
vt 0.999900 0.999900
vt 0.000100 0.999900
vn -0.415256 -0.909705 -0.000001
vn -0.858726 -0.512435 -0.000001
vn -0.993406 0.114654 -0.000001
vn -0.951316 -0.308216 -0.000001
vn -0.568396 -0.822755 -0.000001
vn -0.000000 -1.000000 -0.000001
usemtl Bush
s off
f 1/1/1 2/2/1 4/3/1 3/4/1
f 5/1/2 6/2/2 8/3/2 7/4/2
f 9/1/3 10/2/3 12/3/3 11/4/3
f 13/1/3 14/2/3 16/3/3 15/4/3
f 17/1/4 18/2/4 20/3/4 19/4/4
f 21/1/4 22/2/4 24/3/4 23/4/4
f 25/1/5 26/2/5 28/3/5 27/4/5
f 29/1/6 30/2/6 32/3/6 31/4/6
