# Blender v2.70 (sub 0) OBJ File: 'i_beam.blend'
# www.blender.org
mtllib ibeam.mtl
o Cube_ibeam
v 0.348127 7.653885 0.112307
v 0.541822 -7.653885 0.112308
v 0.541822 7.653885 0.112307
v 0.364933 -7.653885 0.491067
v 0.364933 7.653885 0.491064
v 0.529044 -7.653885 0.491067
v 0.529044 7.653885 0.491064
v -0.348128 -7.653885 0.112308
v -0.541822 7.653885 0.112307
v -0.364933 -7.653885 0.491067
v -0.364933 7.653885 0.491064
v -0.529044 -7.653885 0.491067
v -0.529044 7.653885 0.491064
v 0.348128 -7.653885 -0.112308
v 0.348127 7.653885 -0.112307
v 0.541822 -7.653885 -0.112308
v 0.541822 7.653885 -0.112307
v 0.364933 -7.653885 -0.491067
v 0.364933 7.653885 -0.491064
v 0.529044 -7.653885 -0.491067
v 0.529044 7.653885 -0.491064
v 0.348128 -7.653885 0.112308
v -0.348127 7.653885 -0.112307
v -0.348128 -7.653885 -0.112308
v -0.541822 -7.653885 -0.112308
v -0.541822 7.653885 -0.112307
v -0.364933 -7.653885 -0.491067
v -0.364933 7.653885 -0.491064
v -0.529044 -7.653885 -0.491067
v -0.529044 7.653885 -0.491064
v -0.348127 7.653885 0.112307
v -0.541822 -7.653885 0.112308
vt 0.593073 -0.427095
vt 0.593073 1.403666
vt 0.561121 1.403840
vt 0.561121 -0.426922
vt 0.306641 -0.507240
vt 0.270181 -0.507489
vt 0.273832 -0.578762
vt 0.304724 -0.578551
vt 0.515797 1.403840
vt 0.515796 -0.426922
vt 0.767028 -0.427095
vt 0.798980 -0.426880
vt 0.798982 1.403881
vt 0.767030 1.403666
vt 0.268682 1.447246
vt 0.272336 1.375973
vt 0.303226 1.376185
vt 0.305142 1.447497
vt 0.272569 -0.393893
vt 0.303458 -0.393682
vt 0.306352 -0.464959
vt 0.269892 -0.465209
vt 0.483842 1.403751
vt 0.438518 1.403751
vt 0.438518 -0.427011
vt 0.483842 -0.427011
vt 0.228734 -0.393899
vt 0.228502 1.375967
vt 0.104399 -0.393915
vt 0.104168 1.375950
vt 0.073278 1.376115
vt 0.073510 -0.393751
vt 0.070730 -0.465027
vt 0.107186 -0.465219
vt 0.876261 1.403799
vt 0.876258 -0.426962
vt 0.921582 -0.426962
vt 0.921584 1.403798
vt 0.638417 1.403666
vt 0.638415 -0.427095
vt 0.721685 -0.427095
vt 0.721689 1.403666
vt 0.268391 1.489528
vt 0.304852 1.489778
vt 0.301956 1.561058
vt 0.271064 1.560846
vt 0.844306 1.403881
vt 0.844303 -0.426880
vt 0.228499 1.401936
vt 0.147999 1.401926
vt 0.148002 1.375956
vt 0.148232 -0.393909
vt 0.107711 1.447223
vt 0.071254 1.447418
vt 0.107937 1.489500
vt 0.105155 1.560806
vt 0.074266 1.560971
vt 0.071480 1.489695
vt 0.070507 -0.507303
vt 0.072537 -0.578603
vt 0.103425 -0.578766
vt 0.106963 -0.507495
vt 0.228737 -0.419869
vt 0.148236 -0.419879
vn 0.000000 0.000000 1.000000
vn 0.000000 1.000000 -0.000001
vn 0.000000 1.000000 -0.000002
vn 0.999858 0.000000 0.016861
vn 0.999431 0.000000 0.033718
vn 0.000000 -1.000000 0.000000
vn 0.000000 -1.000000 0.000001
vn 0.000000 0.000000 -1.000000
vn 0.000000 1.000000 0.000001
vn 0.000000 1.000000 0.000002
vn 0.999858 0.000000 -0.016861
vn 0.999431 0.000000 -0.033718
vn -0.999017 -0.000000 -0.044326
vn -0.999858 0.000000 -0.016861
vn -0.999431 0.000000 -0.033718
vn 0.691257 0.000000 0.722609
vn 0.000000 -1.000000 -0.000001
vn 0.000000 -1.000000 -0.000002
vn -0.999017 -0.000000 0.044326
vn -0.999858 0.000000 0.016861
vn -0.999431 0.000000 0.033718
vn 0.691257 0.000000 -0.722609
vn 0.000000 -1.000000 0.000002
vn 0.999017 -0.000000 -0.044326
vn 0.999017 -0.000000 0.044326
usemtl IBeam
s 1
f 5/1/1 4/2/1 6/3/1 7/4/1
f 3/5/2 1/6/2 5/7/3 7/8/3
f 2/9/4 3/10/4 7/4/5 6/3/5
f 11/11/1 13/12/1 12/13/1 10/14/1
f 14/15/6 18/16/7 20/17/7 16/18/6
f 19/19/8 21/20/8 20/17/8 18/16/8
f 17/21/9 21/20/10 19/19/10 15/22/9
f 16/23/11 20/24/12 21/25/12 17/26/11
f 15/27/13 19/19/13 18/16/13 14/28/13
f 28/29/8 27/30/8 29/31/8 30/32/8
f 26/33/9 23/34/9 28/29/10 30/32/10
f 25/35/14 26/36/14 30/37/15 29/38/15
f 22/39/1 1/40/1 31/41/16 8/42/16
f 22/43/17 2/44/17 6/45/18 4/46/18
f 1/40/19 22/39/19 4/2/19 5/1/19
f 32/47/20 12/13/21 13/12/21 9/48/20
f 1/6/2 3/5/2 17/21/9 15/22/9
f 22/49/17 8/50/6 24/51/7 14/28/6
f 2/9/4 16/23/11 17/26/11 3/10/4
f 14/15/6 16/18/6 2/44/17 22/43/17
f 32/47/20 9/48/20 26/36/14 25/35/14
f 14/28/8 24/51/22 23/52/22 15/27/8
f 24/53/7 25/54/7 29/31/23 27/30/23
f 23/52/22 24/51/22 27/30/24 28/29/24
f 8/55/6 10/56/17 12/57/17 32/58/6
f 9/59/2 13/60/3 11/61/3 31/62/2
f 31/41/16 11/11/25 10/14/25 8/42/16
f 1/63/2 15/27/9 23/52/9 31/64/2
f 31/62/2 23/34/9 26/33/9 9/59/2
f 24/53/7 8/55/6 32/58/6 25/54/7
