# Blender v2.70 (sub 0) OBJ File: 'ivy2.blend'
# www.blender.org
mtllib ivy2.mtl
o Ivy2_ivy2
v 0.253094 1.531772 0.985030
v 0.253094 0.268050 0.985030
v 1.529350 0.201974 0.270799
v 1.529351 1.531772 0.270799
v 1.430817 0.999999 0.740434
v 1.465696 -0.864737 0.686493
v 0.203556 -0.951244 1.529264
v 0.203289 0.909760 1.398827
v 0.437825 -0.485240 0.961223
v 0.373443 -1.493597 1.059686
v 1.616954 -1.636908 0.303314
v 1.695442 -0.596809 0.232174
v 0.349944 -1.797219 0.925289
v 1.510451 -1.930965 0.219404
v 1.019882 0.620358 1.166999
v 0.984755 -0.397561 1.150135
v 0.414835 -0.494499 1.723963
v 0.399369 0.687891 1.751260
v 0.222722 -0.428741 2.194496
v 0.222136 0.655048 2.251212
v 0.842706 0.797886 1.139688
v 0.320672 0.778559 1.635900
v 0.138329 0.795914 2.109512
v 0.850377 -0.566444 1.130652
v 0.305452 -0.649639 1.641535
v 0.119517 -0.587953 2.090992
v 1.556354 1.126739 0.527831
v 1.596070 -0.996594 0.466410
v 0.103109 -1.150614 1.403413
v 0.159409 1.079441 1.299644
v 0.437360 1.600059 0.699912
v 1.606058 0.205581 0.090336
v 1.606059 1.726395 0.090336
v 0.302936 -0.135501 0.772624
v 1.546448 -0.278812 0.016252
v 0.343164 2.109833 0.703651
v 0.997894 1.758630 0.638657
v 0.954788 1.130773 1.048482
v 0.125272 1.355893 1.369486
v 0.707602 0.558522 1.353025
v 0.142409 0.647975 1.601653
v 0.246417 2.004071 0.704036
v 0.074774 1.355505 1.216121
v 0.072543 1.051670 1.491640
v 1.056746 1.607410 0.605062
v 1.033821 1.048885 0.918599
v 0.780368 0.684264 1.237955
v 0.358631 -2.024873 0.703651
v 1.013361 -1.673670 0.638657
v 0.842963 -1.034273 1.241094
v 0.166481 -1.233675 1.425599
v 0.723071 -0.473562 1.353025
v 0.157878 -0.563015 1.601654
v 0.261884 -1.919110 0.704036
v 0.090242 -1.270544 1.216122
v 0.088011 -0.966709 1.491641
v 1.072214 -1.522450 0.605062
v 1.014441 -0.946148 1.026961
v 0.795837 -0.599304 1.237956
vt 0.854649 -0.003414
vt 0.852191 0.266975
vt 0.115195 0.236783
vt 0.216269 -0.003414
vt 0.904792 0.033166
vt 0.929203 0.299966
vt 0.063492 0.300132
vt 0.134370 0.025196
vt 0.242286 -0.000716
vt 0.246907 0.480028
vt 0.015078 0.437734
vt 0.060092 0.004899
vt 0.838358 0.890676
vt 0.013229 0.980402
vt 0.019729 0.517414
vt 0.866446 0.301238
vt 0.855864 0.434129
vt 0.127980 0.465322
vt 0.834040 0.007675
vt 0.657653 0.421972
vt 0.992650 0.246963
vt 0.990978 0.406881
vt 0.999904 0.024900
vt 0.018942 0.449965
vt 0.015721 0.223972
vt 0.089071 0.014178
vt -0.007727 0.302563
vt 0.074901 -0.011284
vt 0.962238 -0.002571
vt 0.992102 0.302563
vt 0.996530 0.339626
vt 0.994000 0.992367
vt 0.239080 1.001161
vt 0.963629 0.057947
vt 0.988712 0.440041
vt 0.226268 0.251397
vt 0.309804 0.014123
vt 0.186439 0.471168
vn 0.670037 0.296000 0.680760
vn 0.764031 0.433302 0.477981
vn 0.763878 -0.384930 0.517930
vn 0.693185 -0.264637 0.670420
vn 0.611744 0.291513 0.735343
vn 0.460232 0.327380 0.825232
vn 0.518546 -0.338575 0.785160
vn 0.661733 -0.261666 0.702567
vn 0.491361 -0.178150 0.852542
vn 0.493441 -0.164610 0.854061
vn 0.444973 -0.391057 0.805651
vn 0.669210 0.312418 0.674154
vn 0.467836 0.204112 0.859923
vn 0.488357 -0.000000 0.872644
vn 0.746317 -0.000001 0.665591
vn 0.889799 0.303694 0.340628
vn 0.876771 -0.291669 0.382364
vn 0.507522 0.321586 0.799377
vn 0.505809 0.337979 0.793680
vn 0.553643 0.732163 0.396757
vn 0.641335 0.725932 0.248419
vn 0.489269 0.724812 0.485040
vn 0.658686 -0.659590 0.362043
vn 0.630731 -0.638004 0.441734
vn 0.599648 -0.612937 0.514519
vn 0.463316 -0.619728 0.633463
vn 0.751674 -0.270063 0.601708
vn 0.729923 0.260450 0.631965
vn 0.344271 0.633761 0.692693
vn 0.920310 -0.000001 0.391189
vn 0.667938 0.473124 0.574467
vn 0.277772 0.761454 0.585688
vn 0.454409 0.594872 0.663053
vn -0.022085 0.641319 0.766957
vn -0.093234 0.495193 0.863735
vn 0.696005 0.234870 0.678518
vn 0.578905 0.439878 0.686568
vn 0.354279 0.305382 0.883871
vn 0.475100 0.248884 0.844000
vn -0.689846 0.505059 0.518679
vn -0.431268 0.399557 0.808927
vn -0.765292 0.525158 0.372205
vn 0.853398 -0.117901 0.507751
vn 0.878610 0.068242 0.472640
vn 0.875759 0.214843 0.432306
vn 0.041509 0.677346 -0.734493
vn 0.145024 0.468520 -0.871456
vn -0.609607 0.258431 -0.749382
vn -0.576029 0.474951 -0.665291
vn -0.279246 0.202713 -0.938578
vn -0.487217 0.114723 -0.865713
vn 0.697652 0.504360 -0.508824
vn 0.568348 0.351129 -0.744102
vn 0.725647 0.544218 -0.421026
vn -0.804708 -0.091417 -0.586590
vn -0.828417 0.130342 -0.544734
vn -0.821166 0.269665 -0.502958
usemtl Ivy
s 1
f 15/1/1 18/2/2 17/3/3 16/4/4
f 5/5/5 8/6/6 7/7/7 6/8/8
f 11/9/9 10/10/10 13/11/11 14/12/11
f 4/13/12 1/14/13 2/15/14 3/16/15
f 17/3/3 18/2/2 20/17/16 19/18/17
f 12/19/18 9/20/19 10/10/10 11/9/9
f 20/17/16 18/2/2 22/21/20 23/22/21
f 18/2/2 15/1/1 21/23/22 22/21/20
f 17/3/3 19/18/17 26/24/23 25/25/24
f 16/4/4 17/3/3 25/25/24 24/26/25
f 6/8/8 7/7/7 29/27/26 28/28/27
f 8/6/6 5/5/5 27/29/28 30/30/29
f 5/5/5 6/8/8 28/28/27 27/29/28
f 4/13/12 3/16/15 32/31/30 33/32/31
f 1/14/13 4/13/12 33/32/31 31/33/32
f 9/20/19 12/19/18 35/34/33 34/35/33
f 36/1/34 39/2/35 38/3/36 37/4/37
f 38/3/36 39/2/35 41/17/38 40/18/39
f 41/17/38 39/2/35 43/21/40 44/22/41
f 39/2/35 36/1/34 42/23/42 43/21/40
f 38/3/36 40/18/39 47/24/43 46/25/44
f 37/4/37 38/3/36 46/25/44 45/26/45
f 48/1/46 51/2/47 50/36/48 49/37/49
f 50/36/48 51/2/47 53/17/50 52/38/51
f 53/17/50 51/2/47 55/21/52 56/22/53
f 51/2/47 48/1/46 54/23/54 55/21/52
f 50/36/48 52/38/51 59/24/55 58/25/56
f 49/37/49 50/36/48 58/25/56 57/26/57
