# Blender v2.70 (sub 0) OBJ File: 'pipes.blend'
# www.blender.org
mtllib pipel.mtl
o PipeL_pipel
v 0.000000 1.000000 -3.000000
v 0.382683 0.923880 -3.000000
v 0.707107 0.707107 -3.000000
v 0.923880 0.382683 -3.000000
v 1.000000 0.000000 -3.000000
v 0.923880 -0.382683 -3.000000
v 0.707107 -0.707107 -3.000000
v 0.382683 -0.923880 -3.000000
v 0.000000 -1.000000 -3.000000
v -0.382683 -0.923880 -3.000000
v -0.707107 -0.707107 -3.000000
v -0.923880 -0.382683 -3.000000
v -1.000000 -0.000000 -3.000000
v -0.923880 0.382683 -3.000000
v -0.707107 0.707107 -3.000000
v -0.382683 0.923880 -3.000000
v 0.000000 1.000000 0.000000
v 0.382683 0.923880 0.382683
v 0.707107 0.707107 0.707107
v 0.923880 0.382683 0.923880
v 1.000000 0.000000 1.000000
v 0.923880 -0.382683 0.923880
v 0.707107 -0.707107 0.707107
v 0.382683 -0.923880 0.382683
v 0.000000 -1.000000 0.000000
v -0.382683 -0.923880 -0.382683
v -0.707107 -0.707107 -0.707107
v -0.923880 -0.382683 -0.923880
v -1.000000 -0.000000 -1.000000
v -0.923880 0.382683 -0.923880
v -0.707107 0.707107 -0.707107
v -0.382683 0.923880 -0.382683
v -3.000000 1.000000 -0.000000
v -3.000000 0.923880 0.382683
v -3.000000 0.707107 0.707107
v -3.000000 0.382683 0.923879
v -3.000000 0.000000 1.000000
v -3.000000 -0.382683 0.923879
v -3.000000 -0.707107 0.707107
v -3.000000 -0.923880 0.382683
v -3.000000 -1.000000 -0.000000
v -3.000000 -0.923880 -0.382684
v -3.000000 -0.707107 -0.707107
v -3.000000 -0.382683 -0.923880
v -3.000000 -0.000000 -1.000000
v -3.000000 0.382683 -0.923880
v -3.000000 0.707107 -0.707107
v -3.000000 0.923880 -0.382684
v -3.000000 1.100000 -0.000000
v -3.000000 1.016267 0.420952
v -3.000000 0.777817 0.777817
v -3.000000 0.420952 1.016267
v -3.000000 0.000000 1.100000
v -3.000000 -0.420952 1.016267
v -3.000000 -0.777817 0.777817
v -3.000000 -1.016267 0.420952
v -3.000000 -1.100000 -0.000000
v -3.000000 -1.016267 -0.420952
v -3.000000 -0.777817 -0.777818
v -3.000000 -0.420952 -1.016268
v -3.000000 0.000000 -1.100000
v -3.000000 0.420952 -1.016268
v -3.000000 0.777817 -0.777818
v -3.000000 1.016267 -0.420952
v -3.200000 1.100000 -0.000000
v -3.200000 1.016267 0.420952
v -3.200000 0.777817 0.777817
v -3.200000 0.420952 1.016267
v -3.200000 0.000000 1.100000
v -3.200000 -0.420952 1.016267
v -3.200000 -0.777817 0.777817
v -3.200000 -1.016267 0.420952
v -3.200000 -1.100000 -0.000000
v -3.200000 -1.016267 -0.420952
v -3.200000 -0.777817 -0.777818
v -3.200000 -0.420952 -1.016268
v -3.200000 0.000000 -1.100000
v -3.200000 0.420952 -1.016268
v -3.200000 0.777817 -0.777818
v -3.200000 1.016267 -0.420952
v -3.200001 0.000000 -0.000000
v 0.000000 1.100000 -3.000000
v 0.420952 1.016267 -3.000000
v 0.777817 0.777817 -3.000000
v 1.016267 0.420952 -3.000000
v 1.100000 0.000000 -3.000000
v 1.016267 -0.420952 -3.000000
v 0.777817 -0.777817 -3.000000
v 0.420952 -1.016267 -3.000000
v 0.000000 -1.100000 -3.000000
v -0.420952 -1.016267 -3.000000
v -0.777817 -0.777817 -3.000000
v -1.016267 -0.420952 -3.000000
v -1.100000 0.000000 -3.000000
v -1.016267 0.420952 -3.000000
v -0.777817 0.777817 -3.000000
v -0.420952 1.016267 -3.000000
v 0.000000 1.100000 -3.200000
v 0.420952 1.016267 -3.200000
v 0.777817 0.777817 -3.200000
v 1.016267 0.420952 -3.200000
v 1.100000 0.000000 -3.200000
v 1.016267 -0.420952 -3.200000
v 0.777817 -0.777817 -3.200000
v 0.420952 -1.016267 -3.200000
v 0.000000 -1.100000 -3.200000
v -0.420952 -1.016267 -3.200000
v -0.777817 -0.777817 -3.200000
v -1.016267 -0.420952 -3.200000
v -1.100000 0.000000 -3.200000
v -1.016267 0.420952 -3.200000
v -0.777817 0.777817 -3.200000
v -0.420952 1.016267 -3.200000
v -0.000000 0.000000 -3.200001
vt 0.613318 0.559965
vt 0.588443 0.498889
vt 0.754406 0.466900
vt 0.722418 0.300937
vt 0.788364 0.301328
vt 0.920369 0.434912
vt 0.919977 0.500859
vt 0.659672 0.606873
vt 0.588834 0.432942
vt 0.614433 0.372166
vt 0.894379 0.561635
vt 0.720448 0.632471
vt 0.849141 0.326927
vt 0.895495 0.373836
vt 0.847470 0.607989
vt 0.786394 0.632863
vt 0.661341 0.325811
vt 0.588203 0.434283
vt 0.613801 0.373505
vt 0.753776 0.468241
vt 0.846839 0.609330
vt 0.785764 0.634204
vt 0.612689 0.561307
vt 0.587812 0.500231
vt 0.893747 0.562977
vt 0.660711 0.327150
vt 0.721789 0.302276
vt 0.719818 0.633812
vt 0.659043 0.608214
vt 0.919345 0.502201
vt 0.919738 0.436256
vt 0.848513 0.328270
vt 0.894866 0.375180
vt 0.787736 0.302669
vt 0.263340 0.487533
vt 0.257016 0.013779
vt 0.318632 0.012956
vt 0.324150 0.426278
vt 0.202531 0.548788
vt 0.195399 0.014602
vt 0.141598 0.600843
vt 0.133783 0.015424
vt 0.080439 0.635898
vt 0.072166 0.016247
vt 0.018982 0.648741
vt 0.010550 0.017069
vt 0.500550 0.018119
vt 0.500550 0.623567
vt 0.441491 0.612046
vt 0.441491 0.018119
vt 0.382433 0.579234
vt 0.382433 0.018118
vt 0.323374 0.530129
vt 0.323375 0.018118
vt 0.264316 0.472205
vt 0.264316 0.018118
vt 0.205257 0.414281
vt 0.205257 0.018118
vt 0.146198 0.365176
vt 0.146198 0.018118
vt 0.087140 0.332365
vt 0.087140 0.018118
vt 0.028081 0.320843
vt 0.028081 0.018118
vt 0.503482 0.010488
vt 0.507698 0.326325
vt 0.446242 0.339168
vt 0.441865 0.011311
vt 0.385083 0.374223
vt 0.380249 0.012134
vt 0.268137 0.968822
vt 0.268136 0.508925
vt 0.327951 0.567590
vt 0.327951 0.968822
vt 0.208322 0.968822
vt 0.208322 0.450260
vt 0.148508 0.968822
vt 0.148508 0.400527
vt 0.088694 0.968822
vt 0.088693 0.367296
vt 0.028880 0.968823
vt 0.028879 0.355627
vt 0.509746 0.365025
vt 0.509745 0.976114
vt 0.450136 0.976113
vt 0.450138 0.376654
vt 0.390527 0.976113
vt 0.390529 0.409771
vt 0.330919 0.976113
vt 0.330920 0.459333
vt 0.271310 0.976113
vt 0.271311 0.517796
vt 0.211701 0.976113
vt 0.211702 0.576260
vt 0.152092 0.976112
vt 0.152093 0.625822
vt 0.092484 0.976112
vt 0.092484 0.658939
vt 0.032875 0.976112
vt 0.032876 0.670568
vt 0.507394 0.662224
vt 0.507394 0.968822
vt 0.447580 0.968822
vt 0.447579 0.650555
vt 0.387765 0.968822
vt 0.387765 0.617324
vt 0.880140 0.655075
vt 0.798558 0.688867
vt 0.794411 0.667859
vt 0.868270 0.637253
vt 0.566232 0.592635
vt 0.532439 0.511053
vt 0.553447 0.506906
vt 0.584054 0.580765
vt 0.976373 0.422749
vt 0.976373 0.511053
vt 0.955377 0.506844
vt 0.955365 0.426895
vt 0.942581 0.592635
vt 0.924793 0.580712
vt 0.710254 0.688867
vt 0.714463 0.667872
vt 0.532438 0.422748
vt 0.566230 0.341166
vt 0.584017 0.353089
vt 0.553434 0.426957
vt 0.628671 0.278725
vt 0.640541 0.296547
vt 0.628672 0.655075
vt 0.640595 0.637288
vt 0.880141 0.278725
vt 0.942581 0.341166
vt 0.924759 0.353036
vt 0.868218 0.296512
vt 0.798558 0.244932
vt 0.794350 0.265928
vt 0.710254 0.244932
vt 0.714400 0.265940
vt 0.709626 0.246269
vt 0.797933 0.246272
vt 0.793723 0.267268
vt 0.713772 0.267278
vt 0.879508 0.656415
vt 0.797927 0.690207
vt 0.793780 0.669199
vt 0.867638 0.638593
vt 0.879516 0.280069
vt 0.941953 0.342514
vt 0.924131 0.354383
vt 0.867592 0.297856
vt 0.628044 0.656416
vt 0.565603 0.593978
vt 0.583425 0.582107
vt 0.639966 0.638629
vt 0.709625 0.690207
vt 0.713833 0.669211
vt 0.531807 0.512396
vt 0.531805 0.424090
vt 0.552802 0.428299
vt 0.552816 0.508249
vt 0.565597 0.342505
vt 0.628040 0.280062
vt 0.639911 0.297885
vt 0.583385 0.354428
vt 0.975741 0.424094
vt 0.975740 0.512396
vt 0.954745 0.508187
vt 0.954734 0.428240
vt 0.941948 0.593976
vt 0.924161 0.582053
vn -1.000000 -0.000000 -0.000000
vn -1.000000 0.000001 -0.000000
vn -1.000000 -0.000001 -0.000000
vn 0.000000 0.000000 -1.000000
vn -0.000001 -0.000000 -1.000000
vn 0.000001 -0.000000 -1.000000
vn 0.048982 0.997589 0.048982
vn 0.000000 1.000000 0.000000
vn -0.382683 0.923880 0.000000
vn -0.152257 0.976531 -0.152257
vn 0.248421 0.936216 0.248421
vn 0.382683 0.923879 0.000000
vn 0.452071 0.768914 0.452071
vn 0.707107 0.707107 0.000000
vn 0.630970 0.451369 0.630970
vn 0.923879 0.382683 0.000000
vn 0.707083 0.000000 0.707083
vn 1.000000 0.000000 0.000000
vn 0.630970 -0.451369 0.630970
vn 0.923879 -0.382683 0.000000
vn 0.452071 -0.768914 0.452071
vn 0.707107 -0.707107 0.000000
vn 0.248421 -0.936216 0.248421
vn 0.382683 -0.923879 0.000000
vn 0.048982 -0.997589 0.048982
vn 0.000000 -1.000000 0.000000
vn -0.152257 -0.976531 -0.152257
vn -0.382683 -0.923880 0.000000
vn -0.369274 -0.852779 -0.369274
vn -0.707107 -0.707107 0.000000
vn -0.591876 -0.547105 -0.591876
vn -0.923880 -0.382683 0.000000
vn -0.707083 0.000000 -0.707083
vn -0.591876 0.547105 -0.591876
vn -0.923879 0.382683 0.000000
vn -0.369274 0.852779 -0.369274
vn -0.707107 0.707107 0.000000
vn 0.000000 0.923879 -0.382684
vn -0.000000 0.923880 0.382683
vn -0.000000 0.707107 0.707107
vn -0.000000 0.382683 0.923880
vn -0.000000 0.000000 1.000000
vn -0.000000 -0.382683 0.923880
vn -0.000000 -0.707107 0.707107
vn -0.000000 -0.923879 0.382684
vn 0.000000 -0.923879 -0.382684
vn 0.000000 -0.707107 -0.707107
vn 0.000000 -0.382683 -0.923880
vn 0.000000 0.382683 -0.923880
vn 0.000000 0.707107 -0.707107
vn 0.665700 0.000000 -0.746178
vn 0.665700 0.285531 -0.689383
vn 1.000000 0.000001 0.000000
vn 0.665700 -0.746178 0.000000
vn 0.665700 -0.689383 -0.285531
vn 1.000000 -0.000001 0.000000
vn 0.665700 0.689383 -0.285531
vn 0.665700 0.746178 0.000000
vn 0.665700 0.527635 -0.527635
vn 0.665700 -0.285531 -0.689383
vn 0.665700 -0.527635 0.527635
vn 0.665700 -0.689383 0.285531
vn 0.665700 -0.285531 0.689383
vn 0.665700 -0.527635 -0.527635
vn 0.665700 0.689383 0.285531
vn 0.665700 0.527635 0.527635
vn 0.665700 0.285531 0.689383
vn 0.665700 0.000000 0.746178
vn 0.000000 -0.923880 0.382683
vn 0.000000 -0.923880 -0.382684
vn 0.000000 0.923880 -0.382684
vn 0.000001 0.000000 1.000000
vn 0.527635 0.527635 0.665700
vn 0.285531 0.689383 0.665700
vn -0.285531 -0.689383 0.665700
vn 0.000000 -0.746178 0.665700
vn -0.000003 0.000000 1.000000
vn 0.746178 0.000000 0.665700
vn 0.689383 0.285531 0.665700
vn 0.000003 0.000000 1.000000
vn -0.746178 0.000000 0.665700
vn -0.689383 -0.285531 0.665700
vn -0.000001 0.000000 1.000000
vn -0.527635 -0.527635 0.665700
vn -0.527635 0.527635 0.665700
vn -0.689383 0.285531 0.665700
vn 0.000000 0.746178 0.665700
vn -0.285531 0.689383 0.665700
vn 0.527635 -0.527635 0.665700
vn 0.689383 -0.285531 0.665700
vn 0.285531 -0.689383 0.665700
vn 0.923880 -0.382683 0.000000
vn -0.923880 0.382683 0.000000
vn 0.923880 0.382683 0.000000
vn 0.382683 0.923880 0.000000
vn 0.382683 -0.923880 0.000000
usemtl SpiderbotCopper
s off
f 74/1/1 73/2/1 81/3/1
f 69/4/1 68/5/1 81/3/1
f 65/6/2 80/7/2 81/3/2
f 75/8/3 74/1/3 81/3/3
f 72/9/3 71/10/3 81/3/3
f 80/7/2 79/11/2 81/3/2
f 76/12/2 75/8/2 81/3/2
f 67/13/2 66/14/2 81/3/2
f 68/5/1 67/13/1 81/3/1
f 66/14/1 65/6/1 81/3/1
f 78/15/2 77/16/2 81/3/2
f 70/17/1 69/4/1 81/3/1
f 79/11/3 78/15/3 81/3/3
f 73/2/1 72/9/1 81/3/1
f 77/16/3 76/12/3 81/3/3
f 71/10/1 70/17/1 81/3/1
f 112/18/4 113/19/4 114/20/4
f 106/21/4 107/22/4 114/20/4
f 110/23/4 111/24/4 114/20/4
f 105/25/4 106/21/4 114/20/4
f 98/26/4 99/27/4 114/20/4
f 108/28/5 109/29/5 114/20/5
f 113/19/4 98/26/4 114/20/4
f 104/30/4 105/25/4 114/20/4
f 103/31/6 104/30/6 114/20/6
f 111/24/5 112/18/5 114/20/5
f 101/32/4 102/33/4 114/20/4
f 109/29/4 110/23/4 114/20/4
f 102/33/4 103/31/4 114/20/4
f 107/22/4 108/28/4 114/20/4
f 99/27/4 100/34/4 114/20/4
f 100/34/6 101/32/6 114/20/6
s 1
f 17/35/7 1/36/8 16/37/9 32/38/10
f 1/36/8 17/35/7 18/39/11 2/40/12
f 2/40/12 18/39/11 19/41/13 3/42/14
f 3/42/14 19/41/13 20/43/15 4/44/16
f 4/44/16 20/43/15 21/45/17 5/46/18
f 5/47/18 21/48/17 22/49/19 6/50/20
f 6/50/20 22/49/19 23/51/21 7/52/22
f 7/52/22 23/51/21 24/53/23 8/54/24
f 8/54/24 24/53/23 25/55/25 9/56/26
f 9/56/26 25/55/25 26/57/27 10/58/28
f 10/58/28 26/57/27 27/59/29 11/60/30
f 11/60/30 27/59/29 28/61/31 12/62/32
f 12/62/32 28/61/31 29/63/33 13/64/1
f 13/65/1 29/66/33 30/67/34 14/68/35
f 14/68/35 30/67/34 31/69/36 15/70/37
f 15/70/37 31/69/36 32/38/10 16/37/9
f 33/71/8 17/72/7 32/73/10 48/74/38
f 17/72/7 33/71/8 34/75/39 18/76/11
f 18/76/11 34/75/39 35/77/40 19/78/13
f 19/78/13 35/77/40 36/79/41 20/80/15
f 20/80/15 36/79/41 37/81/42 21/82/17
f 21/83/17 37/84/42 38/85/43 22/86/19
f 22/86/19 38/85/43 39/87/44 23/88/21
f 23/88/21 39/87/44 40/89/45 24/90/23
f 24/90/23 40/89/45 41/91/26 25/92/25
f 25/92/25 41/91/26 42/93/46 26/94/27
f 26/94/27 42/93/46 43/95/47 27/96/29
f 27/96/29 43/95/47 44/97/48 28/98/31
f 28/98/31 44/97/48 45/99/4 29/100/33
f 29/101/33 45/102/4 46/103/49 30/104/34
f 30/104/34 46/103/49 47/105/50 31/106/36
f 31/106/36 47/105/50 48/74/38 32/73/10
f 46/107/18 45/108/18 61/109/51 62/110/52
f 42/111/18 41/112/53 57/113/54 58/114/55
f 33/115/56 48/116/53 64/117/57 49/118/58
f 48/116/53 47/119/53 63/120/59 64/117/57
f 45/108/18 44/121/18 60/122/60 61/109/51
f 40/123/53 39/124/18 55/125/61 56/126/62
f 39/124/18 38/127/18 54/128/63 55/125/61
f 47/119/53 46/107/18 62/110/52 63/120/59
f 43/129/18 42/111/18 58/114/55 59/130/64
f 35/131/53 34/132/18 50/133/65 51/134/66
f 36/135/18 35/131/53 51/134/66 52/136/67
f 38/127/18 37/137/18 53/138/68 54/128/63
f 34/132/18 33/115/56 49/118/58 50/133/65
f 41/112/53 40/123/53 56/126/62 57/113/54
f 44/121/18 43/129/18 59/130/64 60/122/60
f 37/137/18 36/135/18 52/136/67 53/138/68
f 50/133/65 49/118/58 65/6/8 66/14/39
f 62/110/52 61/109/51 77/16/4 78/15/49
f 54/128/63 53/138/68 69/4/42 70/17/43
f 63/120/59 62/110/52 78/15/49 79/11/50
f 57/113/54 56/126/62 72/9/69 73/2/26
f 61/109/51 60/122/60 76/12/48 77/16/4
f 55/125/61 54/128/63 70/17/43 71/10/44
f 58/114/55 57/113/54 73/2/26 74/1/70
f 53/138/68 52/136/67 68/5/41 69/4/42
f 49/118/58 64/117/57 80/7/71 65/6/8
f 59/130/64 58/114/55 74/1/70 75/8/47
f 56/126/62 55/125/61 71/10/44 72/9/69
f 64/117/57 63/120/59 79/11/50 80/7/71
f 60/122/60 59/130/64 75/8/47 76/12/48
f 51/134/66 50/133/65 66/14/39 67/13/40
f 52/136/67 51/134/66 67/13/40 68/5/41
f 2/139/42 3/140/72 84/141/73 83/142/74
f 9/143/42 10/144/42 91/145/75 90/146/76
f 4/147/42 5/148/77 86/149/78 85/150/79
f 12/151/42 13/152/80 94/153/81 93/154/82
f 10/144/42 11/155/83 92/156/84 91/145/75
f 14/157/72 15/158/42 96/159/85 95/160/86
f 16/161/42 1/162/42 82/163/87 97/164/88
f 6/165/83 7/166/42 88/167/89 87/168/90
f 7/166/42 8/169/42 89/170/91 88/167/89
f 13/152/80 14/157/72 95/160/86 94/153/81
f 8/169/42 9/143/42 90/146/76 89/170/91
f 3/140/72 4/147/42 85/150/79 84/141/73
f 5/148/77 6/165/83 87/168/90 86/149/78
f 1/162/42 2/139/42 83/142/74 82/163/87
f 15/158/42 16/161/42 97/164/88 96/159/85
f 11/155/83 12/151/42 93/154/82 92/156/84
f 87/168/90 88/167/89 104/30/22 103/31/92
f 95/160/86 96/159/85 112/18/37 111/24/93
f 85/150/79 86/149/78 102/33/18 101/32/94
f 93/154/82 94/153/81 110/23/1 109/29/32
f 86/149/78 87/168/90 103/31/92 102/33/18
f 91/145/75 92/156/84 108/28/30 107/22/28
f 83/142/74 84/141/73 100/34/14 99/27/95
f 84/141/73 85/150/79 101/32/94 100/34/14
f 96/159/85 97/164/88 113/19/9 112/18/37
f 90/146/76 91/145/75 107/22/28 106/21/26
f 94/153/81 95/160/86 111/24/93 110/23/1
f 89/170/91 90/146/76 106/21/26 105/25/96
f 82/163/87 83/142/74 99/27/95 98/26/8
f 92/156/84 93/154/82 109/29/32 108/28/30
f 97/164/88 82/163/87 98/26/8 113/19/9
f 88/167/89 89/170/91 105/25/96 104/30/22
