# Blender v2.70 (sub 0) OBJ File: 'roof.blend'
# www.blender.org
mtllib roof.mtl
o Roof_roof
v -7.726966 -0.000016 9.259534
v -7.726966 -0.000016 9.000001
v -7.726971 2.612085 9.000000
v -7.982226 -0.000017 9.454112
v -8.016067 -0.000017 9.000001
v -7.982242 7.999983 9.454110
v -8.344383 7.999982 9.280688
v -8.344378 5.604430 9.280689
v -7.726982 7.999983 9.259532
v -7.726982 7.999983 8.999999
v -8.016071 2.612084 9.000000
v -1.810078 7.999995 12.242077
v -1.869240 7.999995 12.516624
v -0.000008 7.999999 12.837570
v -4.062653 2.612094 11.860418
v -4.062648 -0.000008 11.860419
v -4.195437 -0.000008 12.117220
v -4.195452 7.999991 12.117217
v -7.982237 5.604430 9.454111
v -4.062663 7.999992 11.860416
v -8.618553 7.999981 9.059536
v -8.618548 5.604429 9.059537
v -8.313910 -0.000018 9.000001
v -8.313915 2.612084 9.000000
v -8.016082 7.999983 8.999999
v -8.313926 7.999982 8.999999
v -8.344368 -0.000018 9.280690
v -9.109756 7.999981 8.383631
v -9.109752 5.604428 8.383632
v -8.453289 -0.000018 8.883574
v -8.453304 7.999982 8.883572
v -8.618538 -0.000018 9.059538
v -8.883654 7.999981 8.302910
v -8.883649 5.604428 8.302911
v -8.453294 2.612083 8.883573
v -8.883638 -0.000019 8.302912
v -9.109741 -0.000019 8.383633
v -1.810067 2.612098 12.242079
v -1.869230 2.612098 12.516627
v 0.000003 2.612101 12.837572
v -1.869225 -0.000004 12.516628
v 0.000008 0.000000 12.837573
v -1.810062 -0.000004 12.242081
v 0.000008 0.000000 12.548765
v -0.000008 7.999999 12.548762
v -0.000003 5.604447 12.548763
v -7.726977 5.604431 9.259533
v -7.726977 5.604431 9.000000
v -7.726971 2.612085 9.259533
v -7.982231 2.612084 9.454111
v -8.344373 2.612084 9.280689
v -8.016077 5.604430 9.000000
v -4.062659 5.604439 11.860417
v -4.195442 2.612094 12.117219
v -4.195447 5.604439 12.117218
v -8.618543 2.612083 9.059537
v -8.313921 5.604430 9.000000
v -9.109746 2.612082 8.383632
v -8.453300 5.604429 8.883573
v -8.883643 2.612082 8.302911
v -1.810073 5.604444 12.242078
v -1.869235 5.604444 12.516626
v -0.000003 5.604447 12.837572
v 0.000003 2.612101 12.548763
v 7.726977 2.612116 9.000000
v 7.726982 0.000014 9.000001
v 7.726982 0.000014 9.259534
v 8.016082 0.000015 9.000001
v 7.982242 0.000015 9.454112
v 7.982231 5.604463 9.454111
v 8.344373 5.604464 9.280689
v 8.344368 8.000015 9.280688
v 7.982226 8.000014 9.454110
v 8.016067 8.000015 8.999999
v 7.726966 8.000013 8.999999
v 8.016077 2.612116 9.000000
v 1.810062 8.000003 12.242077
v 4.062659 2.612110 11.860418
v 7.726977 2.612116 9.259533
v 4.062664 0.000009 11.860419
v 4.195436 8.000009 12.117217
v 7.726966 8.000013 9.259532
v 4.062647 8.000008 11.860416
v 8.618543 5.604464 9.059537
v 8.618538 8.000015 9.059536
v 8.313921 2.612117 9.000000
v 8.313926 0.000016 9.000001
v 8.313910 8.000015 8.999999
v 8.344383 0.000016 9.280690
v 9.109746 5.604465 8.383632
v 9.109741 8.000017 8.383631
v 8.453300 2.612117 8.883573
v 8.453304 0.000016 8.883574
v 8.453289 8.000015 8.883572
v 8.618553 0.000016 9.059538
v 8.883643 5.604464 8.302911
v 8.883638 8.000016 8.302910
v 8.883649 2.612118 8.302911
v 8.883654 0.000017 8.302912
v 9.109756 0.000017 8.383633
v 1.810073 2.612104 12.242079
v 1.869236 2.612106 12.516627
v 1.810078 0.000003 12.242081
v 1.810067 5.604450 12.242078
v 7.726971 5.604462 9.000000
v 7.726971 5.604462 9.259533
v 8.344378 2.612117 9.280689
v 7.982237 2.612117 9.454111
v 8.016071 5.604463 9.000000
v 4.195448 2.612110 12.117219
v 4.195441 5.604455 12.117218
v 8.618548 2.612118 9.059537
v 8.313915 5.604463 9.000000
v 9.109752 2.612119 8.383632
v 8.453294 5.604464 8.883573
v 1.869229 5.604450 12.516626
v 1.869224 8.000003 12.516624
v 1.869241 0.000004 12.516628
v 4.195453 0.000009 12.117220
v 4.062653 5.604455 11.860417
v 7.726974 0.000001 9.259534
v 7.726974 0.000001 9.000001
v 7.726974 -2.612101 9.000000
v 7.982234 0.000001 9.454112
v 8.016074 0.000001 9.000001
v 7.982234 -7.999999 9.454110
v 8.344376 -7.999999 9.280688
v 8.344376 -5.604446 9.280689
v 7.726974 -7.999999 9.259532
v 7.726974 -7.999999 8.999999
v 8.016074 -2.612101 9.000000
v 1.810070 -7.999999 12.242077
v 1.869232 -7.999999 12.516624
v 0.000000 -7.999999 12.837570
v 4.062656 -2.612102 11.860418
v 4.062656 -0.000000 11.860419
v 4.195445 -0.000000 12.117220
v 4.195444 -8.000000 12.117217
v 7.982234 -5.604446 9.454111
v 4.062655 -8.000000 11.860416
v 8.618546 -7.999999 9.059536
v 8.618546 -5.604446 9.059537
v 8.313918 0.000001 9.000001
v 8.313918 -2.612101 9.000000
v 8.016074 -7.999999 8.999999
v 8.313918 -7.999999 8.999999
v 8.344376 0.000001 9.280690
v 9.109749 -7.999999 8.383631
v 9.109749 -5.604446 8.383632
v 8.453297 0.000001 8.883574
v 8.453297 -7.999999 8.883572
v 8.618546 0.000001 9.059538
v 8.883646 -7.999999 8.302910
v 8.883646 -5.604446 8.302911
v 8.453297 -2.612101 8.883573
v 8.883646 0.000001 8.302912
v 9.109749 0.000001 8.383633
v 1.810070 -2.612101 12.242079
v 1.869233 -2.612102 12.516627
v 0.000000 -2.612101 12.837572
v 1.869233 0.000000 12.516628
v 0.000000 0.000000 12.837573
v 1.810070 0.000000 12.242081
v 0.000000 0.000000 12.548765
v 0.000000 -7.999999 12.548762
v 0.000000 -5.604447 12.548763
v 7.726974 -5.604446 9.259533
v 7.726974 -5.604446 9.000000
v 7.726974 -2.612101 9.259533
v 7.982234 -2.612101 9.454111
v 8.344376 -2.612101 9.280689
v 8.016074 -5.604446 9.000000
v 4.062656 -5.604447 11.860417
v 4.195445 -2.612102 12.117219
v 4.195444 -5.604447 12.117218
v 8.618546 -2.612101 9.059537
v 8.313918 -5.604446 9.000000
v 9.109749 -2.612100 8.383632
v 8.453297 -5.604446 8.883573
v 8.883646 -2.612100 8.302911
v 1.810070 -5.604447 12.242078
v 1.869232 -5.604447 12.516626
v 0.000000 -5.604447 12.837572
v 0.000000 -2.612101 12.548763
v -7.726974 -2.612101 9.000000
v -7.726974 0.000001 9.000001
v -7.726974 0.000001 9.259534
v -8.016074 0.000001 9.000001
v -7.982234 0.000001 9.454112
v -7.982234 -5.604446 9.454111
v -8.344376 -5.604446 9.280689
v -8.344376 -7.999999 9.280688
v -7.982234 -7.999999 9.454110
v -8.016074 -7.999999 8.999999
v -7.726974 -7.999999 8.999999
v -8.016074 -2.612101 9.000000
v -1.810070 -7.999999 12.242077
v -4.062656 -2.612102 11.860418
v -7.726974 -2.612101 9.259533
v -4.062656 -0.000000 11.860419
v -4.195444 -8.000000 12.117217
v -7.726974 -7.999999 9.259532
v -4.062655 -8.000000 11.860416
v -8.618546 -5.604446 9.059537
v -8.618546 -7.999999 9.059536
v -8.313918 -2.612101 9.000000
v -8.313918 0.000001 9.000001
v -8.313918 -7.999999 8.999999
v -8.344376 0.000001 9.280690
v -9.109749 -5.604446 8.383632
v -9.109749 -7.999999 8.383631
v -8.453297 -2.612101 8.883573
v -8.453297 0.000001 8.883574
v -8.453297 -7.999999 8.883572
v -8.618546 0.000001 9.059538
v -8.883646 -5.604446 8.302911
v -8.883646 -7.999999 8.302910
v -8.883646 -2.612100 8.302911
v -8.883646 0.000001 8.302912
v -9.109749 0.000001 8.383633
v -1.810070 -2.612101 12.242079
v -1.869233 -2.612102 12.516627
v -1.810070 0.000000 12.242081
v -1.810070 -5.604447 12.242078
v -7.726974 -5.604446 9.000000
v -7.726974 -5.604446 9.259533
v -8.344376 -2.612101 9.280689
v -7.982234 -2.612101 9.454111
v -8.016074 -5.604446 9.000000
v -4.195445 -2.612102 12.117219
v -4.195444 -5.604447 12.117218
v -8.618546 -2.612101 9.059537
v -8.313918 -5.604446 9.000000
v -9.109749 -2.612100 8.383632
v -8.453297 -5.604446 8.883573
v -1.869232 -5.604447 12.516626
v -1.869232 -7.999999 12.516624
v -1.869233 0.000000 12.516628
v -4.195445 -0.000000 12.117220
v -4.062656 -5.604447 11.860417
vt 0.953671 0.520265
vt 0.932016 0.520610
vt 0.941160 0.505853
vt 0.952320 0.505484
vt 0.549434 0.637271
vt 0.567100 0.637271
vt 0.567100 0.488767
vt 0.549434 0.488767
vt 0.880987 0.573954
vt 0.740532 0.573653
vt 0.741261 0.590903
vt 0.886362 0.590894
vt 0.250378 0.488767
vt 0.114870 0.488767
vt 0.114870 0.637271
vt 0.250378 0.637271
vt 0.620738 0.637271
vt 0.577871 0.637271
vt 0.577871 0.488767
vt 0.620738 0.488767
vt 0.516894 0.637271
vt 0.516894 0.488767
vt 0.532287 0.488767
vt 0.532287 0.637271
vt 0.565689 0.487807
vt 0.565687 0.333880
vt 0.587343 0.333880
vt 0.587343 0.487807
vt 0.250378 0.814751
vt 0.516894 0.814750
vt 0.880988 0.572808
vt 0.886362 0.555868
vt 0.741261 0.555868
vt 0.740534 0.573118
vt 0.567100 0.814750
vt 0.567100 0.996201
vt 0.577872 0.996201
vt 0.577872 0.814750
vt 0.256399 0.149920
vt 0.256399 0.333880
vt 0.111298 0.333880
vt 0.111299 0.149919
vt 0.114870 0.814751
vt 0.114870 0.996201
vt 0.005983 0.814750
vt 0.005983 0.996201
vt 0.620738 0.814750
vt 0.620738 0.996201
vt 0.940841 0.535624
vt 0.951955 0.536696
vt 0.954234 0.522032
vt 0.932647 0.520322
vt 0.111299 -0.004007
vt -0.005296 -0.004007
vt -0.005298 0.149919
vt 0.256400 -0.004007
vt 0.623664 0.501118
vt 0.907906 0.515314
vt 0.902897 0.496229
vt 0.626944 0.483651
vt 0.541004 -0.004006
vt 0.541004 0.149920
vt 0.565688 -0.004006
vt 0.565687 0.149920
vt 0.898008 0.982397
vt 0.898004 0.967638
vt 0.744079 0.967671
vt 0.744081 0.982430
vt 0.560120 0.967675
vt 0.560120 0.982435
vt 0.406190 0.982424
vt 0.406191 0.967665
vt 0.623670 0.520322
vt 0.625842 0.537963
vt 0.902049 0.542818
vt 0.908252 0.524087
vt 0.111298 0.487807
vt -0.005299 0.333880
vt -0.005299 0.487807
vt 0.297080 0.984841
vt 0.297080 0.967575
vt 0.113118 0.967575
vt 0.113118 0.984840
vt 0.541004 0.487807
vt 0.541004 0.333880
vt 0.926725 0.494587
vt 0.409834 0.989850
vt 0.413573 0.972493
vt 0.995151 0.493624
vt 1.003056 0.506091
vt 0.925725 0.545958
vt 0.565688 0.149920
vt 0.912715 0.483651
vt 0.532287 0.814750
vt 0.549434 0.814750
vt 0.627670 0.573405
vt 0.624665 0.590903
vt 0.005983 0.488767
vt 0.005983 0.637271
vt 0.587343 0.149920
vt 0.516895 0.996201
vt 0.532287 0.996201
vt 0.000365 0.989850
vt -0.003374 0.972493
vt 0.587343 -0.004006
vt 0.638710 0.487806
vt 0.638710 0.333880
vt 0.256399 0.487807
vt 0.993942 0.551230
vt 1.002615 0.539287
vt 0.250378 0.996201
vt 0.624665 0.555874
vt 0.627671 0.573372
vt 0.638709 0.149920
vt 0.549435 0.996201
vt 0.638709 -0.004006
vt 0.911054 0.555990
vn -0.000003 1.000000 0.000000
vn 0.000001 -0.000000 -1.000000
vn -0.000002 1.000000 0.000003
vn -0.167052 -0.000001 -0.985948
vn 0.803405 0.000001 -0.595433
vn 1.000000 0.000002 0.000000
vn -0.627833 -0.000001 0.778348
vn 0.578807 0.000001 -0.815465
vn 0.000002 -1.000000 0.000001
vn -0.641094 -0.000001 -0.767462
vn -0.169223 0.000000 0.985578
vn -0.167051 -0.000001 -0.985948
vn -0.803405 -0.000002 -0.595433
vn -0.578806 -0.000001 -0.815465
vn 0.000002 -1.000000 -0.000001
vn 0.169223 0.000001 0.985578
vn 0.169222 0.000001 0.985578
vn -0.000003 1.000000 -0.000003
vn -0.575252 -0.000001 0.817976
vn -0.641088 -0.000001 -0.767467
vn -0.431910 -0.000001 0.901917
vn 0.336223 0.000000 -0.941782
vn 0.336225 0.000001 -0.941782
vn -0.336225 -0.000001 -0.941782
vn 0.000002 -1.000000 0.000000
vn -0.977560 -0.000002 0.210655
vn -0.336223 -0.000001 -0.941782
vn -0.431908 -0.000000 0.901917
vn -0.000001 1.000000 -0.000000
vn -0.431909 -0.000001 0.901917
vn -0.000002 1.000000 -0.000001
vn -0.000002 1.000000 0.000000
vn 0.578806 0.000001 -0.815465
vn 0.431909 0.000001 0.901917
vn 0.000000 1.000000 -0.000002
vn -0.000002 0.000000 -1.000000
vn -0.000003 1.000000 -0.000002
vn -1.000000 -0.000002 0.000000
vn -0.000002 1.000000 0.000001
vn 0.000000 -0.000000 -1.000000
vn 0.803405 0.000002 -0.595432
vn -0.627835 -0.000001 0.778346
vn -0.578806 -0.000002 -0.815465
vn 0.808944 0.000002 0.587886
vn 0.336224 0.000000 -0.941782
vn 0.167052 -0.000000 -0.985948
vn 0.000003 -0.000000 -1.000000
vn 0.000001 -1.000000 -0.000000
vn -0.808943 -0.000002 0.587886
vn 0.627834 0.000001 0.778347
vn -0.808943 -0.000001 0.587887
vn -0.000001 -0.000000 -1.000000
vn 0.641093 0.000001 -0.767463
vn 0.167051 0.000000 -0.985948
vn -0.641086 -0.000002 -0.767469
vn 0.808943 0.000002 0.587886
vn 0.641088 0.000001 -0.767467
vn 0.641089 0.000001 -0.767467
vn -0.169222 0.000000 0.985578
vn 0.575252 0.000001 0.817976
vn -0.000006 1.000000 0.000002
vn -0.169221 0.000000 0.985578
vn -0.000002 1.000000 0.000002
vn 0.000003 -1.000000 0.000001
vn 0.977560 0.000002 0.210655
vn -0.803405 -0.000002 -0.595432
vn -0.000003 1.000000 0.000002
vn 0.627835 0.000002 0.778346
vn 0.575252 0.000002 0.817976
vn 0.000003 -1.000000 0.000000
vn 0.000000 -1.000000 0.000000
vn 0.000000 -1.000000 0.000003
vn 0.167052 0.000001 -0.985948
vn -0.803405 0.000000 -0.595433
vn -1.000000 -0.000000 0.000000
vn 0.627833 -0.000000 0.778348
vn -0.578807 0.000000 -0.815465
vn -0.000000 1.000000 0.000001
vn 0.641092 0.000000 -0.767464
vn 0.169223 -0.000000 0.985578
vn -0.803405 0.000000 -0.595432
vn 0.803405 0.000000 -0.595432
vn 0.578807 0.000000 -0.815465
vn 0.000000 1.000000 0.000000
vn -0.169223 -0.000001 0.985578
vn -0.169222 -0.000001 0.985578
vn 0.575252 -0.000000 0.817976
vn 0.641089 0.000000 -0.767467
vn 0.431909 -0.000000 0.901917
vn -0.336223 0.000000 -0.941782
vn -0.336225 0.000000 -0.941782
vn 0.336228 0.000000 -0.941781
vn 0.977560 0.000000 0.210655
vn 0.336225 0.000000 -0.941782
vn -0.000001 -1.000000 -0.000002
vn 0.803405 0.000000 -0.595433
vn 0.000000 -1.000000 -0.000001
vn -0.578806 0.000000 -0.815465
vn -0.431909 0.000000 0.901917
vn 0.167051 0.000001 -0.985948
vn 0.627834 0.000000 0.778347
vn 0.000001 -1.000000 -0.000002
vn 1.000000 0.000000 0.000000
vn 0.627835 -0.000000 0.778346
vn -0.000000 -1.000000 0.000002
vn 0.578806 0.000000 -0.815465
vn -0.808943 -0.000000 0.587887
vn -0.336228 0.000000 -0.941781
vn -0.167052 0.000000 -0.985948
vn 0.808943 0.000000 0.587886
vn -0.627834 0.000000 0.778347
vn 0.808943 -0.000000 0.587887
vn -0.641092 0.000000 -0.767464
vn -0.167051 0.000000 -0.985948
vn 0.169223 -0.000001 0.985578
vn -0.627833 -0.000000 0.778348
vn 0.641088 0.000000 -0.767467
vn -0.641088 0.000000 -0.767467
vn -0.641089 0.000000 -0.767467
vn 0.169222 -0.000001 0.985578
vn -0.575252 -0.000000 0.817976
vn 0.169222 -0.000000 0.985578
vn -0.167052 0.000001 -0.985948
vn -0.578806 0.000001 -0.815465
vn -0.977560 0.000000 0.210655
vn -0.167051 0.000001 -0.985948
vn -0.808943 0.000000 0.587886
vn -0.627835 -0.000000 0.778346
usemtl FactoryRoof
s off
f 21/1/1 7/2/1 26/3/1 31/4/1
f 76/5/2 86/6/2 87/7/2 68/8/2
f 83/9/3 77/10/3 117/11/3 81/12/3
f 80/13/4 103/14/4 101/15/4 78/16/4
f 60/17/5 35/18/5 30/19/5 36/20/5
f 49/21/6 1/22/6 2/23/6 3/24/6
f 27/25/7 51/26/7 56/27/7 32/28/7
f 53/29/8 15/16/8 49/21/8 47/30/8
f 80/31/9 119/32/9 118/33/9 103/34/9
f 113/35/10 88/36/10 94/37/10 115/38/10
f 55/39/11 54/40/11 39/41/11 62/42/11
f 78/16/12 101/15/12 104/43/12 120/29/12
f 77/44/4 104/43/4 46/45/4 45/46/4
f 31/37/5 59/38/5 34/47/5 33/48/5
f 94/37/13 97/48/13 96/47/13 115/38/13
f 120/29/14 106/30/14 79/21/14 78/16/14
f 87/49/15 93/50/15 95/51/15 89/52/15
f 116/42/16 117/53/16 14/54/16 63/55/16
f 111/39/17 81/56/17 117/53/17 116/42/17
f 81/57/18 73/58/18 82/59/18 83/60/18
f 55/39/19 18/56/19 6/61/19 19/62/19
f 113/35/20 115/38/20 92/18/20 86/6/20
f 19/62/21 6/61/21 7/63/21 8/64/21
f 100/65/22 99/66/22 98/67/22 114/68/22
f 114/68/23 98/67/23 96/69/23 90/70/23
f 29/70/24 28/71/24 33/72/24 34/69/24
f 119/73/25 80/74/25 67/75/25 69/76/25
f 118/77/17 102/41/17 40/78/17 42/79/17
f 101/80/26 102/81/26 116/82/26 104/83/26
f 37/65/27 58/68/27 60/67/27 36/66/27
f 4/84/28 50/85/28 51/26/28 27/25/28
f 58/68/24 29/70/24 34/69/24 60/67/24
f 74/86/29 73/58/29 72/2/29 88/3/29
f 50/85/30 19/62/30 8/64/30 51/26/30
f 64/87/31 38/80/31 39/81/31 40/88/31
f 93/19/13 92/18/13 98/17/13 99/20/13
f 21/1/32 31/4/32 33/89/32 28/90/32
f 1/22/33 49/21/33 15/16/33 16/13/33
f 5/91/9 4/76/9 27/52/9 23/49/9
f 108/85/34 107/26/34 71/92/34 70/62/34
f 25/86/35 6/58/35 9/59/35 10/93/35
f 105/94/36 109/95/36 76/5/36 65/24/36
f 117/11/32 77/10/32 45/96/32 14/97/32
f 103/14/12 44/98/12 64/99/12 101/15/12
f 51/26/7 8/64/7 22/100/7 56/27/7
f 41/33/9 17/32/9 16/31/9 43/34/9
f 102/81/37 101/80/37 64/87/37 40/88/37
f 82/101/38 75/102/38 105/94/38 106/30/38
f 18/57/39 20/60/39 9/59/39 6/58/39
f 11/5/40 5/8/40 23/7/40 24/6/40
f 62/82/25 61/83/25 46/103/25 63/104/25
f 69/84/34 89/25/34 107/26/34 108/85/34
f 1/75/25 16/74/25 17/73/25 4/76/25
f 34/47/41 59/38/41 35/18/41 60/17/41
f 8/64/42 7/63/42 21/105/42 22/100/42
f 20/9/31 18/12/31 13/11/31 12/10/31
f 80/13/43 78/16/43 79/21/43 67/22/43
f 95/28/44 100/106/44 114/107/44 112/27/44
f 110/40/17 111/39/17 116/42/17 102/41/17
f 85/1/1 91/90/1 97/89/1 94/4/1
f 90/70/45 96/69/45 97/72/45 91/71/45
f 61/43/46 12/44/46 45/46/46 46/45/46
f 17/108/19 54/40/19 50/85/19 4/84/19
f 3/24/47 2/23/47 5/8/47 11/5/47
f 95/51/48 93/50/48 99/109/48 100/110/48
f 120/29/43 83/111/43 82/101/43 106/30/43
f 118/33/9 42/112/9 44/113/9 103/34/9
f 56/27/49 22/100/49 29/114/49 58/107/49
f 79/21/38 65/24/38 66/23/38 67/22/38
f 10/102/40 48/94/40 52/95/40 25/115/40
f 25/115/47 52/95/47 57/35/47 26/36/47
f 75/102/2 74/115/2 109/95/2 105/94/2
f 71/92/50 107/26/50 112/27/50 84/100/50
f 36/109/25 30/50/25 32/51/25 37/110/25
f 46/103/25 104/83/25 116/82/25 63/104/25
f 32/28/51 56/27/51 58/107/51 37/106/51
f 119/108/16 110/40/16 102/41/16 118/77/16
f 52/95/40 11/5/40 24/6/40 57/35/40
f 68/91/48 87/49/48 89/52/48 69/76/48
f 65/24/52 76/5/52 68/8/52 66/23/52
f 109/95/2 113/35/2 86/6/2 76/5/2
f 54/40/11 17/108/11 41/77/11 39/41/11
f 54/40/19 55/39/19 19/62/19 50/85/19
f 48/94/36 3/24/36 11/5/36 52/95/36
f 31/37/53 26/36/53 57/35/53 59/38/53
f 15/16/54 53/29/54 61/43/54 38/15/54
f 23/49/48 27/52/48 32/51/48 30/50/48
f 53/29/54 20/111/54 12/44/54 61/43/54
f 14/54/11 13/53/11 62/42/11 63/55/11
f 89/25/50 95/28/50 112/27/50 107/26/50
f 87/7/55 86/6/55 92/18/55 93/19/55
f 9/101/6 47/30/6 48/94/6 10/102/6
f 84/100/56 90/114/56 91/116/56 85/105/56
f 22/100/51 21/105/51 28/116/51 29/114/51
f 35/18/57 24/6/57 23/7/57 30/19/57
f 57/35/58 24/6/58 35/18/58 59/38/58
f 106/30/38 105/94/38 65/24/38 79/21/38
f 18/56/59 55/39/59 62/42/59 13/53/59
f 47/30/6 49/21/6 3/24/6 48/94/6
f 119/108/60 69/84/60 108/85/60 110/40/60
f 82/59/61 73/58/61 74/86/61 75/93/61
f 88/3/35 72/2/35 85/1/35 94/4/35
f 40/78/62 39/41/62 41/77/62 42/79/62
f 45/96/63 12/10/63 13/11/63 14/97/63
f 43/14/46 16/13/46 15/16/46 38/15/46
f 9/101/33 20/111/33 53/29/33 47/30/33
f 120/29/12 104/43/12 77/44/12 83/111/12
f 73/61/34 70/62/34 71/92/34 72/63/34
f 1/75/64 4/76/64 5/91/64 2/117/64
f 38/80/65 61/83/65 62/82/65 39/81/65
f 92/18/66 115/38/66 96/47/66 98/17/66
f 41/33/9 43/34/9 44/113/9 42/112/9
f 43/14/54 38/15/54 64/99/54 44/98/54
f 7/2/67 6/58/67 25/86/67 26/3/67
f 112/27/44 114/107/44 90/114/44 84/100/44
f 71/92/68 84/100/68 85/105/68 72/63/68
f 111/39/69 70/62/69 73/61/69 81/56/69
f 67/75/70 66/117/70 68/91/70 69/76/70
f 74/115/40 88/36/40 113/35/40 109/95/40
f 110/40/60 108/85/60 70/62/60 111/39/60
f 141/1/71 127/2/71 146/3/71 151/4/71
f 196/5/40 206/6/40 207/7/40 188/8/40
f 203/9/72 197/10/72 237/11/72 201/12/72
f 200/13/73 223/14/73 221/15/73 198/16/73
f 180/17/74 155/18/74 150/19/74 156/20/74
f 169/21/75 121/22/75 122/23/75 123/24/75
f 147/25/76 171/26/76 176/27/76 152/28/76
f 173/29/77 135/16/77 169/21/77 167/30/77
f 200/31/78 239/32/78 238/33/78 223/34/78
f 233/35/79 208/36/79 214/37/79 235/38/79
f 175/39/80 174/40/80 159/41/80 182/42/80
f 198/16/54 221/15/54 224/43/54 240/29/54
f 197/44/46 224/43/46 166/45/46 165/46/46
f 151/37/81 179/38/81 154/47/81 153/48/81
f 214/37/82 217/48/82 216/47/82 235/38/82
f 240/29/83 226/30/83 199/21/83 198/16/83
f 207/49/84 213/50/84 215/51/84 209/52/84
f 236/42/85 237/53/85 134/54/85 183/55/85
f 231/39/86 201/56/86 237/53/86 236/42/86
f 201/57/71 193/58/71 202/59/71 203/60/71
f 175/39/87 138/56/87 126/61/87 139/62/87
f 233/35/88 235/38/88 212/18/88 206/6/88
f 139/62/89 126/61/89 127/63/89 128/64/89
f 220/65/90 219/66/90 218/67/90 234/68/90
f 234/68/91 218/67/91 216/69/91 210/70/91
f 149/70/92 148/71/92 153/72/92 154/69/92
f 239/73/84 200/74/84 187/75/84 189/76/84
f 238/77/59 222/41/59 160/78/59 162/79/59
f 221/80/93 222/81/93 236/82/93 224/83/93
f 157/65/22 178/68/22 180/67/22 156/66/22
f 124/84/89 170/85/89 171/26/89 147/25/89
f 178/68/94 149/70/94 154/69/94 180/67/94
f 194/86/71 193/58/71 192/2/71 208/3/71
f 170/85/89 139/62/89 128/64/89 171/26/89
f 184/87/95 158/80/95 159/81/95 160/88/95
f 213/19/96 212/18/96 218/17/96 219/20/96
f 141/1/97 151/4/97 153/89/97 148/90/97
f 121/22/98 169/21/98 135/16/98 136/13/98
f 125/91/84 124/76/84 147/52/84 143/49/84
f 228/85/99 227/26/99 191/92/99 190/62/99
f 145/86/71 126/58/71 129/59/71 130/93/71
f 225/94/40 229/95/40 196/5/40 185/24/40
f 237/11/71 197/10/71 165/96/71 134/97/71
f 223/14/100 164/98/100 184/99/100 221/15/100
f 171/26/101 128/64/101 142/100/101 176/27/101
f 161/33/78 137/32/78 136/31/78 163/34/78
f 222/81/102 221/80/102 184/87/102 160/88/102
f 202/101/103 195/102/103 225/94/103 226/30/103
f 138/57/71 140/60/71 129/59/71 126/58/71
f 131/5/40 125/8/40 143/7/40 144/6/40
f 182/82/84 181/83/84 166/103/84 183/104/84
f 189/84/99 209/25/99 227/26/99 228/85/99
f 121/75/84 136/74/84 137/73/84 124/76/84
f 154/47/81 179/38/81 155/18/81 180/17/81
f 128/64/104 127/63/104 141/105/104 142/100/104
f 140/9/105 138/12/105 133/11/105 132/10/105
f 200/13/106 198/16/106 199/21/106 187/22/106
f 215/28/107 220/106/107 234/107/107 232/27/107
f 230/40/11 231/39/11 236/42/11 222/41/11
f 205/1/97 211/90/97 217/89/97 214/4/97
f 210/70/108 216/69/108 217/72/108 211/71/108
f 181/43/109 132/44/109 165/46/109 166/45/109
f 137/108/87 174/40/87 170/85/87 124/84/87
f 123/24/40 122/23/40 125/8/40 131/5/40
f 215/51/84 213/50/84 219/109/84 220/110/84
f 240/29/33 203/111/33 202/101/33 226/30/33
f 238/33/78 162/112/78 164/113/78 223/34/78
f 176/27/110 142/100/110 149/114/110 178/107/110
f 199/21/103 185/24/103 186/23/103 187/22/103
f 130/102/40 168/94/40 172/95/40 145/115/40
f 145/115/40 172/95/40 177/35/40 146/36/40
f 195/102/40 194/115/40 229/95/40 225/94/40
f 191/92/111 227/26/111 232/27/111 204/100/111
f 156/109/84 150/50/84 152/51/84 157/110/84
f 166/103/84 224/83/84 236/82/84 183/104/84
f 152/28/112 176/27/112 178/107/112 157/106/112
f 239/108/11 230/40/11 222/41/11 238/77/11
f 172/95/40 131/5/40 144/6/40 177/35/40
f 188/91/84 207/49/84 209/52/84 189/76/84
f 185/24/40 196/5/40 188/8/40 186/23/40
f 229/95/40 233/35/40 206/6/40 196/5/40
f 174/40/80 137/108/80 161/77/80 159/41/80
f 174/40/87 175/39/87 139/62/87 170/85/87
f 168/94/40 123/24/40 131/5/40 172/95/40
f 151/37/113 146/36/113 177/35/113 179/38/113
f 135/16/114 173/29/114 181/43/114 158/15/114
f 143/49/84 147/52/84 152/51/84 150/50/84
f 173/29/114 140/111/114 132/44/114 181/43/114
f 134/54/115 133/53/115 182/42/115 183/55/115
f 209/25/116 215/28/116 232/27/116 227/26/116
f 207/7/117 206/6/117 212/18/117 213/19/117
f 129/101/75 167/30/75 168/94/75 130/102/75
f 204/100/107 210/114/107 211/116/107 205/105/107
f 142/100/112 141/105/112 148/116/112 149/114/112
f 155/18/118 144/6/118 143/7/118 150/19/118
f 177/35/119 144/6/119 155/18/119 179/38/119
f 226/30/103 225/94/103 185/24/103 199/21/103
f 138/56/120 175/39/120 182/42/120 133/53/120
f 167/30/75 169/21/75 123/24/75 168/94/75
f 239/108/121 189/84/121 228/85/121 230/40/121
f 202/59/71 193/58/71 194/86/71 195/93/71
f 208/3/71 192/2/71 205/1/71 214/4/71
f 160/78/122 159/41/122 161/77/122 162/79/122
f 165/96/71 132/10/71 133/11/71 134/97/71
f 163/14/123 136/13/123 135/16/123 158/15/123
f 129/101/124 140/111/124 173/29/124 167/30/124
f 240/29/54 224/43/54 197/44/54 203/111/54
f 193/61/99 190/62/99 191/92/99 192/63/99
f 121/75/84 124/76/84 125/91/84 122/117/84
f 158/80/125 181/83/125 182/82/125 159/81/125
f 212/18/82 235/38/82 216/47/82 218/17/82
f 161/33/78 163/34/78 164/113/78 162/112/78
f 163/14/126 158/15/126 184/99/126 164/98/126
f 127/2/71 126/58/71 145/86/71 146/3/71
f 232/27/127 234/107/127 210/114/127 204/100/127
f 191/92/128 204/100/128 205/105/128 192/63/128
f 231/39/121 190/62/121 193/61/121 201/56/121
f 187/75/84 186/117/84 188/91/84 189/76/84
f 194/115/40 208/36/40 233/35/40 229/95/40
f 230/40/121 228/85/121 190/62/121 231/39/121
