# Blender v2.70 (sub 0) OBJ File: 'roofside.blend'
# www.blender.org
mtllib roofside.mtl
o Side_roofside_
v 4.062395 -0.153997 11.862309
v 4.062395 0.323337 11.862309
v 1.133381 0.323330 10.635985
v 1.133381 0.323331 11.651499
v 1.133381 -0.154004 11.651499
v 1.133381 -0.154004 10.635985
v 7.737164 0.323342 9.254745
v 7.737165 0.323342 9.000018
v 7.729475 -0.153992 9.260202
v 7.729475 -0.153992 9.000018
v -4.062395 -0.153997 11.862309
v 0.000000 0.323331 12.547132
v 0.000000 0.323331 11.651498
v 0.000000 -0.154003 11.651498
v 0.000000 0.323331 10.635985
v 0.000000 -0.154004 10.635985
v -4.062395 0.323337 11.862309
v -1.133381 0.323330 10.635985
v -1.133381 0.323331 11.651499
v -1.133381 -0.154004 11.651499
v -1.133381 -0.154004 10.635985
v 0.000000 0.323330 9.000018
v 0.000000 -0.154004 9.000018
v 0.000000 -0.154003 12.547132
v -7.737164 0.323342 9.254745
v -7.737165 0.323342 9.000018
v -7.729475 -0.153992 9.260202
v -7.729475 -0.153992 9.000018
vt 0.474950 0.806935
vt 0.000000 0.071813
vt 0.853515 0.747504
vt 0.998981 0.061716
vt 0.000025 0.061716
vt 0.000025 0.000025
vt 0.999975 0.000025
vt 0.000046 0.000023
vt 0.500006 0.000227
vt 0.499987 0.054707
vt 0.000023 0.054502
vt 0.121640 0.999965
vt 0.000035 0.999964
vt 0.000035 0.000035
vt 0.121640 0.000035
vt 0.500000 0.000024
vt 0.500000 0.054505
vt 0.000023 0.054504
vt 0.000023 0.000023
vt 1.000000 0.000000
vt 1.000000 0.461211
vt 0.853515 0.461211
vt 0.000000 0.000000
vt 1.000000 0.747504
vt 1.000000 1.000000
vt 0.000994 0.000000
vt 0.000994 0.073351
vn -0.000002 1.000000 -0.000001
vn 0.000000 0.000000 -1.000000
vn 0.000000 0.000000 1.000000
vn -1.000000 -0.000001 0.000000
vn 0.000001 0.000000 -1.000000
vn -0.000001 1.000000 0.000001
vn -0.000001 1.000000 -0.000002
vn 0.000001 -1.000000 -0.000001
vn 0.000001 -1.000000 0.000002
vn 0.000002 -1.000000 0.000000
vn -0.000002 1.000000 -0.000000
vn 0.000002 -1.000000 0.000001
vn 0.000002 1.000000 -0.000001
vn 1.000000 -0.000001 0.000000
vn 0.000001 1.000000 0.000001
vn 0.000001 1.000000 -0.000002
vn -0.000001 -1.000000 -0.000001
vn -0.000001 -1.000000 0.000002
vn -0.000002 -1.000000 0.000000
vn 0.000002 1.000000 -0.000000
vn -0.000002 -1.000000 0.000001
usemtl FactoryRoofSide
s off
f 2/1/1 7/2/1 4/3/1
f 10/4/2 23/5/2 22/6/2 8/7/2
f 3/8/3 15/9/3 16/10/3 6/11/3
f 5/12/4 4/13/4 3/14/4 6/15/4
f 14/16/5 13/17/5 4/18/5 5/19/5
f 22/20/6 15/21/6 3/22/6 8/23/6
f 2/1/7 4/3/7 13/24/7 12/25/7
f 23/20/8 10/26/8 6/22/8 16/21/8
f 24/25/9 14/24/9 5/3/9 1/1/9
f 6/22/10 10/26/10 9/27/10 5/3/10
f 7/2/11 8/23/11 3/22/11 4/3/11
f 5/3/12 9/27/12 1/1/12
f 17/1/13 19/3/13 25/2/13
f 28/4/2 26/7/2 22/6/2 23/5/2
f 18/8/3 21/11/3 16/10/3 15/9/3
f 20/12/14 21/15/14 18/14/14 19/13/14
f 14/16/2 20/19/2 19/18/2 13/17/2
f 22/20/15 26/23/15 18/22/15 15/21/15
f 17/1/16 12/25/16 13/24/16 19/3/16
f 23/20/17 16/21/17 21/22/17 28/26/17
f 24/25/18 11/1/18 20/3/18 14/24/18
f 21/22/19 20/3/19 27/27/19 28/26/19
f 25/2/20 19/3/20 18/22/20 26/23/20
f 20/3/21 11/1/21 27/27/21
o Roof_roof
v 7.726966 -0.530693 9.259534
v 8.016068 -0.530692 9.000001
v 8.313912 -0.530691 9.000001
v 8.344368 -0.530691 9.280690
v 8.453289 -0.530691 8.883574
v 8.618538 -0.530690 9.059538
v 8.883638 -0.530689 8.302912
v 9.109741 -0.530688 8.383633
v -7.726977 2.081371 9.000000
v -8.016072 -0.530731 9.000001
v -7.982245 7.999988 9.454110
v -8.344387 7.999987 9.280688
v -8.344383 5.604435 9.280689
v -7.726985 7.999988 9.259532
v -7.726985 7.999988 8.999999
v -8.016076 2.081370 9.000000
v -1.810081 7.999997 12.242077
v -1.869243 7.999997 12.516624
v -0.000011 7.999999 12.837570
v -4.062659 2.081377 11.860418
v -4.195456 7.999994 12.117217
v -7.982242 5.604436 9.454111
v -4.062665 7.999994 11.860416
v -8.618557 7.999987 9.059536
v -8.618553 5.604435 9.059537
v -8.313916 -0.530732 9.000001
v -8.313920 2.081370 9.000000
v -8.016084 7.999988 8.999999
v -8.313928 7.999988 8.999999
v -8.344376 -0.530732 9.280690
v -9.109760 7.999986 8.383631
v -9.109756 5.604434 8.383632
v -8.453308 7.999987 8.883572
v -8.618546 -0.530732 9.059538
v -8.883657 7.999986 8.302910
v -8.883654 5.604435 8.302911
v -8.453300 2.081370 8.883573
v -8.883646 -0.530732 8.302912
v -9.109749 -0.530733 8.383633
v -1.810073 2.081379 12.242079
v -1.869236 2.081380 12.516627
v -0.000003 2.081382 12.837572
v -1.810069 -0.530722 12.242081
v -0.000011 7.999999 12.548762
v -0.000008 5.604447 12.548763
v -7.726982 5.604436 9.259533
v -7.726982 5.604436 9.000000
v -7.726977 2.081371 9.259533
v -7.982237 2.081370 9.454111
v -8.344379 2.081370 9.280689
v -8.016082 5.604435 9.000000
v -4.062664 5.604442 11.860417
v -4.195448 2.081377 12.117219
v -4.195452 5.604441 12.117218
v -8.618549 2.081369 9.059537
v -8.313926 5.604435 9.000000
v -9.109753 2.081368 8.383632
v -8.453304 5.604435 8.883573
v -8.883650 2.081369 8.302911
v -1.810078 5.604444 12.242078
v -1.869239 5.604444 12.516626
v -0.000008 5.604447 12.837572
v -0.000003 2.081382 12.548763
v 7.726971 2.081392 9.000000
v 7.982226 5.604457 9.454111
v 8.344368 5.604458 9.280689
v 8.344364 8.000010 9.280688
v 7.982223 8.000010 9.454110
v 8.016065 8.000010 8.999999
v 7.726964 8.000010 8.999999
v 8.016072 2.081392 9.000000
v 1.810059 8.000001 12.242077
v 4.062653 2.081388 11.860418
v 7.726971 2.081392 9.259533
v 4.062657 -0.530714 11.860419
v 4.195433 8.000006 12.117217
v 7.726964 8.000010 9.259532
v 4.062644 8.000006 11.860416
v 8.618538 5.604458 9.059537
v 8.618534 8.000011 9.059536
v 8.313916 2.081392 9.000000
v 8.313909 8.000010 8.999999
v 9.109741 5.604459 8.383632
v 9.109737 8.000011 8.383631
v 8.453293 2.081393 8.883573
v 8.453285 8.000010 8.883572
v 8.883638 5.604458 8.302911
v 8.883635 8.000011 8.302910
v 8.883642 2.081393 8.302911
v 1.810067 2.081384 12.242079
v 1.869230 2.081385 12.516627
v 1.810062 5.604450 12.242078
v 7.726966 5.604457 9.000000
v 7.726966 5.604457 9.259533
v 8.344372 2.081392 9.280689
v 7.982231 2.081392 9.454111
v 8.016067 5.604458 9.000000
v 4.195442 2.081388 12.117219
v 4.195436 5.604453 12.117218
v 8.618542 2.081393 9.059537
v 8.313910 5.604458 9.000000
v 9.109745 2.081393 8.383632
v 8.453289 5.604458 8.883573
v 1.869225 5.604450 12.516626
v 1.869221 8.000001 12.516624
v 1.869234 -0.530717 12.516628
v 4.062648 5.604452 11.860417
v 7.726966 -0.530693 9.000001
v 7.982227 -0.530692 9.454112
v -7.726973 -0.530731 9.259534
v -7.726973 -0.530731 9.000001
v -7.982234 -0.530731 9.454112
v -4.062655 -0.530725 11.860419
v -4.195445 -0.530725 12.117220
v -8.453297 -0.530732 8.883574
v -1.869232 -0.530722 12.516628
v 0.000001 -0.530720 12.837573
v 0.000001 -0.530720 12.548765
v 1.810071 -0.530718 12.242081
v 4.195445 -0.530713 12.117220
vt 0.866981 0.471419
vt 0.866979 0.316689
vt 0.898943 0.316689
vt 0.898943 0.471419
vt 0.400734 0.837435
vt 0.400734 0.650305
vt 0.813347 0.650305
vt 0.813347 0.837434
vt 0.891075 0.837434
vt 0.891075 1.028751
vt 0.907752 1.028751
vt 0.907752 0.837434
vt 0.410473 0.131771
vt 0.410473 0.316689
vt 0.196306 0.316689
vt 0.196307 0.131770
vt 0.190944 0.650305
vt 0.190944 0.837435
vt 0.190944 1.028751
vt 0.022367 0.837434
vt 0.022367 1.028751
vt 0.974117 0.837434
vt 0.974117 1.028751
vt 0.196307 -0.022958
vt 0.024214 -0.022958
vt 0.024212 0.131770
vt 0.410475 -0.022958
vt 0.830546 -0.022957
vt 0.830546 0.131771
vt 0.907750 0.650305
vt 0.891075 0.650305
vt 0.866979 -0.022957
vt 0.866979 0.131771
vt 0.744081 0.982430
vt 0.744079 0.967671
vt 0.560120 0.967675
vt 0.560120 0.982435
vt 0.406190 0.982424
vt 0.406191 0.967665
vt 0.114663 0.035825
vt 0.114664 0.044739
vt 0.019688 0.044739
vt 0.019688 0.035825
vt 0.898008 0.982397
vt 0.898004 0.967638
vt 0.830546 0.316689
vt 0.065865 0.123786
vt 0.110709 0.123700
vt 0.110709 0.130393
vt 0.065865 0.130826
vt 0.837180 0.837434
vt 0.863725 0.837434
vt 0.863725 0.650305
vt 0.837180 0.650305
vt 0.898943 0.131771
vt 0.021021 0.130393
vt 0.021021 0.123701
vt 0.813349 1.028751
vt 0.837180 1.028751
vt 0.863725 0.493726
vt 0.891075 0.493726
vt 0.021021 0.152151
vt 0.021021 0.145459
vt 0.065865 0.145544
vt 0.065865 0.152584
vt 0.974117 0.650305
vt 0.898943 -0.022957
vt 0.400734 1.028751
vt 0.974758 0.131771
vt 0.974759 0.316689
vt 0.863727 1.028751
vt 0.110709 0.145459
vt 0.110709 0.152151
vt 0.974759 0.471418
vt 0.974758 -0.022957
vt 0.019688 0.053653
vt 0.114664 0.053653
vt 0.114664 0.062567
vt 0.019688 0.062567
vt 0.907750 0.493726
vt 0.974117 0.493726
vt 0.400734 0.493726
vt 0.813347 0.493726
vt 0.947554 0.599805
vt 0.959827 0.535525
vt 0.971592 0.537117
vt 0.960281 0.601879
vt 0.190944 0.493726
vt 0.837180 0.493726
vt 0.196306 0.471419
vt 0.024211 0.316689
vt 0.024211 0.471419
vt 0.830546 0.471419
vt 0.022367 0.493726
vt 0.022367 0.650305
vt 0.410473 0.471419
vt 0.949449 0.354518
vt 0.951717 0.350379
vt 0.963727 0.351015
vt 0.968246 0.356702
vt 0.926805 0.339833
vt 0.931913 0.336995
vt 0.956535 0.346370
vt 0.947893 0.348003
vt 0.958137 0.359515
vt 0.947246 0.358535
vt 0.963310 0.411922
vt 0.975099 0.411046
vt 0.974128 0.444884
vt 0.962154 0.444669
vt 0.944397 0.605191
vt 0.961881 0.607667
vt 0.950936 0.609049
vt 0.971540 0.503228
vt 0.959565 0.502714
vt 0.976721 0.472626
vt 0.964401 0.472198
vt 0.937921 0.620841
vt 0.949732 0.611591
vt 0.959804 0.612617
vt 0.945841 0.623258
vt 0.938051 0.601447
vn -0.627833 -0.000001 0.778348
vn 0.578806 0.000001 -0.815465
vn -0.641094 -0.000001 -0.767462
vn -0.169223 0.000000 0.985578
vn -0.167051 -0.000001 -0.985948
vn -0.167052 -0.000001 -0.985948
vn 0.803406 0.000001 -0.595432
vn -0.803405 -0.000001 -0.595432
vn -0.578806 -0.000001 -0.815465
vn 0.169223 0.000001 0.985578
vn -0.575252 -0.000001 0.817976
vn -0.641091 -0.000001 -0.767465
vn -0.431909 -0.000000 0.901917
vn 0.336226 0.000000 -0.941781
vn -0.336228 -0.000001 -0.941781
vn -0.977560 -0.000001 0.210657
vn -0.336223 -0.000001 -0.941782
vn -0.336226 -0.000000 -0.941781
vn -0.431911 -0.000001 0.901916
vn -0.000001 1.000000 -0.000002
vn 0.431908 0.000001 0.901918
vn 0.000000 0.000000 -1.000000
vn -0.000002 1.000000 -0.000001
vn -1.000000 -0.000002 0.000000
vn -0.000002 -0.000000 -1.000000
vn 0.000002 -1.000000 0.000000
vn 0.803405 0.000001 -0.595433
vn -0.627835 -0.000001 0.778346
vn 0.169222 0.000001 0.985578
vn 0.336225 0.000000 -0.941782
vn 0.167053 -0.000000 -0.985948
vn -0.808943 -0.000001 0.587887
vn -0.000001 -0.000000 -1.000000
vn 0.627835 0.000001 0.778346
vn -0.808943 -0.000001 0.587886
vn 0.641092 0.000000 -0.767464
vn 0.167051 -0.000000 -0.985948
vn -0.169223 0.000001 0.985578
vn 1.000000 0.000001 0.000000
vn 0.808943 0.000001 0.587887
vn 0.641086 0.000001 -0.767469
vn -1.000000 -0.000001 0.000000
vn -0.169222 0.000000 0.985578
vn 0.578806 0.000000 -0.815465
vn 0.431909 0.000001 0.901917
vn 0.977560 0.000001 0.210655
vn 0.575252 0.000001 0.817976
vn 0.000001 -0.000000 -1.000000
vn 0.336222 -0.000001 -0.941783
vn -0.803405 0.000001 -0.595433
vn -0.578807 -0.000000 -0.815465
vn 0.808944 -0.000001 0.587886
vn 0.627832 -0.000001 0.778349
vn -0.641091 0.000001 -0.767465
vn 0.803405 0.000001 -0.595432
vn -0.431908 -0.000000 0.901918
vn -0.575252 -0.000000 0.817976
vn 0.000005 -0.000000 -1.000000
vn 0.641082 0.000001 -0.767473
vn 0.167052 -0.000000 -0.985948
vn 0.431909 -0.000000 0.901917
vn -1.000000 0.000002 0.000000
vn 0.000003 -0.000000 -1.000000
vn 0.575253 0.000000 0.817976
vn 0.000003 -1.000000 -0.000001
vn 0.000004 -1.000000 0.000000
vn 0.000003 -1.000000 0.000000
vn 0.000004 -1.000000 -0.000001
vn 0.000002 -1.000000 0.000001
vn 0.000001 -1.000000 0.000000
vn 0.000001 -1.000000 0.000001
vn 0.000005 -1.000000 -0.000002
usemtl FactoryRoof
s off
f 58/28/22 78/29/22 83/30/22 62/31/22
f 80/32/23 48/33/23 76/34/23 74/35/23
f 129/36/24 110/37/24 114/38/24 131/39/24
f 82/40/25 81/41/25 69/42/25 89/43/25
f 101/33/26 118/44/26 120/45/26 135/32/26
f 100/46/27 120/45/27 73/47/27 72/48/27
f 61/38/28 86/39/28 64/49/28 63/50/28
f 114/38/29 116/50/29 115/49/29 131/39/29
f 135/32/30 122/35/30 102/34/30 101/33/30
f 132/43/31 133/51/31 47/52/31 90/53/31
f 127/40/31 104/54/31 133/51/31 132/43/31
f 82/40/32 49/54/32 39/55/32 50/56/32
f 129/36/33 131/39/33 113/57/33 109/58/33
f 50/56/34 39/55/34 40/59/34 41/60/34
f 130/61/35 117/62/35 115/63/35 111/64/35
f 60/64/36 59/65/36 63/66/36 64/63/36
f 118/67/37 119/68/37 132/69/37 120/70/37
f 67/71/38 85/61/38 87/62/38 66/72/38
f 85/61/39 60/64/39 64/63/39 87/62/39
f 77/73/40 50/56/40 41/60/40 78/29/40
f 91/74/41 68/75/41 69/76/41 70/77/41
f 124/73/42 123/29/42 94/60/42 93/56/42
f 121/78/43 125/79/43 99/80/43 92/81/43
f 78/29/22 41/60/22 53/82/22 83/30/22
f 119/83/44 118/84/44 91/74/44 70/77/44
f 105/85/45 98/86/45 121/78/45 122/35/45
f 44/80/46 38/87/46 54/88/46 55/58/46
f 89/89/47 88/90/47 73/91/47 90/92/47
f 64/49/48 86/39/48 65/57/48 87/93/48
f 41/60/49 40/59/49 52/94/49 53/82/49
f 126/41/50 127/40/50 132/43/50 119/42/50
f 111/64/51 115/63/51 116/66/51 112/65/51
f 88/45/52 45/46/52 72/48/52 73/47/52
f 135/32/30 106/95/30 105/85/30 122/35/30
f 83/30/53 53/82/53 60/96/53 85/97/53
f 43/86/43 75/78/43 79/79/43 56/98/43
f 56/98/43 79/79/43 84/36/43 57/37/43
f 98/86/54 97/98/54 125/79/54 121/78/54
f 94/60/55 123/29/55 128/30/55 107/82/55
f 73/91/47 120/99/47 132/100/47 90/92/47
f 62/31/56 83/30/56 85/97/56 67/101/56
f 79/79/43 44/80/43 55/58/43 84/36/43
f 125/79/43 129/36/43 109/58/43 99/80/43
f 81/41/32 82/40/32 50/56/32 77/73/32
f 75/78/43 37/81/43 44/80/43 79/79/43
f 61/38/57 57/37/57 84/36/57 86/39/57
f 48/33/58 80/32/58 88/45/58 68/44/58
f 80/32/58 51/95/58 45/46/58 88/45/58
f 47/52/59 46/51/59 89/43/59 90/53/59
f 42/85/60 74/35/60 75/78/60 43/86/60
f 107/82/61 111/96/61 112/102/61 108/94/61
f 53/82/53 52/94/53 59/102/53 60/96/53
f 84/36/62 55/58/62 65/57/62 86/39/62
f 122/35/63 121/78/63 92/81/63 102/34/63
f 49/54/64 82/40/64 89/43/64 46/51/64
f 74/35/60 76/34/60 37/81/60 75/78/60
f 42/85/65 51/95/65 80/32/65 74/35/65
f 135/32/26 120/45/26 100/46/26 106/95/26
f 96/55/66 93/56/66 94/60/66 95/59/66
f 68/103/67 88/104/67 89/105/67 69/106/67
f 113/57/29 131/39/29 115/49/29 117/93/29
f 128/30/61 130/97/61 111/96/61 107/82/61
f 94/60/55 107/82/55 108/94/55 95/59/55
f 127/40/68 93/56/68 96/55/68 104/54/68
f 97/98/43 110/37/43 129/36/43 125/79/43
f 126/41/68 124/73/68 93/56/68 127/40/68
f 99/80/69 109/58/69 31/88/69 30/87/69
f 36/71/70 35/72/70 117/62/70 130/61/70
f 33/107/71 113/57/71 117/93/71 35/108/71
f 103/109/72 101/33/72 102/34/72 29/110/72
f 34/31/73 36/101/73 130/97/73 128/30/73
f 32/28/74 34/31/74 128/30/74 123/29/74
f 31/88/75 109/58/75 113/57/75 33/107/75
f 138/111/47 141/112/47 142/113/47 140/114/47
f 103/109/27 147/115/27 118/44/27 101/33/27
f 87/93/76 65/57/76 143/107/76 66/108/76
f 76/34/60 138/110/60 139/116/60 37/81/60
f 134/117/50 119/42/50 70/118/50 145/119/50
f 140/120/77 77/73/77 78/29/77 58/28/77
f 138/110/65 76/34/65 48/33/65 141/109/65
f 147/115/27 146/121/27 91/122/27 118/44/27
f 142/123/78 81/41/78 77/73/78 140/120/78
f 37/81/79 139/116/79 38/87/79 44/80/79
f 148/123/31 126/41/31 119/42/31 134/117/31
f 81/41/64 142/123/64 144/117/64 69/42/64
f 65/57/80 55/58/80 54/88/80 143/107/80
f 70/118/64 69/42/64 144/117/64 145/119/64
f 71/115/81 141/109/81 48/33/81 68/44/81
f 71/115/81 68/44/81 91/122/81 146/121/81
f 137/120/82 32/28/82 123/29/82 124/73/82
f 102/34/83 92/81/83 136/116/83 29/110/83
f 92/81/84 99/80/84 30/87/84 136/116/84
f 148/123/85 137/120/85 124/73/85 126/41/85
f 30/124/86 31/125/86 32/126/86 137/127/86
f 35/128/87 36/129/87 34/130/87 33/131/87
f 31/125/88 33/131/88 34/130/88 32/126/88
f 29/132/89 136/133/89 30/124/89 137/127/89
f 103/134/90 148/135/90 134/136/90 147/137/90
f 38/138/91 140/114/91 58/139/91 54/140/91
f 144/141/91 142/113/91 141/112/91 71/142/91
f 134/136/92 145/143/92 146/144/92 147/137/92
f 66/145/91 143/146/91 62/147/91 67/148/91
f 54/140/91 58/139/91 62/147/91 143/146/91
f 138/111/91 140/114/91 38/138/91 139/149/91
f 144/141/92 71/142/92 146/144/92 145/143/92
f 29/132/93 137/127/93 148/135/93 103/134/93
