# Blender v2.70 (sub 0) OBJ File: 'factory.blend'
# www.blender.org
o RoofSide
v 8.096146 9.000018 0.061750
v 4.062395 11.862309 0.061750
v 1.133381 11.651499 0.061748
v 1.133381 10.635985 0.061748
v -8.096146 9.000018 0.061750
v -4.062395 11.862309 0.061750
v 0.000000 9.000018 0.061750
v 0.000000 12.547132 0.061750
v 0.000000 11.651498 0.061750
v 0.000000 10.635985 0.061750
v -1.133381 11.651499 0.061748
v -1.133381 10.635985 0.061748
v 8.096146 9.000018 -0.061750
v 4.062395 11.862309 -0.061750
v 1.133381 11.651499 -0.061752
v 1.133381 10.635985 -0.061752
v -8.096146 9.000018 -0.061750
v -4.062395 11.862309 -0.061750
v 0.000000 9.000018 -0.061750
v 0.000000 12.547132 -0.061750
v 0.000000 11.651498 -0.061750
v 0.000000 10.635985 -0.061750
v -1.133381 11.651499 -0.061752
v -1.133381 10.635985 -0.061752
vt 0.139990 0.747504
vt 0.139990 0.461211
vt 0.501769 0.806936
vt 1.000000 0.000000
vt 0.000000 0.000000
vt 0.000000 1.000000
vt 0.000000 0.747503
vt 0.000000 0.461211
vn -0.000001 0.000000 1.000000
vn 0.000001 0.000000 1.000000
vn 0.000000 0.000000 -1.000000
vn -0.000001 0.000000 -1.000000
vn 0.578697 0.815543 0.000000
vn 0.000000 -1.000000 0.000000
vn 0.166231 0.986087 0.000000
vn 0.000001 -1.000000 0.000000
vn -1.000000 0.000000 0.000000
vn 0.000000 1.000000 0.000000
vn -0.578697 0.815543 0.000000
vn -0.166231 0.986087 0.000000
vn -0.000001 -1.000000 0.000000
vn 1.000000 0.000000 0.000000
vn 0.000002 0.000000 1.000000
vn -0.000000 -0.000000 1.000000
vn 0.000000 0.000001 1.000000
vn 0.000000 -0.000003 1.000000
vn -0.000002 0.000000 1.000000
vn -0.000002 0.000000 -1.000000
vn 0.000002 0.000000 -1.000000
vn 0.000000 0.000003 -1.000000
vn 0.000001 0.000000 -1.000000
vn 0.000000 -0.000001 -1.000000
vn 0.578697 0.815542 0.000000
s off
f 3/1/1 4/2/1 2/3/1
f 6/3/2 12/2/2 11/1/2
f 14/3/3 13/4/3 16/2/3
f 23/1/4 24/2/4 18/3/4
f 2/3/5 1/4/5 13/4/5
f 1/4/6 7/5/6 19/5/6
f 8/6/7 2/3/7 14/3/7
f 9/7/8 21/7/8 15/1/8
f 4/2/9 3/1/9 15/1/9
f 10/8/10 4/2/10 16/2/10
f 6/3/11 18/3/11 17/4/11
f 7/5/6 5/4/6 17/4/6
f 8/6/12 20/6/12 18/3/12
f 9/7/13 11/1/13 23/1/13
f 11/1/14 12/2/14 24/2/14
f 10/8/10 22/8/10 24/2/10
f 9/7/15 3/1/15 8/6/15
f 4/2/15 10/8/15 7/5/15
f 2/3/16 4/2/16 1/4/16
f 4/2/17 7/5/17 1/4/17
f 7/5/17 12/2/17 5/4/17
f 6/3/18 11/1/18 8/6/18
f 3/1/18 2/3/18 8/6/18
f 7/5/19 10/8/19 12/2/19
f 12/2/16 6/3/16 5/4/16
f 22/8/20 16/2/20 19/5/20
f 24/2/21 22/8/21 19/5/21
f 11/1/19 9/7/19 8/6/19
f 15/1/20 21/7/20 20/6/20
f 15/1/22 20/6/22 14/3/22
f 20/6/21 21/7/21 23/1/21
f 15/1/23 14/3/23 16/2/23
f 16/2/24 13/4/24 19/5/24
f 18/3/3 24/2/3 17/4/3
f 18/3/22 20/6/22 23/1/22
f 13/4/6 1/4/6 19/5/6
f 14/3/25 2/3/25 13/4/25
f 24/2/24 19/5/24 17/4/24
f 20/6/7 8/6/7 14/3/7
f 3/1/8 9/7/8 15/1/8
f 16/2/9 4/2/9 15/1/9
f 22/8/10 10/8/10 16/2/10
f 5/4/11 6/3/11 17/4/11
f 19/5/6 7/5/6 17/4/6
f 6/3/12 8/6/12 18/3/12
f 21/7/13 9/7/13 23/1/13
f 23/1/14 11/1/14 24/2/14
f 12/2/10 10/8/10 24/2/10
