# Blender v2.70 (sub 0) OBJ File: 'shed.blend'
# www.blender.org
mtllib rusty_shed.mtl
o Shed_rusty_shed
v 3.698024 3.698024 0.117196
v 3.698024 3.333739 0.117196
v 3.333739 3.333739 0.117196
v 3.333739 3.698024 0.117196
v 3.698024 3.698024 2.929902
v 3.698024 3.333739 2.929902
v 3.333739 3.333739 2.929902
v 3.333739 3.698024 2.929902
v 3.698024 -4.505700 0.117196
v 3.698024 -4.869985 0.117196
v 3.333739 -4.869985 0.117196
v 3.333739 -4.505700 0.117196
v 3.698024 -4.505700 2.929902
v 3.698024 -4.869985 2.929902
v 3.333739 -4.869985 2.929902
v 3.333739 -4.505700 2.929902
v -3.333739 -4.505700 0.117196
v -3.333739 -4.869985 0.117196
v -3.698024 -4.869985 0.117196
v -3.698024 -4.505700 0.117196
v -3.333739 -4.505700 2.929902
v -3.333739 -4.869985 2.929902
v -3.698024 -4.869985 2.929902
v -3.698024 -4.505700 2.929902
v -3.333739 3.698024 0.117196
v -3.333739 3.333739 0.117196
v -3.698024 3.333739 0.117196
v -3.698024 3.698024 0.117196
v -3.333739 3.698024 2.929902
v -3.333739 3.333739 2.929902
v -3.698024 3.333739 2.929902
v -3.698024 3.698024 2.929902
v -3.750274 -4.922234 0.117196
v 3.750274 -4.922234 0.117196
v -3.750274 3.750274 0.117196
v 3.750274 3.750274 0.117196
v -3.750274 -4.922234 -1.577084
v 3.750274 -4.922234 -1.577084
v -3.750274 3.750274 -1.577084
v 3.750274 3.750274 -1.577084
v -3.633078 -4.512048 0.117196
v -3.633078 3.340088 0.117196
v -3.398686 3.340088 0.117196
v -3.398686 -4.512048 0.117196
v -3.633078 -4.512048 2.461117
v -3.633078 3.340088 2.461117
v -3.398686 3.340088 2.461117
v -3.398686 -4.512048 2.461117
v 3.398686 -4.512048 0.117196
v 3.398686 3.340088 0.117196
v 3.633078 3.340088 0.117196
v 3.633078 -4.512048 0.117196
v 3.398686 -4.512048 2.461117
v 3.398686 3.340088 2.461117
v 3.633078 3.340088 2.461117
v 3.633078 -4.512048 2.461117
v 3.329306 3.398689 0.117196
v -3.329306 3.398683 0.117196
v -3.329306 3.633074 0.117196
v 3.329306 3.633081 0.117196
v 3.329306 3.398689 2.461117
v -3.329306 3.398683 2.461117
v -3.329306 3.633074 2.461117
v 3.329306 3.633081 2.461117
v -3.633078 -4.863636 2.929902
v -3.633078 3.691675 2.929902
v -3.398686 3.691675 2.929902
v -3.398686 -4.863636 2.929902
v -3.633078 -4.863636 3.281490
v -3.633078 3.691675 3.281490
v -3.398686 3.691675 3.281490
v -3.398686 -4.863636 3.281490
v 3.398686 -4.863636 2.929902
v 3.398686 3.691675 2.929902
v 3.633078 3.691675 2.929902
v 3.633078 -4.863636 2.929902
v 3.398686 -4.863636 3.281490
v 3.398686 3.691675 3.281490
v 3.633078 3.691675 3.281490
v 3.633078 -4.863636 3.281490
v 3.762116 3.398689 2.929902
v -3.762116 3.398683 2.929902
v -3.762116 3.633074 2.929902
v 3.762116 3.633081 2.929902
v 3.762116 3.398689 3.278893
v -3.762116 3.398683 3.278893
v -3.762116 3.633074 3.278893
v 3.762116 3.633081 3.278893
v 3.762116 -4.805035 2.929902
v -3.762116 -4.805042 2.929902
v -3.762116 -4.570650 2.929902
v 3.762116 -4.570643 2.929902
v 3.762116 -4.805035 3.278893
v -3.762116 -4.805042 3.278893
v -3.762116 -4.570650 3.278893
v 3.762116 -4.570643 3.278893
v 4.255715 -5.391018 3.173171
v 4.255716 4.219058 3.173173
v 0.266251 4.219058 4.648353
v 0.266251 -5.391018 4.648350
v 4.273798 -5.391018 3.113068
v 4.273798 4.219058 3.113071
v 0.186085 4.219058 4.588250
v 0.186084 -5.391018 4.588247
v -4.273798 -5.391018 3.113070
v -4.273798 4.219059 3.113070
v -0.186086 4.219058 4.588253
v -0.186087 -5.391018 4.588253
v -4.255717 -5.391018 3.173172
v -4.255716 4.219059 3.173173
v -0.266253 4.219058 4.648355
v -0.266253 -5.391018 4.648355
v 0.182143 -4.505700 3.281490
v 0.182143 -4.869985 3.281490
v -0.182143 -4.869985 3.281490
v -0.182143 -4.505700 3.281490
v 0.182143 -4.505700 4.617525
v 0.182142 -4.869985 4.617525
v -0.182143 -4.869985 4.617525
v -0.182143 -4.505700 4.617525
v 0.182143 3.698024 3.281490
v 0.182143 3.333739 3.281490
v -0.182143 3.333739 3.281490
v -0.182143 3.698024 3.281490
v 0.182143 3.698024 4.617525
v 0.182142 3.333739 4.617525
v -0.182143 3.333739 4.617525
v -0.182143 3.698024 4.617525
vt 0.115876 0.302980
vt 0.115876 0.270648
vt 0.148209 0.270648
vt 0.148209 0.302980
vt 0.083543 0.021000
vt 0.083543 0.270648
vt 0.051210 0.270648
vt 0.051210 0.021000
vt 0.018877 0.270648
vt 0.018877 0.021000
vt 0.148209 0.021000
vt 0.115876 0.021000
vt 0.018878 0.302980
vt 0.051210 0.270647
vt 0.051210 0.302980
vt 0.115877 0.302980
vt 0.115877 0.270648
vt 0.083544 0.270648
vt 0.051211 0.270648
vt 0.018878 0.270648
vt 0.018877 0.302980
vt 0.018877 0.270647
vt 0.148209 0.270647
vt 0.115876 0.270647
vt 0.083543 0.270647
vt 0.050082 0.953814
vt 0.050082 0.665300
vt 0.369204 0.665300
vt 0.369205 0.953814
vt 0.403819 0.665300
vt 0.403819 0.953814
vt 0.050082 0.634250
vt 0.369204 0.634250
vt 0.015468 0.953814
vt 0.015468 0.665300
vt 0.369205 0.984865
vt 0.050082 0.984865
vt 0.420096 0.811694
vt 0.974717 0.811694
vt 0.974717 0.977253
vt 0.420096 0.977253
vt 0.974717 0.795138
vt 0.420096 0.795138
vt 0.420096 0.629580
vt 0.974717 0.629580
vt 0.420371 0.811910
vt 0.974992 0.811910
vt 0.974992 0.977468
vt 0.420371 0.977468
vt 0.974992 0.795354
vt 0.420371 0.795354
vt 0.420371 0.629795
vt 0.974992 0.629795
vt 0.934317 0.795194
vt 0.463999 0.795195
vt 0.463999 0.629636
vt 0.934317 0.629635
vt 0.463999 0.811751
vt 0.934317 0.811751
vt 0.934317 0.977310
vt 0.463999 0.977309
vt 0.202523 0.056375
vt 0.947479 0.056377
vt 0.947479 0.093501
vt 0.202523 0.093501
vt 0.947479 0.031628
vt 0.978094 0.031628
vt 0.978094 0.056377
vt 0.947479 0.155376
vt 0.202523 0.155376
vt 0.202523 0.118252
vt 0.947479 0.118250
vt 0.202523 0.031624
vt 0.171906 0.056375
vt 0.171906 0.031624
vt 0.947479 0.068752
vt 0.202523 0.068750
vt 0.947479 0.130627
vt 0.978094 0.130627
vt 0.978094 0.155376
vt 0.202523 0.130625
vt 0.171906 0.155376
vt 0.171906 0.130625
vt 0.943876 0.170349
vt 0.206127 0.170358
vt 0.206127 0.128864
vt 0.943875 0.128854
vt 0.206126 0.031633
vt 0.206126 0.059501
vt 0.171908 0.059501
vt 0.171908 0.031633
vt 0.943875 0.059493
vt 0.943875 0.100987
vt 0.206126 0.100996
vt 0.943875 0.031626
vt 0.978092 0.031626
vt 0.978092 0.059493
vt 0.943875 0.142790
vt 0.206134 0.142482
vt 0.206146 0.100988
vt 0.943887 0.101296
vt 0.206126 0.170350
vt 0.171908 0.170336
vt 0.171916 0.142468
vt 0.206165 0.031626
vt 0.943907 0.031936
vt 0.943895 0.073429
vt 0.206153 0.073120
vt 0.943867 0.170657
vt 0.978092 0.142804
vt 0.978084 0.170671
vt 0.562933 0.599763
vt 0.185670 0.599763
vt 0.185670 0.589352
vt 0.562933 0.589351
vt 0.176469 0.589352
vt 0.176468 0.417562
vt 0.185670 0.417562
vt 0.572134 0.417561
vt 0.572134 0.589351
vt 0.562933 0.417561
vt 0.594376 0.413811
vt 0.971639 0.413811
vt 0.971639 0.585601
vt 0.594376 0.585601
vt 0.562933 0.222118
vt 0.185670 0.222118
vt 0.185670 0.211707
vt 0.562933 0.211707
vt 0.185670 0.393908
vt 0.176468 0.393908
vt 0.176468 0.222118
vt 0.562933 0.393908
vt 0.572134 0.222118
vt 0.572134 0.393908
vt 0.594376 0.225490
vt 0.971639 0.225490
vt 0.971639 0.397280
vt 0.594376 0.397280
vt 0.571579 0.397469
vt 0.571579 0.414001
vt 0.177023 0.414001
vt 0.177023 0.397469
vt 0.018927 0.302771
vt 0.018939 0.270356
vt 0.051353 0.270367
vt 0.051342 0.302782
vt 0.148586 0.302815
vt 0.148543 0.427955
vt 0.116128 0.427944
vt 0.116172 0.302804
vt 0.083714 0.427933
vt 0.083757 0.302793
vt 0.051299 0.427921
vt 0.018884 0.427910
vt 0.148580 0.270356
vt 0.148580 0.302780
vt 0.116156 0.302780
vt 0.116156 0.270356
vt 0.051308 0.302780
vt 0.051308 0.427955
vt 0.018884 0.427955
vt 0.018884 0.302780
vt 0.148580 0.427955
vt 0.116156 0.427955
vt 0.083732 0.427955
vt 0.083732 0.302780
vn 0.000000 0.000000 1.000000
vn 1.000000 0.000000 0.000000
vn 0.000000 -1.000000 0.000000
vn -1.000000 0.000000 0.000000
vn 0.000000 1.000000 0.000000
vn 0.000001 1.000000 0.000000
vn 0.000001 -1.000000 0.000000
vn -0.000001 1.000000 0.000000
vn 0.000000 0.000000 -1.000000
vn 0.957598 -0.000000 0.288106
vn -0.339453 0.000000 -0.940623
vn -0.957603 0.000000 0.288091
vn 0.339454 -0.000000 -0.940623
vn -0.000013 0.000000 -1.000000
vn 0.346818 -0.000000 0.937932
vn 0.176168 -0.000000 0.984360
vn -0.176161 -0.000000 0.984361
vn -0.346819 0.000000 0.937932
usemtl Shed
s off
f 5/1/1 8/2/1 7/3/1 6/4/1
f 1/5/2 5/6/2 6/7/2 2/8/2
f 2/8/3 6/7/3 7/9/3 3/10/3
f 3/11/4 7/3/4 8/2/4 4/12/4
f 5/6/5 1/5/5 4/12/5 8/2/5
f 13/13/1 16/9/1 15/14/1 14/15/1
f 9/12/2 13/2/2 14/6/2 10/5/2
f 10/5/3 14/6/3 15/14/3 11/8/3
f 11/8/4 15/14/4 16/9/4 12/10/4
f 13/2/6 9/12/6 12/11/6 16/3/6
f 21/3/1 24/4/1 23/16/1 22/17/1
f 17/11/2 21/3/2 22/17/2 18/12/2
f 18/12/3 22/17/3 23/18/3 19/5/3
f 19/5/4 23/18/4 24/19/4 20/8/4
f 21/20/6 17/10/6 20/8/6 24/19/6
f 29/14/1 32/15/1 31/21/1 30/22/1
f 25/8/2 29/14/2 30/22/2 26/10/2
f 26/11/3 30/23/3 31/24/3 27/12/3
f 27/12/4 31/24/4 32/25/4 28/5/4
f 29/14/5 25/8/5 28/5/5 32/25/5
f 33/26/1 34/27/1 36/28/1 35/29/1
f 36/28/5 40/30/5 39/31/5 35/29/5
f 34/27/2 38/32/2 40/33/2 36/28/2
f 33/26/3 37/34/3 38/35/3 34/27/3
f 35/29/4 39/36/4 37/37/4 33/26/4
f 45/38/4 46/39/4 42/40/4 41/41/4
f 47/42/2 48/43/2 44/44/2 43/45/2
f 48/43/1 47/42/1 46/39/1 45/38/1
f 53/46/4 54/47/4 50/48/4 49/49/4
f 55/50/2 56/51/2 52/52/2 51/53/2
f 56/51/1 55/50/1 54/47/1 53/46/1
f 61/54/7 62/55/7 58/56/7 57/57/7
f 63/58/8 64/59/8 60/60/8 59/61/8
f 64/59/1 63/58/1 62/55/1 61/54/1
f 69/62/4 70/63/4 66/64/4 65/65/4
f 70/63/5 71/66/5 67/67/5 66/68/5
f 71/69/2 72/70/2 68/71/2 67/72/2
f 72/73/3 69/62/3 65/74/3 68/75/3
f 65/65/9 66/64/9 67/72/9 68/71/9
f 72/73/1 71/66/1 70/63/1 69/62/1
f 77/73/4 78/66/4 74/76/4 73/77/4
f 78/69/5 79/78/5 75/79/5 74/80/5
f 79/78/2 80/81/2 76/65/2 75/64/2
f 80/81/3 77/70/3 73/82/3 76/83/3
f 73/77/9 74/76/9 75/64/9 76/65/9
f 80/81/1 79/78/1 78/69/1 77/70/1
f 85/84/7 86/85/7 82/86/7 81/87/7
f 86/88/4 87/89/4 83/90/4 82/91/4
f 87/89/8 88/92/8 84/93/8 83/94/8
f 88/92/2 85/95/2 81/96/2 84/97/2
f 81/87/9 82/86/9 83/94/9 84/93/9
f 88/92/1 87/89/1 86/88/1 85/95/1
f 93/98/7 94/99/7 90/100/7 89/101/7
f 94/99/4 95/102/4 91/103/4 90/104/4
f 95/105/8 96/106/8 92/107/8 91/108/8
f 96/109/2 93/98/2 89/110/2 92/111/2
f 89/101/9 90/100/9 91/108/9 92/107/9
f 96/109/1 95/102/1 94/99/1 93/98/1
f 101/112/10 102/113/10 98/114/10 97/115/10
f 102/116/5 103/117/5 99/118/5 98/114/5
f 104/119/3 101/120/3 97/115/3 100/121/3
f 104/122/11 103/123/11 102/124/11 101/125/11
f 109/126/12 110/127/12 106/128/12 105/129/12
f 110/127/5 111/130/5 107/131/5 106/132/5
f 112/133/3 109/126/3 105/134/3 108/135/3
f 105/136/13 106/137/13 107/138/13 108/139/13
f 100/121/3 112/133/3 108/140/3 104/141/3
f 104/122/14 108/139/14 107/138/14 103/123/14
f 103/142/5 107/143/5 111/130/5 99/118/5
f 113/144/9 114/145/9 115/146/9 116/147/9
f 113/148/2 117/149/2 118/150/2 114/151/2
f 114/151/3 118/150/3 119/152/3 115/153/3
f 115/153/4 119/152/4 120/154/4 116/147/4
f 117/155/6 113/144/6 116/147/6 120/154/6
f 121/156/9 122/157/9 123/158/9 124/159/9
f 121/160/2 125/161/2 126/162/2 122/163/2
f 122/157/3 126/164/3 127/165/3 123/158/3
f 123/158/4 127/165/4 128/166/4 124/167/4
f 125/161/5 121/160/5 124/167/5 128/166/5
s 1
f 97/115/15 98/114/15 99/118/16 100/121/16
f 112/133/17 111/130/17 110/127/18 109/126/18
f 99/118/16 111/130/17 112/133/17 100/121/16
