# Blender v2.70 (sub 0) OBJ File: 'tincan.blend'
# www.blender.org
mtllib tincan.mtl
o TinCan_tincan
v 0.000000 1.000000 -0.800000
v 0.195090 0.980785 -0.800000
v 0.382683 0.923880 -0.800000
v 0.555570 0.831470 -0.800000
v 0.707107 0.707107 -0.800000
v 0.831470 0.555570 -0.800000
v 0.923880 0.382683 -0.800000
v 0.980785 0.195090 -0.800000
v 1.000000 0.000000 -0.800000
v 0.980785 -0.195090 -0.800000
v 0.923880 -0.382683 -0.800000
v 0.831470 -0.555570 -0.800000
v 0.707107 -0.707107 -0.800000
v 0.555570 -0.831470 -0.800000
v 0.382683 -0.923880 -0.800000
v 0.195090 -0.980785 -0.800000
v -0.000000 -1.000000 -0.800000
v -0.195091 -0.980785 -0.800000
v -0.382684 -0.923879 -0.800000
v -0.555571 -0.831469 -0.800000
v -0.707107 -0.707106 -0.800000
v -0.831470 -0.555570 -0.800000
v -0.923880 -0.382683 -0.800000
v -0.980785 -0.195089 -0.800000
v -1.000000 0.000001 -0.800000
v -0.980785 0.195091 -0.800000
v -0.923879 0.382684 -0.800000
v -0.831469 0.555571 -0.800000
v -0.707106 0.707108 -0.800000
v -0.555569 0.831470 -0.800000
v -0.382682 0.923880 -0.800000
v -0.195089 0.980786 -0.800000
v 0.000000 1.000000 1.000000
v 0.195090 0.980785 1.000000
v 0.382683 0.923880 1.000000
v 0.555570 0.831470 1.000000
v 0.707107 0.707107 1.000000
v 0.831470 0.555570 1.000000
v 0.923880 0.382683 1.000000
v 0.980785 0.195090 1.000000
v 1.000000 0.000000 1.000000
v 0.980785 -0.195090 1.000000
v 0.923880 -0.382683 1.000000
v 0.831470 -0.555570 1.000000
v 0.707107 -0.707107 1.000000
v 0.555570 -0.831470 1.000000
v 0.382683 -0.923880 1.000000
v 0.195090 -0.980785 1.000000
v -0.000000 -1.000000 1.000000
v -0.195091 -0.980785 1.000000
v -0.382684 -0.923879 1.000000
v -0.555571 -0.831469 1.000000
v -0.707107 -0.707106 1.000000
v -0.831470 -0.555570 1.000000
v -0.923880 -0.382683 1.000000
v -0.980785 -0.195089 1.000000
v -1.000000 0.000001 1.000000
v -0.980785 0.195091 1.000000
v -0.923879 0.382684 1.000000
v -0.831469 0.555571 1.000000
v -0.707106 0.707108 1.000000
v -0.555569 0.831470 1.000000
v -0.382682 0.923880 1.000000
v -0.195089 0.980786 1.000000
v -0.000000 1.050000 -1.682500
v -0.000000 1.050000 1.677500
v 0.204845 1.029824 -1.682500
v 0.204845 1.029824 1.677500
v 0.401818 0.970073 -1.682500
v 0.401818 0.970073 1.677500
v 0.583349 0.873043 -1.682500
v 0.583349 0.873043 1.677500
v 0.742462 0.742462 -1.682500
v 0.742462 0.742462 1.677500
v 0.873043 0.583349 -1.682500
v 0.873043 0.583349 1.677500
v 0.970073 0.401818 -1.682500
v 0.970073 0.401818 1.677500
v 1.029824 0.204845 -1.682500
v 1.029824 0.204845 1.677500
v 1.050000 0.000000 -1.682500
v 1.050000 0.000000 1.677500
v 1.029825 -0.204845 -1.682500
v 1.029825 -0.204845 1.677500
v 0.970074 -0.401817 -1.682500
v 0.970074 -0.401817 1.677500
v 0.873043 -0.583349 -1.682500
v 0.873043 -0.583349 1.677500
v 0.742462 -0.742462 -1.682500
v 0.742462 -0.742462 1.677500
v 0.583349 -0.873043 -1.682500
v 0.583349 -0.873043 1.677500
v 0.401817 -0.970074 -1.682500
v 0.401817 -0.970074 1.677500
v 0.204845 -1.029824 -1.682500
v 0.204845 -1.029824 1.677500
v -0.000000 -1.050000 -1.682500
v -0.000000 -1.050000 1.677500
v -0.204845 -1.029824 -1.682500
v -0.204845 -1.029824 1.677500
v -0.401818 -0.970073 -1.682500
v -0.401818 -0.970073 1.677500
v -0.583349 -0.873043 -1.682500
v -0.583349 -0.873043 1.677500
v -0.742463 -0.742462 -1.682500
v -0.742463 -0.742462 1.677500
v -0.873043 -0.583348 -1.682500
v -0.873043 -0.583348 1.677500
v -0.970074 -0.401817 -1.682500
v -0.970074 -0.401817 1.677500
v -1.029825 -0.204844 -1.682500
v -1.029825 -0.204844 1.677500
v -1.050000 0.000001 -1.682500
v -1.050000 0.000001 1.677500
v -1.029824 0.204846 -1.682500
v -1.029824 0.204846 1.677500
v -0.970073 0.401819 -1.682500
v -0.970073 0.401819 1.677500
v -0.873042 0.583350 -1.682500
v -0.873042 0.583350 1.677500
v -0.742461 0.742463 -1.682500
v -0.742461 0.742463 1.677500
v -0.583348 0.873044 -1.682500
v -0.583348 0.873044 1.677500
v -0.401816 0.970074 -1.682500
v -0.401816 0.970074 1.677500
v -0.204843 1.029825 -1.682500
v -0.204843 1.029825 1.677500
v -0.000000 1.050000 -0.842500
v 0.204845 1.029824 -0.842500
v 0.401818 0.970073 -0.842500
v 0.583349 0.873043 -0.842500
v 0.742462 0.742462 -0.842500
v 0.873043 0.583349 -0.842500
v 0.970073 0.401818 -0.842500
v 1.029824 0.204845 -0.842500
v 1.050000 0.000000 -0.842500
v 1.029825 -0.204845 -0.842500
v 0.970074 -0.401817 -0.842500
v 0.873043 -0.583349 -0.842500
v 0.742462 -0.742462 -0.842500
v 0.583349 -0.873043 -0.842500
v 0.401817 -0.970074 -0.842500
v 0.204845 -1.029824 -0.842500
v -0.000000 -1.050000 -0.842500
v -0.204845 -1.029824 -0.842500
v -0.401818 -0.970073 -0.842500
v -0.583349 -0.873043 -0.842500
v -0.742463 -0.742462 -0.842500
v -0.873043 -0.583348 -0.842500
v -0.970074 -0.401817 -0.842500
v -1.029825 -0.204844 -0.842500
v -1.050000 0.000001 -0.842500
v -1.029824 0.204846 -0.842500
v -0.970073 0.401819 -0.842500
v -0.873042 0.583350 -0.842500
v -0.742461 0.742463 -0.842500
v -0.583348 0.873044 -0.842500
v -0.401816 0.970074 -0.842500
v -0.204843 1.029825 -0.842500
v -0.000000 1.050000 1.047500
v 0.204845 1.029824 1.047500
v 0.401818 0.970073 1.047500
v 0.583349 0.873043 1.047500
v 0.742462 0.742462 1.047500
v 0.873043 0.583349 1.047500
v 0.970073 0.401818 1.047500
v 1.029824 0.204845 1.047500
v 1.050000 0.000000 1.047500
v 1.029825 -0.204845 1.047500
v 0.970074 -0.401817 1.047500
v 0.873043 -0.583349 1.047500
v 0.742462 -0.742462 1.047500
v 0.583349 -0.873043 1.047500
v 0.401817 -0.970074 1.047500
v 0.204845 -1.029824 1.047500
v -0.000000 -1.050000 1.047500
v -0.204845 -1.029824 1.047500
v -0.401818 -0.970073 1.047500
v -0.583349 -0.873043 1.047500
v -0.742463 -0.742462 1.047500
v -0.873043 -0.583348 1.047500
v -0.970074 -0.401817 1.047500
v -1.029825 -0.204844 1.047500
v -1.050000 0.000001 1.047500
v -1.029824 0.204846 1.047500
v -0.970073 0.401819 1.047500
v -0.873042 0.583350 1.047500
v -0.742461 0.742463 1.047500
v -0.583348 0.873044 1.047500
v -0.401816 0.970074 1.047500
v -0.204843 1.029825 1.047500
vt 0.277908 0.965142
vt 0.074662 0.880955
vt 0.362095 0.880955
vt 0.248726 0.668857
vt 0.065809 0.791078
vt 0.370947 0.851774
vt 0.248726 0.973995
vt 0.218378 0.976984
vt 0.188031 0.973995
vt 0.158849 0.965143
vt 0.108382 0.931422
vt 0.131955 0.950768
vt 0.089037 0.907849
vt 0.062820 0.821426
vt 0.065809 0.851774
vt 0.074661 0.761896
vt 0.108382 0.711430
vt 0.158849 0.677709
vt 0.089037 0.735002
vt 0.131955 0.692084
vt 0.218378 0.665868
vt 0.188030 0.668857
vt 0.277908 0.677709
vt 0.304802 0.692084
vt 0.328374 0.711430
vt 0.347720 0.735002
vt 0.362095 0.761896
vt 0.370947 0.791078
vt 0.373936 0.821426
vt 0.347720 0.907849
vt 0.328374 0.931422
vt 0.304802 0.950767
vt 0.687500 0.220112
vt 0.656250 0.220112
vt 0.656250 0.210153
vt 0.687500 0.210153
vt 0.343750 0.641912
vt 0.375000 0.641912
vt 0.375000 0.653043
vt 0.343750 0.653043
vt 0.812500 0.641912
vt 0.843750 0.641912
vt 0.843750 0.653043
vt 0.812500 0.653043
vt 0.468750 0.220112
vt 0.437500 0.220112
vt 0.437500 0.210153
vt 0.468750 0.210153
vt 0.125000 0.641912
vt 0.156250 0.641912
vt 0.156250 0.653043
vt 0.125000 0.653043
vt 0.593750 0.641912
vt 0.625000 0.641912
vt 0.625000 0.653043
vt 0.593750 0.653043
vt 0.937500 0.220112
vt 0.906250 0.220112
vt 0.906250 0.210153
vt 0.937500 0.210153
vt 0.250000 0.220112
vt 0.218750 0.220112
vt 0.218750 0.210153
vt 0.250000 0.210153
vt 0.406250 0.641912
vt 0.406250 0.653043
vt 0.718750 0.220112
vt 0.718750 0.210153
vt 0.875000 0.641912
vt 0.875000 0.653043
vt 0.062500 0.220112
vt 0.031250 0.220112
vt 0.031250 0.210153
vt 0.062500 0.210153
vt 0.500000 0.220112
vt 0.500000 0.210153
vt 0.187500 0.641912
vt 0.187500 0.653043
vt 0.968750 0.220112
vt 0.968750 0.210153
vt 0.656250 0.641912
vt 0.656250 0.653043
vt 0.281250 0.220112
vt 0.281250 0.210153
vt 0.750000 0.220112
vt 0.750000 0.210153
vt 0.437500 0.641912
vt 0.437500 0.653043
vt 0.906250 0.641912
vt 0.906250 0.653043
vt 0.000000 0.220112
vt 0.000000 0.210153
vt 0.531250 0.220112
vt 0.531250 0.210153
vt 0.218750 0.641912
vt 0.218750 0.653043
vt 0.687500 0.641912
vt 0.687500 0.653043
vt 1.000000 0.220112
vt 1.000000 0.210153
vt 0.312500 0.220112
vt 0.312500 0.210153
vt 0.468750 0.641912
vt 0.468750 0.653043
vt 0.781250 0.220112
vt 0.781250 0.210153
vt 0.937500 0.641912
vt 0.937500 0.653043
vt 0.093750 0.220112
vt 0.093750 0.210153
vt 0.562500 0.220112
vt 0.562500 0.210153
vt 0.250000 0.641912
vt 0.250000 0.653043
vt 0.718750 0.641912
vt 0.718750 0.653043
vt 0.343750 0.220112
vt 0.343750 0.210153
vt 0.031250 0.641912
vt 0.062500 0.641912
vt 0.062500 0.653043
vt 0.031250 0.653043
vt 0.500000 0.641912
vt 0.500000 0.653043
vt 0.812500 0.220112
vt 0.812500 0.210153
vt 0.125000 0.220112
vt 0.125000 0.210153
vt 0.968750 0.641912
vt 0.968750 0.653043
vt 0.593750 0.220112
vt 0.593750 0.210153
vt 0.281250 0.641912
vt 0.281250 0.653043
vt 0.750000 0.641912
vt 0.750000 0.653043
vt 0.375000 0.220112
vt 0.375000 0.210153
vt 0.000000 0.641912
vt 0.000000 0.653043
vt 0.531250 0.641912
vt 0.531250 0.653043
vt 0.843750 0.220112
vt 0.843750 0.210153
vt 1.000000 0.641912
vt 1.000000 0.653043
vt 0.156250 0.220112
vt 0.156250 0.210153
vt 0.625000 0.220112
vt 0.625000 0.210153
vt 0.312500 0.641912
vt 0.312500 0.653043
vt 0.781250 0.641912
vt 0.781250 0.653043
vt 0.406250 0.220112
vt 0.406250 0.210153
vt 0.093750 0.641912
vt 0.093750 0.653043
vt 0.875000 0.220112
vt 0.875000 0.210153
vt 0.562500 0.641912
vt 0.562500 0.653043
vt 0.187500 0.220112
vt 0.187500 0.210153
vt 1.000000 0.800673
vt 0.968750 0.800673
vt 0.937500 0.800673
vt 0.906250 0.800673
vt 0.875000 0.800673
vt 0.843750 0.800673
vt 0.812500 0.800673
vt 0.781250 0.800673
vt 0.750000 0.800673
vt 0.718750 0.800673
vt 0.687500 0.800673
vt 0.656250 0.800673
vt 0.625000 0.800673
vt 0.593750 0.800673
vt 0.562500 0.800673
vt 0.531250 0.800673
vt 0.500000 0.800673
vt 0.468750 0.800673
vt 0.437500 0.800673
vt 0.406250 0.800673
vt 0.375000 0.800673
vt 0.343750 0.800673
vt 0.312500 0.800673
vt 0.281250 0.800673
vt 0.250000 0.800673
vt 0.218750 0.800673
vt 0.187500 0.800673
vt 0.156250 0.800673
vt 0.125000 0.800673
vt 0.093750 0.800673
vt 0.062500 0.800673
vt 0.031250 0.800673
vt 0.000000 0.800673
vt 1.000000 0.013313
vt 0.968750 0.013313
vt 0.937500 0.013313
vt 0.906250 0.013313
vt 0.875000 0.013313
vt 0.843750 0.013313
vt 0.812500 0.013313
vt 0.781250 0.013313
vt 0.750000 0.013313
vt 0.718750 0.013313
vt 0.687500 0.013313
vt 0.656250 0.013313
vt 0.625000 0.013313
vt 0.593750 0.013313
vt 0.562500 0.013313
vt 0.531250 0.013313
vt 0.500000 0.013313
vt 0.468750 0.013313
vt 0.437500 0.013313
vt 0.406250 0.013313
vt 0.375000 0.013313
vt 0.343750 0.013313
vt 0.312500 0.013313
vt 0.281250 0.013313
vt 0.250000 0.013313
vt 0.218750 0.013313
vt 0.187500 0.013313
vt 0.156250 0.013313
vt 0.125000 0.013313
vt 0.093750 0.013313
vt 0.062500 0.013313
vt 0.031250 0.013313
vt 0.000000 0.013313
vn 0.000000 0.000000 1.000000
vn -0.000000 0.000000 -1.000000
vn -0.000014 0.000000 1.000000
vn 0.000005 0.000000 1.000000
vn -0.000005 0.000000 1.000000
vn -0.000002 0.000000 1.000000
vn -0.000001 0.000000 -1.000000
vn -0.000001 0.000000 1.000000
vn -0.000014 0.000000 -1.000000
vn -0.000005 0.000000 -1.000000
vn 0.000004 0.000000 -1.000000
vn -0.000002 0.000000 -1.000000
vn 0.000001 0.000000 -1.000000
vn 0.834071 -0.345470 0.430036
vn 0.750633 -0.501572 0.430036
vn 0.758324 -0.506699 0.410047
vn 0.842616 -0.349010 0.410047
vn -0.760674 -0.508255 -0.403699
vn -0.646901 -0.646901 -0.403699
vn -0.652333 -0.652333 -0.385815
vn -0.767083 -0.512528 -0.385815
vn 0.845241 0.350108 -0.403699
vn 0.760674 0.508255 -0.403699
vn 0.767083 0.512528 -0.385815
vn 0.852321 0.353038 -0.385815
vn -0.176122 -0.885433 0.430036
vn -0.345470 -0.834071 0.430036
vn -0.349010 -0.842616 0.410047
vn -0.177923 -0.894528 0.410047
vn -0.646901 0.646901 -0.403699
vn -0.760674 0.508286 -0.403699
vn -0.767083 0.512528 -0.385815
vn -0.652333 0.652333 -0.385815
vn 0.508255 -0.760674 -0.403699
vn 0.646901 -0.646901 -0.403699
vn 0.652333 -0.652333 -0.385815
vn 0.512528 -0.767083 -0.385815
vn 0.345470 0.834071 0.430036
vn 0.501572 0.750633 0.430036
vn 0.506699 0.758324 0.410047
vn 0.349010 0.842616 0.410047
vn -0.902799 0.000000 0.430036
vn -0.885433 0.176122 0.430036
vn -0.894528 0.177923 0.410047
vn -0.912046 0.000000 0.410047
vn -0.508286 -0.760674 -0.403699
vn -0.512528 -0.767083 -0.385815
vn 0.885433 -0.176122 0.430036
vn 0.894528 -0.177923 0.410047
vn 0.646901 0.646901 -0.403699
vn 0.652333 0.652333 -0.385815
vn -0.345470 0.834071 0.430036
vn -0.176122 0.885433 0.430036
vn -0.177923 0.894528 0.410047
vn -0.349010 0.842616 0.410047
vn 0.000000 -0.902799 0.430036
vn 0.000000 -0.912046 0.410047
vn -0.845241 0.350108 -0.403699
vn -0.852321 0.353038 -0.385815
vn 0.176122 0.885433 0.430036
vn 0.177923 0.894528 0.410047
vn 0.760674 -0.508255 -0.403699
vn 0.767083 -0.512528 -0.385815
vn -0.885433 -0.176122 0.430036
vn -0.894528 -0.177923 0.410047
vn 0.902799 0.000000 0.430036
vn 0.912046 0.000000 0.410047
vn -0.350108 -0.845241 -0.403699
vn -0.353038 -0.852321 -0.385815
vn 0.508255 0.760674 -0.403699
vn 0.512528 0.767083 -0.385815
vn 0.000000 0.902799 0.430036
vn 0.000000 0.912046 0.410047
vn 0.176122 -0.885433 0.430036
vn 0.177923 -0.894528 0.410047
vn -0.897305 0.178472 -0.403699
vn -0.904813 0.179968 -0.385815
vn 0.845241 -0.350108 -0.403699
vn 0.852321 -0.353038 -0.385815
vn -0.834071 -0.345470 0.430036
vn -0.842616 -0.349010 0.410047
vn -0.178472 -0.897305 -0.403699
vn -0.179968 -0.904813 -0.385815
vn 0.885433 0.176122 0.430036
vn 0.894528 0.177923 0.410047
vn 0.350108 0.845241 -0.403699
vn 0.353038 0.852321 -0.385815
vn -0.501541 0.750633 0.430036
vn -0.506699 0.758324 0.410047
vn 0.345470 -0.834071 0.430036
vn 0.349010 -0.842616 0.410047
vn -0.914884 0.000000 -0.403699
vn -0.922544 0.000000 -0.385815
vn 0.897305 -0.178472 -0.403699
vn 0.904813 -0.179968 -0.385815
vn -0.750633 -0.501572 0.430036
vn -0.758324 -0.506699 0.410047
vn -0.178472 0.897305 -0.403699
vn -0.350108 0.845241 -0.403699
vn -0.353038 0.852321 -0.385815
vn -0.179968 0.904813 -0.385815
vn 0.000000 -0.914884 -0.403699
vn 0.000000 -0.922544 -0.385815
vn 0.834071 0.345470 0.430036
vn 0.842616 0.349010 0.410047
vn -0.638356 0.638356 0.430036
vn -0.644917 0.644917 0.410047
vn 0.178472 0.897305 -0.403699
vn 0.179968 0.904813 -0.385815
vn 0.501572 -0.750633 0.430036
vn 0.506699 -0.758324 0.410047
vn -0.897305 -0.178472 -0.403699
vn -0.904813 -0.179968 -0.385815
vn 0.914884 0.000000 -0.403699
vn 0.922544 0.000000 -0.385815
vn -0.638356 -0.638356 0.430036
vn -0.644917 -0.644917 0.410047
vn 0.000000 0.914884 -0.403699
vn 0.000000 0.922544 -0.385815
vn 0.178472 -0.897305 -0.403699
vn 0.179968 -0.904813 -0.385815
vn 0.750633 0.501572 0.430036
vn 0.758324 0.506699 0.410047
vn -0.750633 0.501572 0.430036
vn -0.758324 0.506699 0.410047
vn 0.638356 -0.638356 0.430036
vn 0.644917 -0.644917 0.410047
vn -0.845241 -0.350108 -0.403699
vn -0.852321 -0.353038 -0.385815
vn 0.897305 0.178472 -0.403699
vn 0.904813 0.179968 -0.385815
vn -0.501572 -0.750633 0.430036
vn -0.506699 -0.758324 0.410047
vn -0.508255 0.760674 -0.403699
vn -0.512528 0.767083 -0.385815
vn 0.638356 0.638356 0.430036
vn 0.644917 0.644917 0.410047
vn 0.350108 -0.845241 -0.403699
vn 0.353038 -0.852321 -0.385815
vn -0.834071 0.345470 0.430036
vn -0.842616 0.349010 0.410047
vn 0.000000 1.000000 0.000000
vn 0.195090 0.980785 0.000000
vn 0.382683 0.923880 0.000000
vn 0.555570 0.831470 0.000000
vn 0.707107 0.707107 0.000000
vn 0.831470 0.555570 0.000000
vn 0.923880 0.382683 0.000000
vn 0.980785 0.195090 0.000000
vn 1.000000 0.000000 0.000000
vn 0.980785 -0.195090 0.000000
vn 0.923880 -0.382683 0.000000
vn 0.831470 -0.555570 0.000000
vn 0.707107 -0.707107 0.000000
vn 0.555570 -0.831470 0.000000
vn 0.382683 -0.923880 0.000000
vn 0.195090 -0.980785 0.000000
vn -0.000000 -1.000000 0.000000
vn -0.195091 -0.980785 0.000000
vn -0.382684 -0.923879 0.000000
vn -0.555571 -0.831469 0.000000
vn -0.707107 -0.707106 0.000000
vn -0.831470 -0.555570 0.000000
vn -0.923880 -0.382683 0.000000
vn -0.980785 -0.195089 0.000000
vn -1.000000 0.000001 0.000000
vn -0.980785 0.195091 0.000000
vn -0.923879 0.382684 0.000000
vn -0.831469 0.555571 0.000000
vn -0.707106 0.707108 0.000000
vn -0.555569 0.831470 0.000000
vn -0.382682 0.923880 0.000000
vn -0.195089 0.980786 0.000000
vn 0.382684 0.923880 0.000000
usemtl TinCan
s off
f 70/1/1 118/2/1 78/3/1
f 95/4/2 111/5/2 79/6/2
f 70/1/1 68/7/1 66/8/1
f 66/8/1 128/9/1 126/10/1
f 122/11/1 70/1/1 124/12/1
f 122/11/1 120/13/1 118/2/1
f 114/14/3 112/5/3 116/15/3
f 110/16/4 118/2/4 112/5/4
f 106/17/5 102/18/5 108/19/5
f 106/17/1 104/20/1 102/18/1
f 98/21/1 96/4/1 100/22/1
f 94/23/1 110/16/1 96/4/1
f 94/23/1 92/24/1 90/25/1
f 90/25/1 88/26/1 86/27/1
f 86/27/1 84/28/1 82/29/1
f 82/29/1 80/6/1 78/3/1
f 78/3/1 76/30/1 74/31/1
f 74/31/1 72/32/1 70/1/1
f 70/1/1 66/8/1 126/10/1
f 118/2/1 70/1/1 122/11/1
f 112/5/6 118/2/6 116/15/6
f 69/1/2 71/32/2 73/31/2
f 96/4/1 110/16/1 102/18/1
f 86/27/1 118/2/1 90/25/1
f 86/27/1 82/29/1 78/3/1
f 78/3/1 74/31/1 70/1/1
f 70/1/1 126/10/1 124/12/1
f 96/4/1 102/18/1 100/22/1
f 94/23/1 118/2/1 110/16/1
f 73/31/7 79/6/7 65/8/7
f 118/2/1 94/23/1 90/25/1
f 118/2/1 86/27/1 78/3/1
f 102/18/8 110/16/8 108/19/8
f 105/17/2 111/5/2 99/22/2
f 79/6/2 73/31/2 77/3/2
f 83/28/9 85/27/9 81/29/9
f 85/27/10 79/6/10 81/29/10
f 91/24/2 93/23/2 95/4/2
f 95/4/2 97/21/2 99/22/2
f 103/20/2 105/17/2 101/18/2
f 107/19/2 111/5/2 105/17/2
f 107/19/2 109/16/2 111/5/2
f 111/5/2 113/14/2 115/15/2
f 119/13/2 111/5/2 117/2/2
f 111/5/2 115/15/2 117/2/2
f 121/11/11 123/12/11 125/10/11
f 69/1/2 73/31/2 65/8/2
f 73/31/2 75/30/2 77/3/2
f 101/18/12 105/17/12 99/22/12
f 85/27/2 89/25/2 95/4/2
f 111/5/13 121/11/13 125/10/13
f 65/8/2 67/7/2 69/1/2
f 85/27/2 87/26/2 89/25/2
f 125/10/13 127/9/13 65/8/13
f 79/6/2 125/10/2 65/8/2
f 79/6/13 85/27/13 95/4/13
f 89/25/2 91/24/2 95/4/2
f 111/5/13 119/13/13 121/11/13
f 111/5/2 95/4/2 99/22/2
f 111/5/2 125/10/2 79/6/2
s 1
f 11/33/14 12/34/15 140/35/16 139/36/17
f 54/37/18 53/38/19 181/39/20 182/40/21
f 39/41/22 38/42/23 166/43/24 167/44/25
f 18/45/26 19/46/27 147/47/28 146/48/29
f 61/49/30 60/50/31 188/51/32 189/52/33
f 46/53/34 45/54/35 173/55/36 174/56/37
f 3/57/38 4/58/39 132/59/40 131/60/41
f 25/61/42 26/62/43 154/63/44 153/64/45
f 53/38/19 52/65/46 180/66/47 181/39/20
f 10/67/48 11/33/14 139/36/17 138/68/49
f 38/42/23 37/69/50 165/70/51 166/43/24
f 31/71/52 32/72/53 160/73/54 159/74/55
f 17/75/56 18/45/26 146/48/29 145/76/57
f 60/50/31 59/77/58 187/78/59 188/51/32
f 2/79/60 3/57/38 131/60/41 130/80/61
f 45/54/35 44/81/62 172/82/63 173/55/36
f 24/83/64 25/61/42 153/64/45 152/84/65
f 9/85/66 10/67/48 138/68/49 137/86/67
f 52/65/46 51/87/68 179/88/69 180/66/47
f 37/69/50 36/89/70 164/90/71 165/70/51
f 32/72/53 1/91/72 129/92/73 160/73/54
f 16/93/74 17/75/56 145/76/57 144/94/75
f 59/77/58 58/95/76 186/96/77 187/78/59
f 44/81/62 43/97/78 171/98/79 172/82/63
f 1/99/72 2/79/60 130/80/61 129/100/73
f 23/101/80 24/83/64 152/84/65 151/102/81
f 51/87/68 50/103/82 178/104/83 179/88/69
f 8/105/84 9/85/66 137/86/67 136/106/85
f 36/89/70 35/107/86 163/108/87 164/90/71
f 30/109/88 31/71/52 159/74/55 158/110/89
f 15/111/90 16/93/74 144/94/75 143/112/91
f 58/95/76 57/113/92 185/114/93 186/96/77
f 43/97/78 42/115/94 170/116/95 171/98/79
f 22/117/96 23/101/80 151/102/81 150/118/97
f 64/119/98 63/120/99 191/121/100 192/122/101
f 50/103/82 49/123/102 177/124/103 178/104/83
f 7/125/104 8/105/84 136/106/85 135/126/105
f 29/127/106 30/109/88 158/110/89 157/128/107
f 35/107/86 34/129/108 162/130/109 163/108/87
f 14/131/110 15/111/90 143/112/91 142/132/111
f 57/113/92 56/133/112 184/134/113 185/114/93
f 42/115/94 41/135/114 169/136/115 170/116/95
f 21/137/116 22/117/96 150/118/97 149/138/117
f 33/139/118 64/119/98 192/122/101 161/140/119
f 49/123/102 48/141/120 176/142/121 177/124/103
f 6/143/122 7/125/104 135/126/105 134/144/123
f 34/129/108 33/145/118 161/146/119 162/130/109
f 28/147/124 29/127/106 157/128/107 156/148/125
f 13/149/126 14/131/110 142/132/111 141/150/127
f 56/133/112 55/151/128 183/152/129 184/134/113
f 41/135/114 40/153/130 168/154/131 169/136/115
f 20/155/132 21/137/116 149/138/117 148/156/133
f 63/120/99 62/157/134 190/158/135 191/121/100
f 5/159/136 6/143/122 134/144/123 133/160/137
f 48/141/120 47/161/138 175/162/139 176/142/121
f 27/163/140 28/147/124 156/148/125 155/164/141
f 12/34/15 13/149/126 141/150/127 140/35/16
f 55/151/128 54/37/18 182/40/21 183/152/129
f 40/153/130 39/41/22 167/44/25 168/154/131
f 19/46/27 20/155/132 148/156/133 147/47/28
f 62/157/134 61/49/30 189/52/33 190/158/135
f 47/161/138 46/53/34 174/56/37 175/162/139
f 4/58/39 5/159/136 133/160/137 132/59/40
f 26/62/43 27/163/140 155/164/141 154/63/44
f 1/99/72 33/145/118 34/129/108 2/79/60
f 2/79/60 34/129/108 35/107/86 3/57/38
f 3/57/38 35/107/86 36/89/70 4/58/39
f 4/58/39 36/89/70 37/69/50 5/159/136
f 5/159/136 37/69/50 38/42/23 6/143/122
f 6/143/122 38/42/23 39/41/22 7/125/104
f 7/125/104 39/41/22 40/153/130 8/105/84
f 8/105/84 40/153/130 41/135/114 9/85/66
f 9/85/66 41/135/114 42/115/94 10/67/48
f 10/67/48 42/115/94 43/97/78 11/33/14
f 11/33/14 43/97/78 44/81/62 12/34/15
f 12/34/15 44/81/62 45/54/35 13/149/126
f 13/149/126 45/54/35 46/53/34 14/131/110
f 14/131/110 46/53/34 47/161/138 15/111/90
f 15/111/90 47/161/138 48/141/120 16/93/74
f 16/93/74 48/141/120 49/123/102 17/75/56
f 17/75/56 49/123/102 50/103/82 18/45/26
f 18/45/26 50/103/82 51/87/68 19/46/27
f 19/46/27 51/87/68 52/65/46 20/155/132
f 20/155/132 52/65/46 53/38/19 21/137/116
f 21/137/116 53/38/19 54/37/18 22/117/96
f 22/117/96 54/37/18 55/151/128 23/101/80
f 23/101/80 55/151/128 56/133/112 24/83/64
f 24/83/64 56/133/112 57/113/92 25/61/42
f 25/61/42 57/113/92 58/95/76 26/62/43
f 26/62/43 58/95/76 59/77/58 27/163/140
f 27/163/140 59/77/58 60/50/31 28/147/124
f 28/147/124 60/50/31 61/49/30 29/127/106
f 29/127/106 61/49/30 62/157/134 30/109/88
f 30/109/88 62/157/134 63/120/99 31/71/52
f 32/72/53 64/119/98 33/139/118 1/91/72
f 31/71/52 63/120/99 64/119/98 32/72/53
f 161/146/119 66/165/142 68/166/143 162/130/109
f 162/130/109 68/166/143 70/167/144 163/108/87
f 163/108/87 70/167/144 72/168/145 164/90/71
f 164/90/71 72/168/145 74/169/146 165/70/51
f 165/70/51 74/169/146 76/170/147 166/43/24
f 166/43/24 76/170/147 78/171/148 167/44/25
f 167/44/25 78/171/148 80/172/149 168/154/131
f 168/154/131 80/172/149 82/173/150 169/136/115
f 169/136/115 82/173/150 84/174/151 170/116/95
f 170/116/95 84/174/151 86/175/152 171/98/79
f 171/98/79 86/175/152 88/176/153 172/82/63
f 172/82/63 88/176/153 90/177/154 173/55/36
f 173/55/36 90/177/154 92/178/155 174/56/37
f 174/56/37 92/178/155 94/179/156 175/162/139
f 175/162/139 94/179/156 96/180/157 176/142/121
f 176/142/121 96/180/157 98/181/158 177/124/103
f 177/124/103 98/181/158 100/182/159 178/104/83
f 178/104/83 100/182/159 102/183/160 179/88/69
f 179/88/69 102/183/160 104/184/161 180/66/47
f 180/66/47 104/184/161 106/185/162 181/39/20
f 181/39/20 106/185/162 108/186/163 182/40/21
f 182/40/21 108/186/163 110/187/164 183/152/129
f 183/152/129 110/187/164 112/188/165 184/134/113
f 184/134/113 112/188/165 114/189/166 185/114/93
f 185/114/93 114/189/166 116/190/167 186/96/77
f 186/96/77 116/190/167 118/191/168 187/78/59
f 187/78/59 118/191/168 120/192/169 188/51/32
f 188/51/32 120/192/169 122/193/170 189/52/33
f 189/52/33 122/193/170 124/194/171 190/158/135
f 190/158/135 124/194/171 126/195/172 191/121/100
f 192/122/101 128/196/173 66/197/142 161/140/119
f 191/121/100 126/195/172 128/196/173 192/122/101
f 65/198/142 129/100/73 130/80/61 67/199/143
f 67/199/143 130/80/61 131/60/41 69/200/174
f 69/200/174 131/60/41 132/59/40 71/201/145
f 71/201/145 132/59/40 133/160/137 73/202/146
f 73/202/146 133/160/137 134/144/123 75/203/147
f 75/203/147 134/144/123 135/126/105 77/204/148
f 77/204/148 135/126/105 136/106/85 79/205/149
f 79/205/149 136/106/85 137/86/67 81/206/150
f 81/206/150 137/86/67 138/68/49 83/207/151
f 83/207/151 138/68/49 139/36/17 85/208/152
f 85/208/152 139/36/17 140/35/16 87/209/153
f 87/209/153 140/35/16 141/150/127 89/210/154
f 89/210/154 141/150/127 142/132/111 91/211/155
f 91/211/155 142/132/111 143/112/91 93/212/156
f 93/212/156 143/112/91 144/94/75 95/213/157
f 95/213/157 144/94/75 145/76/57 97/214/158
f 97/214/158 145/76/57 146/48/29 99/215/159
f 99/215/159 146/48/29 147/47/28 101/216/160
f 101/216/160 147/47/28 148/156/133 103/217/161
f 103/217/161 148/156/133 149/138/117 105/218/162
f 105/218/162 149/138/117 150/118/97 107/219/163
f 107/219/163 150/118/97 151/102/81 109/220/164
f 109/220/164 151/102/81 152/84/65 111/221/165
f 111/221/165 152/84/65 153/64/45 113/222/166
f 113/222/166 153/64/45 154/63/44 115/223/167
f 115/223/167 154/63/44 155/164/141 117/224/168
f 117/224/168 155/164/141 156/148/125 119/225/169
f 119/225/169 156/148/125 157/128/107 121/226/170
f 121/226/170 157/128/107 158/110/89 123/227/171
f 123/227/171 158/110/89 159/74/55 125/228/172
f 127/229/173 160/73/54 129/92/73 65/230/142
f 125/228/172 159/74/55 160/73/54 127/229/173
