# Blender v2.70 (sub 0) OBJ File: 'triangleroof.blend'
# www.blender.org
mtllib triangleroof.mtl
o TriangleRoof_triangleroof
v -8.001659 -4.107161 5.087787
v -8.001659 4.107161 5.087787
v 0.110897 4.107161 5.087787
v 0.110897 -4.107161 5.087787
v -8.001659 -4.107161 5.292434
v -8.001659 4.107161 5.292434
v 0.110897 4.107161 5.292434
v 0.110897 -4.107161 5.292434
v -3.945381 4.107161 5.292434
v -3.945381 4.107161 5.087787
v -3.945381 -4.107161 5.292434
v -3.945381 -4.107161 5.087787
v 0.110897 4.107161 7.767992
v 0.110897 -4.107161 7.767992
v -3.945381 4.107161 7.767992
v -3.945381 -4.107161 7.767992
vt 0.000249 0.913563
vt 0.482072 0.913565
vt 0.482072 0.925568
vt 0.000249 0.925568
vt 0.539147 0.192653
vt 0.539148 0.927479
vt 0.502075 0.927479
vt 0.502074 0.192653
vt 0.482081 0.767855
vt 0.000249 0.767855
vt 0.000249 0.755851
vt 0.482081 0.755850
vt 0.538859 0.927414
vt 0.538859 0.189863
vt 0.501648 0.189863
vt 0.501648 0.927415
vt 0.987614 0.927478
vt 0.502075 0.192653
vt 0.482147 0.755426
vt 0.000314 0.755427
vt 0.000314 0.476684
vt 0.482147 0.476684
vt 0.000365 0.767887
vt 0.482197 0.767887
vt 0.482197 0.913098
vt 0.000365 0.913098
vt 0.000249 0.476610
vt 0.482082 0.476610
vt 0.482082 0.755353
vt 0.000249 0.755353
vt 0.482081 0.913065
vt 0.000249 0.913065
vt 0.482082 0.000249
vt 0.482082 0.238181
vt 0.000249 0.238181
vt 0.000249 0.000249
vt 0.988989 0.927414
vt 0.482082 0.476112
vt 0.000249 0.476112
vn -1.000000 0.000000 0.000000
vn 0.000000 1.000000 0.000002
vn 1.000000 0.000000 0.000000
vn 0.000000 -1.000000 0.000002
vn 0.000000 -1.000000 0.000000
vn 0.000000 1.000000 -0.000002
vn 0.000000 -1.000000 -0.000002
vn 0.000000 1.000000 0.000000
vn -0.520948 0.000000 0.853589
vn 0.000000 0.000000 -1.000000
usemtl TriangleRoof
s off
f 5/1/1 6/2/1 2/3/1 1/4/1
f 9/5/2 7/6/2 3/7/2 10/8/2
f 7/9/3 8/10/3 4/11/3 3/12/3
f 11/13/4 5/14/4 1/15/4 12/16/4
f 8/6/5 14/17/5 11/5/5
f 6/14/6 9/13/6 10/16/6 2/15/6
f 8/6/7 11/5/7 12/18/7 4/7/7
f 7/6/8 9/5/8 13/17/8
f 14/19/9 13/20/9 9/21/9 11/22/9
f 11/23/3 9/24/3 15/25/3 16/26/3
f 16/27/9 15/28/9 6/29/9 5/30/9
f 8/10/3 7/9/3 13/31/3 14/32/3
f 2/33/10 10/34/10 12/35/10 1/36/10
f 9/13/8 6/14/8 15/37/8
f 5/14/5 11/13/5 16/37/5
f 3/38/10 4/39/10 12/35/10 10/34/10
