# Blender v2.70 (sub 0) OBJ File: 'test_scene.blend'
# www.blender.org
mtllib window_glass.mtl
o Cube_window_glass
v -0.022715 -0.526221 -0.743947
v -0.022715 0.526221 -0.743947
v 0.022715 0.526221 -0.743947
v 0.022715 -0.526221 -0.743947
v -0.022715 -0.526221 0.743947
v -0.022715 0.526221 0.743947
v 0.022715 0.526221 0.743947
v 0.022715 -0.526221 0.743947
vt 0.000000 0.000000
vt 1.000000 0.000000
vt 1.000000 1.000000
vt 0.000000 1.000000
vn -1.000000 0.000000 0.000000
vn 0.000000 1.000000 0.000000
vn 1.000000 0.000000 0.000000
vn 0.000000 -1.000000 0.000000
vn 0.000000 0.000000 -1.000000
vn 0.000000 0.000000 1.000000
usemtl Glass
s off
f 5/1/1 6/2/1 2/3/1 1/4/1
f 6/1/2 7/2/2 3/3/2 2/4/2
f 7/1/3 8/2/3 4/3/3 3/4/3
f 8/1/4 5/2/4 1/3/4 4/4/4
f 1/1/5 2/2/5 3/3/5 4/4/5
f 8/1/6 7/2/6 6/3/6 5/4/6
