# Blender v2.70 (sub 0) OBJ File: 'window_glass.blend'
# www.blender.org
mtllib window_glass_broken.mtl
o WindowGlassBroken_window_glass_broken
v -0.018399 -0.410255 -0.502164
v -0.018399 0.410255 -0.502164
v 0.018399 0.410255 -0.502164
v 0.018399 -0.410255 -0.502164
v -0.018399 0.410255 0.502164
v 0.018399 0.410255 0.502164
v -0.018399 0.151290 0.502164
v -0.018399 0.064324 -0.502164
v 0.018399 0.151290 0.502164
v 0.018399 0.064324 -0.502164
v -0.018399 -0.410255 -0.219474
v -0.018399 -0.324582 -0.055035
v 0.018399 -0.324582 -0.055035
v 0.018399 -0.410255 -0.219474
v -0.018399 -0.171283 0.036100
v -0.018399 0.077384 0.243129
v -0.018399 -0.022804 0.061387
v -0.018399 0.225862 0.181772
v 0.018399 0.225862 0.181772
v 0.018399 0.077384 0.243129
v 0.018399 -0.022804 0.061387
v 0.018399 -0.171283 0.036100
vt 0.198999 0.001001
vt 0.001001 0.001001
vt 0.001001 0.398999
vt 0.198999 0.398999
vt 0.398999 0.598999
vt 0.398999 0.401001
vt 0.001001 0.401001
vt 0.001001 0.598999
vt 0.398999 0.398999
vt 0.398999 0.001001
vt 0.201001 0.001001
vt 0.201001 0.398999
vt 0.401001 0.798999
vt 0.798999 0.798999
vt 0.798999 0.601001
vt 0.401001 0.601001
vt 0.598999 0.001001
vt 0.401001 0.001001
vt 0.401001 0.398999
vt 0.598999 0.398999
vt 0.000000 0.000000
vt 0.578395 0.000000
vt 0.000000 0.281473
vt 0.798999 0.598999
vt 0.798999 0.401001
vt 0.401001 0.401001
vt 0.401001 0.598999
vt 1.000000 0.000000
vt 0.775271 0.680989
vt 1.000000 1.000000
vt 0.684385 1.000000
vt 0.594313 0.742081
vt 0.472207 0.561123
vt 0.104415 0.445202
vt 0.291248 0.535945
vt 0.798999 0.398999
vt 0.798999 0.001001
vt 0.601001 0.001001
vt 0.601001 0.398999
vt 0.398999 0.801001
vt 0.201001 0.801001
vt 0.201001 0.998999
vt 0.398999 0.998999
vt 0.001001 0.798999
vt 0.398999 0.798999
vt 0.398999 0.601001
vt 0.001001 0.601001
vt 0.998999 0.998999
vt 0.998999 0.601001
vt 0.801001 0.601001
vt 0.801001 0.998999
vt 0.798999 0.998999
vt 0.798999 0.801001
vt 0.401001 0.801001
vt 0.401001 0.998999
vn 0.000000 1.000000 0.000000
vn 0.000000 -1.000000 0.000000
vn 0.000000 0.000000 -1.000000
vn 0.000000 0.000000 1.000000
vn 1.000000 0.000000 0.000000
vn -1.000000 0.000000 0.000000
vn 0.000000 -0.886852 0.462053
vn 0.000000 -0.511011 0.859574
vn 0.000000 -0.167890 0.985806
vn -0.000001 -0.875746 0.482771
vn 0.000000 0.381913 0.924198
vn 0.000000 -0.973966 -0.226694
usemtl Glass
s off
f 5/1/1 6/2/1 3/3/1 2/4/1
f 14/5/2 11/6/2 1/7/2 4/8/2
f 8/9/3 2/10/3 3/11/3 10/12/3
f 9/13/4 6/14/4 5/15/4 7/16/4
f 4/17/3 1/18/3 8/19/3 10/20/3
f 4/21/5 10/22/5 14/23/5
f 1/21/6 11/23/6 8/22/6
f 13/24/7 12/25/7 11/26/7 14/27/7
f 2/28/6 8/22/6 18/29/6 5/30/6
f 3/28/5 6/30/5 19/29/5 10/22/5
f 9/31/5 19/29/5 6/30/5
f 7/31/6 5/30/6 18/29/6
f 16/32/6 18/29/6 8/22/6 17/33/6
f 20/32/5 21/33/5 10/22/5 19/29/5
f 12/34/6 8/22/6 11/23/6
f 12/34/6 15/35/6 8/22/6
f 8/22/6 15/35/6 17/33/6
f 10/22/5 13/34/5 14/23/5
f 22/35/5 13/34/5 10/22/5
f 10/22/5 21/33/5 22/35/5
f 13/36/8 22/37/8 15/38/8 12/39/8
f 17/40/9 15/41/9 22/42/9 21/43/9
f 16/44/10 17/45/10 21/46/10 20/47/10
f 18/48/11 16/49/11 20/50/11 19/51/11
f 9/52/12 7/53/12 18/54/12 19/55/12
